<?xml version="1.0" encoding="utf-8"?>
<!-- Generator: Adobe Illustrator 22.1.0, SVG Export Plug-In . SVG Version: 6.00 Build 0)  -->
<svg version="1.1" id="a02f2390-8fa7-48a9-96f1-2ec5f63ecbc1"
	 xmlns="http://www.w3.org/2000/svg" xmlns:xlink="http://www.w3.org/1999/xlink" x="0px" y="0px" viewBox="0 0 1150 627.5"
	 style="enable-background:new 0 0 1150 627.5;" xml:space="preserve">
<style type="text/css">
	.st0{opacity:0.1;fill:#007BFF;enable-background:new    ;}
	.st1{fill:#454B69;}
	.st2{fill:none;}
	.st3{opacity:0.4;enable-background:new    ;}
	.st4{opacity:0.1;enable-background:new    ;}
	.st5{fill:#EFB7B9;}
	.st6{fill:#FFFFFF;}
	.st7{fill:#007BFF;}
	.st8{opacity:0.1;}
	.st9{opacity:8.000000e-02;enable-background:new    ;}
	.st10{fill:#3F3D56;}
	.st11{fill:#9C9CA1;}
	.st12{fill:#939498;}
	.st13{fill:#42E8E0;}
	.st14{opacity:0.5;fill:#42E8E0;}
	.st15{opacity:0.5;}
	.st16{opacity:0.11;}
	.st17{fill:url(#SVGID_1_);}
	.st18{fill:url(#SVGID_2_);}
	.st19{fill:url(#SVGID_3_);}
	.st20{fill:url(#SVGID_4_);}
	.st21{opacity:0.11;fill:url(#SVGID_5_);}
	.st22{fill:url(#SVGID_6_);}
	.st23{fill:url(#SVGID_7_);}
	.st24{fill:url(#SVGID_8_);}
	.st25{fill:url(#SVGID_9_);}
	.st26{opacity:0.11;fill:url(#SVGID_10_);}
	.st27{fill:url(#SVGID_11_);}
	.st28{fill:url(#SVGID_12_);}
	.st29{fill:url(#SVGID_13_);}
	.st30{fill:url(#SVGID_14_);}
	.st31{opacity:0.5;fill:url(#SVGID_15_);}
	.st32{fill:url(#SVGID_16_);}
	.st33{fill:url(#SVGID_17_);}
	.st34{opacity:0.2;fill:#180D5B;}
	.st35{fill:#160A5B;}
	.st36{fill:#24126A;}
	.st37{fill:url(#SVGID_18_);}
	.st38{fill:url(#SVGID_19_);}
	.st39{fill:#4846A5;}
	.st40{fill:#FCD1C5;}
	.st41{fill:#453C9E;}
	.st42{fill:url(#SVGID_20_);}
	.st43{fill:#F0F6FF;}
	.st44{fill:#AA8383;}
	.st45{fill:#C4CCD6;}
	.st46{fill:#E2B1A6;}
	.st47{fill:#1B2B3A;}
	.st48{fill:#936D6D;}
	.st49{fill:url(#SVGID_21_);}
	.st50{fill:url(#SVGID_22_);}
	.st51{fill:url(#SVGID_23_);}
	.st52{fill:url(#SVGID_24_);}
	.st53{fill:url(#SVGID_25_);}
	.st54{fill:url(#SVGID_26_);}
	.st55{fill:#722318;}
	.st56{fill:url(#SVGID_27_);}
	.st57{fill:url(#SVGID_28_);}
	.st58{fill:#8686F2;}
	.st59{fill:url(#SVGID_29_);}
	.st60{fill:#BCBEFF;}
	.st61{fill:#0F054C;}
	.st62{opacity:0.5;fill:url(#SVGID_30_);}
	.st63{opacity:0.5;fill:url(#SVGID_31_);}
	.st64{opacity:0.5;fill:url(#SVGID_32_);}
	.st65{opacity:0.5;fill:url(#SVGID_33_);}
	.st66{opacity:0.5;fill:url(#SVGID_34_);}
	.st67{opacity:0.5;fill:url(#SVGID_35_);}
	.st68{opacity:0.8;fill:#42E8E0;}
	.st69{fill:url(#SVGID_36_);}
	.st70{opacity:0.5;fill:url(#SVGID_37_);}
	.st71{opacity:0.5;fill:url(#SVGID_38_);}
	.st72{opacity:0.5;fill:url(#SVGID_39_);}
	.st73{opacity:0.5;fill:url(#SVGID_40_);}
	.st74{opacity:0.5;fill:url(#SVGID_41_);}
	.st75{opacity:0.5;fill:url(#SVGID_42_);}
	.st76{fill:url(#SVGID_43_);}
	.st77{opacity:0.5;fill:url(#SVGID_44_);}
	.st78{opacity:0.5;fill:url(#SVGID_45_);}
	.st79{opacity:0.5;fill:url(#SVGID_46_);}
	.st80{opacity:0.5;fill:url(#SVGID_47_);}
	.st81{opacity:0.5;fill:url(#SVGID_48_);}
	.st82{opacity:0.5;fill:url(#SVGID_49_);}
	.st83{fill:url(#SVGID_50_);}
	.st84{opacity:0.5;fill:url(#SVGID_51_);}
	.st85{opacity:0.5;fill:url(#SVGID_52_);}
	.st86{opacity:0.5;fill:url(#SVGID_53_);}
	.st87{opacity:0.5;fill:url(#SVGID_54_);}
	.st88{opacity:0.5;fill:url(#SVGID_55_);}
	.st89{opacity:0.5;fill:url(#SVGID_56_);}
	.st90{opacity:0.502;fill:#42E8E0;}
</style>
<title>teacher</title>
<path class="st0" d="M2887,615c-4.5,11-10,21.6-16.4,31.6c-3,4.8-6.3,9.3-9.9,13.7c0,0-0.1,0.1-0.1,0.1H1749.2l0.2-0.1
	c1-0.8,6.9-5.5,16-13.7c6.5-5.8,14.8-13.4,24-22.5c75.5-74.3,220.5-250,99.7-411c-112.3-149.7,8.6-176.8,88.3-180
	c30.6-1.2,61.2,3.8,89.9,14.7c36.8,14,104.2,35.5,191.9,45.3c2.9,0.3,5.8,0.6,8.7,0.9c46.4,4.7,93.2,5.6,139.8,2.5l0,0
	c1.4-0.1,2.8-0.2,4.1-0.3c46.1-3.2,91.8-10.3,136.7-21.1c2.9-0.7,5.8-1.4,8.6-2.1c149.6-34.6,287.6,83.4,253.1,216.7
	c-12.8,49.3-9.5,101.9,33,144.4C2912.9,503.6,2904.4,571.9,2887,615z"/>
<path class="st1" d="M2887,615c-4.5,11-10,21.6-16.4,31.6c-3,4.8-6.3,9.3-9.9,13.7H1749.4c1-0.8,6.9-5.5,16-13.7
	c6.5-5.8,14.8-13.4,24-22.5l117.1-24.2c1.5-0.3,3.1-0.5,4.6-0.5l124.9-0.2h0.1l61.8-0.1h0.1l52.2-0.1h34.2l0,0h35l143.4-0.2h0.2
	h11.1h19.5h24.4h6.5l24.6-0.3h8.1l71.6-0.1h22.9l0,0h11l0,0l82.8-0.1h24.6l78.4-0.1l66.2-0.1c1.8,0,3.7,0.2,5.5,0.7L2887,615z"/>
<path class="st2" d="M1765.4,646.6h1105.2c-3,4.8-6.3,9.3-9.9,13.7H1749.4C1750.3,659.4,1756.2,654.7,1765.4,646.6z"/>
<path class="st3" d="M1765.4,646.6h1105.2c-3,4.8-6.3,9.3-9.9,13.7H1749.4C1750.3,659.4,1756.2,654.7,1765.4,646.6z"/>
<path class="st1" d="M2482.4,335.6l-2.2,0.4l-100.4,19.3c-29.1,5.6-58.7,11.2-88.3,9.1c-21.5-1.6-41.5-7.9-62.1-13.5
	c-11.6-3.2-24-4.4-27.9-17.5c-5.4-18,3.4-44.6,5.5-62.9c2-17.9,3.2-36.3-0.4-53.9c-0.8-4-1.8-7.9-3.1-11.7
	c-3.6-10.6-9.2-21.6-6.2-32.4c2.4-8.5,9.7-14.6,16.5-20.3c13.4-11,27-23.3,32.3-39.8c2.6-8,3.1-16.6,5.9-24.6
	c5.3-15.1,18.6-26.4,33.5-32.4c14.8-6,31.2-7.3,47.2-7.3c14.1,0,28.3,0.9,42.3,2.8c15.3,2,30.7,5.3,44.1,12.9
	c13.4,7.6,24.8,20,27.9,35.1c4.4,21.4-7.9,44.2-1.3,65c3.3,10.5,11,19,16.3,28.6c8.8,16.3,10.6,35.4,5,53c-6.4,19.8-22,39.8-14,58.9
	c5.1,12.2,18.1,18.7,27.1,28.4C2481,333.8,2481.7,334.7,2482.4,335.6z"/>
<path class="st4" d="M2480.2,333v3l-100.4,19.3c-29.1,5.6-58.7,11.2-88.3,9.1c-21.5-1.6-41.5-7.9-62.1-13.5
	c-11.6-3.2-24-4.4-27.9-17.5c-5.4-18,3.4-44.6,5.5-62.9c2-17.9,32.8-83.3,29.2-100.9l184,8c1.2,9.8,49.9,58.8,46.8,68.2
	c-6.4,19.8-22,39.8-14,58.9C2458.1,316.9,2471.1,323.4,2480.2,333z"/>
<path class="st5" d="M2292.2,283.6c1.1,6.2,1.7,13-1.5,18.4c-4.2,7.2-13.4,9.5-21.6,11.2l-28.5,5.7c-1.9,0.4-4,0.8-5.4,2.2
	c-1.7,1.5-2.3,4-2.5,6.2c-1.1,10.3,2.5,20.5,5.8,30.3c6.7,19.9,12.4,40.2,20.9,59.4c8.5,19.2,20.2,37.5,36.9,50.4
	s38.7,19.7,59.1,14.7c17.8-4.4,32.4-16.9,44.9-30.2c10.4-11,20.1-23,25.1-37.3c3.5-9.8,4.6-20.2,5.7-30.6
	c1.7-15.9,3.4-31.7,5.1-47.6c0.8-7.4,1.3-15.8-3.5-21.5c-2.1-2.5-5-4.2-7.9-5.7c-10.9-5.8-22.5-10.6-32.6-17.6
	c-10.2-7-19.2-16.6-22.3-28.6c-1.9-7.2-1.5-15-4.7-21.7c-3.5-7.5-11-12.6-19-14.8s-16.4-1.9-24.7-1s-40,3.3-43.4,12.6
	c-1.8,5,5.8,15.7,7.6,20.6C2288.5,266.8,2290.7,275.1,2292.2,283.6z"/>
<path class="st4" d="M2292.2,283.6c1.1,6.2,1.7,13-1.5,18.4c-4.2,7.2-13.4,9.5-21.6,11.2l-28.5,5.7c-1.9,0.4-4,0.8-5.4,2.2
	c-1.7,1.5-2.3,4-2.5,6.2c-1.1,10.3,2.5,20.5,5.8,30.3c6.7,19.9,12.4,40.2,20.9,59.4c8.5,19.2,20.2,37.5,36.9,50.4
	s38.7,19.7,59.1,14.7c17.8-4.4,32.4-16.9,44.9-30.2c10.4-11,20.1-23,25.1-37.3c3.5-9.8,4.6-20.2,5.7-30.6
	c1.7-15.9,3.4-31.7,5.1-47.6c0.8-7.4,1.3-15.8-3.5-21.5c-2.1-2.5-5-4.2-7.9-5.7c-10.9-5.8-22.5-10.6-32.6-17.6
	c-10.2-7-19.2-16.6-22.3-28.6c-1.9-7.2-1.5-15-4.7-21.7c-3.5-7.5-11-12.6-19-14.8s-16.4-1.9-24.7-1s-40,3.3-43.4,12.6
	c-1.8,5,5.8,15.7,7.6,20.6C2288.5,266.8,2290.7,275.1,2292.2,283.6z"/>
<path class="st6" d="M2360.8,392.3l16.7-35.4c7.8-16.6,15.8-34,15-52.3c-0.2-3.6-0.2-8.2,3-9.8c1.4-0.6,2.9-0.8,4.4-0.6
	c17.6,0.9,35,4.4,51.5,10.4c3.2,1.2,6.5,2.5,8.8,5.1s3.2,6,3.9,9.3c2.6,11.2,4.5,22.5,5.7,33.9c3,28.2,1.5,56.7,0,85l-4.4,86.4
	c0,1.2-0.2,2.4-0.7,3.6c-1.1,2-3.6,2.7-5.8,3c-8.6,1.5-17.4,1.2-26.1,0.8c-61.2-2.3-122.7-5.9-183.5,1.5c0.3-9,0.1-18-0.4-27
	c-2.4-38.9-12.5-76.8-22.4-114.5c-5.8-22-11.4-46-2.1-66.7c1.4-3.3,3.3-6.3,5.8-8.8c4-3.9,9.3-5.9,14.7-7.4
	c9.2-2.5,18.8-3.6,28.3-3.2l63.1,137.3c2.9,6.3,5.3,12.9,8.1,19.1c2.6-10.7-0.5-23.3,2.6-34.9
	C2350.2,415.1,2355.5,403.6,2360.8,392.3z"/>
<path class="st7" d="M2354.2,486.8c11.3,0.7,22.2-5.1,30-13.2s12.9-18.5,17.2-29c6.2-14.9,11.2-30.3,14.8-46.1
	c3-13.4,5.1-27.3,3.1-40.9c-2.9-18.8-13.5-35.8-15.3-54.7c-0.3-3.3-0.1-7.2,2.5-9.1c1.6-1.2,3.8-1.4,5.8-1.5
	c18.9-1.1,39.6-0.9,54.2,11.1c4.5,3.6,8.1,8.2,12.4,11.9c10.4,9,25,13.6,31.6,25.5c2.3,4.2,3.4,8.9,5.1,13.4
	c3.8,10.6,10.4,19.9,17,29.1c-6.4,26.9-13.7,53.8-20.1,80.7c-3.7,15.8-7.5,31.6-13.3,46.7c-3.8,9.9-8.7,20-7.5,30.6
	c0.5,4.2,1.9,8.2,3.1,12.2c4.2,14.1,6.2,28.8,5.9,43.5l-285.3,0.7c13.7-19.6,17.7-43.6,16.3-67.5c-0.7-11.4-3.3-22.9-9-32.8
	c-9.1-15.5-25-25.6-40.7-34.3c-11-6-22.8,27.8-34.7,23.9c1.9-13.6,2.8-66,2-79.7c-0.3-4.5-0.7-9.1,0.7-13.4c0.9-2.9,2.7-5.5,3.8-8.4
	c4.7-11.4,0.2-26,7.8-35.7c5.2-6.8,14.4-8.7,21.9-12.8c7.7-4.3,13.6-11,20.3-16.7c13.1-11.1,29.1-18.3,46.2-20.6
	c5,7.8,8,16.8,8.8,26c0.5,5.8,0.1,11.7,0.9,17.5c1.1,7.8,4.3,15.2,7.6,22.4c13.4,30.2,26.8,60.5,43.7,88.8c4.8,8,10,16,16.9,22.2
	S2344.9,487.2,2354.2,486.8z"/>
<path class="st4" d="M2354.2,486.8c11.3,0.7,22.2-5.1,30-13.2s12.9-18.5,17.2-29c6.2-14.9,11.2-30.3,14.8-46.1
	c3-13.4,5.1-27.3,3.1-40.9c-2.9-18.8-13.5-35.8-15.3-54.7c-0.3-3.3-0.1-7.2,2.5-9.1c1.6-1.2,3.8-1.4,5.8-1.5
	c18.9-1.1,39.6-0.9,54.2,11.1c4.5,3.6,8.1,8.2,12.4,11.9c10.4,9,25,13.6,31.6,25.5c2.3,4.2,3.4,8.9,5.1,13.4
	c3.8,10.6,10.4,19.9,17,29.1c-6.4,26.9-13.7,53.8-20.1,80.7c-3.7,15.8-7.5,31.6-13.3,46.7c-3.8,9.9-8.7,20-7.5,30.6
	c0.5,4.2,1.9,8.2,3.1,12.2c4.2,14.1,6.2,28.8,5.9,43.5l-285.3,0.7c13.7-19.6,17.7-43.6,16.3-67.5c-0.7-11.4-3.3-22.9-9-32.8
	c-9.1-15.5-25-25.6-40.7-34.3c-11-6-22.8,27.8-34.7,23.9c1.9-13.6,2.8-66,2-79.7c-0.3-4.5-0.7-9.1,0.7-13.4c0.9-2.9,2.7-5.5,3.8-8.4
	c4.7-11.4,0.2-26,7.8-35.7c5.2-6.8,14.4-8.7,21.9-12.8c7.7-4.3,13.6-11,20.3-16.7c13.1-11.1,29.1-18.3,46.2-20.6
	c5,7.8,8,16.8,8.8,26c0.5,5.8,0.1,11.7,0.9,17.5c1.1,7.8,4.3,15.2,7.6,22.4c13.4,30.2,26.8,60.5,43.7,88.8c4.8,8,10,16,16.9,22.2
	S2344.9,487.2,2354.2,486.8z"/>
<circle class="st5" cx="2339.1" cy="195.6" r="85.7"/>
<path class="st1" d="M2294.1,309.8c2.4-22.2-6.9-43.9-17.3-63.6c-5-9.4-10.4-18.8-12.9-29.2s-1.8-22.1,4.6-30.6
	c5.5-7.2,14.1-11.1,22.1-15.4c22.6-12,43.3-29.6,53.2-53.2c-5.6,3.1-4.2,12.2,0.8,16.2s11.7,4.8,17.8,6.7
	c22.2,7,35.6,29.2,46.3,49.9c1.8,3.4,3.5,7,3.5,10.8s-1.8,7.2-3.6,10.4c-5.3,9.4-11.7,18.4-14.1,28.9c-2.8,12,0.2,24.6,3.9,36.4
	c4,12.5,9.3,25.1,18.9,34.1c9.6,9,24.5,13.4,36.3,7.6c-11.8-20.3-24-42.9-19.4-65.9c2.2-11,8.2-21,10.7-31.9
	c4.8-20.9-3.2-42.3-11.1-62.3l-23.6-59.4c-3.6-9.1-7.7-18.8-16-23.9c-5.6-3.5-12.4-4.4-18.9-5c-21.1-1.9-43-1.3-62.7,6.6
	c-35.8,14.3-58.3,49.6-76.1,83.8c-5.3,10.3-10.6,21.1-10.4,32.7c0.1,6.3,1.9,12.5,3.3,18.7c5.9,25.2,6.2,51.2,6.5,77.1
	c0.2,19.8-0.8,38.5-9.5,56.5c11.9,2.4,29.1,8.7,40.9,4.1C2282.8,343.9,2292.2,325.2,2294.1,309.8z"/>
<g class="st8">
	<path d="M2236,288.9c0-2.8,0-5.7,0-8.5c-0.3-25.8-0.6-51.9-6.5-77.1c-1.3-4.9-2.3-9.9-3.1-14.9c-0.2,1.7-0.3,3.5-0.3,5.2
		c0.1,6.3,1.9,12.5,3.3,18.7C2235.3,237.3,2235.7,263.2,2236,288.9z"/>
	<path d="M2445.1,221.1c1.3-5.8,1.8-11.8,1.3-17.8c-0.2,3-0.6,5.9-1.3,8.8c-2.5,11-8.5,20.9-10.7,31.9c-1,4.9-1.2,9.8-0.8,14.8
		c0.2-1.9,0.4-3.9,0.8-5.8C2436.6,242,2442.5,232.1,2445.1,221.1z"/>
	<path d="M2411.6,196.9c0.5-1.4,0.8-2.9,0.8-4.4c0-3.8-1.8-7.4-3.5-10.8c-10.7-20.7-24-42.9-46.3-49.9c-6.1-1.9-12.8-2.7-17.8-6.7
		c-2.6-2.2-4.2-5.4-4.4-8.8c-10.8,19.9-29.5,35.1-49.6,45.8c-8,4.3-16.7,8.2-22.1,15.4c-5.1,6.8-6.6,15.6-5.7,24.2
		c0.5-5.5,2.5-10.7,5.7-15.2c5.5-7.2,14.1-11.1,22.1-15.4c20.2-10.7,38.8-25.9,49.6-45.8c0.2,3.4,1.8,6.6,4.4,8.8
		c5,4,11.7,4.8,17.8,6.7c22.2,7,35.6,29.2,46.3,49.9C2409.9,192.7,2410.8,194.7,2411.6,196.9z"/>
	<path d="M2417.5,302.3c-9.6-9-14.9-21.6-18.9-34.1c-2.4-7-4-14.3-4.8-21.7c-0.9,10.3,1.6,20.8,4.8,30.7c4,12.5,9.3,25.1,18.9,34.1
		c9.6,9,24.5,13.4,36.3,7.6c-1.4-2.4-2.8-4.9-4.2-7.4C2438.6,314.7,2426,310.3,2417.5,302.3z"/>
	<path d="M2294.1,300.8c-1.9,15.4-11.4,34.1-26.7,40.2c-10.7,4.2-25.9-0.6-37.4-3.3c-1,2.8-2.1,5.6-3.4,8.3
		c11.9,2.4,29.1,8.7,40.9,4.1c15.4-6.1,24.8-24.8,26.7-40.2c0.4-3.9,0.5-7.7,0.2-11.6C2294.3,299.1,2294.2,299.9,2294.1,300.8z"/>
</g>
<path class="st6" d="M2415.3,548.7c-15.4-2.5-31.1-7.2-46.4-4c-8.9,1.8-17,6.3-24.4,11.6c4.1,3.3,8.8,6.2,11.4,10.7
	c1.6,3.1,2.8,6.4,3.6,9.9c1.6,6,3.3,12.1,3.5,18.4s-1,12.7-4.7,17.8c19.5,1.9,38.4-2.9,57.4-7.6c2.2-0.4,4.2-1.2,6.1-2.5
	c3-2.4,3.9-6.6,3.9-10.4c0-6.8-1.9-13.5-3.9-20.1C2419.4,564.7,2417.6,556.6,2415.3,548.7z"/>
<path class="st7" d="M2519.6,380.1c7.7,1,13.6,7.2,18,13.5c12.3,17.7,17.6,39.2,23.5,59.9c7.3,25.8,16,51.2,25.9,76.1
	c2.1,5.8,4.7,11.4,7.8,16.7c2.5,4.1,5.5,8.1,6.6,12.8c2.6,11.3-6.7,22-16.5,28.3c-5.2,3.5-10.9,6.2-16.8,8.1
	c-5.8,1.7-11.9,2.4-17.9,3.1l-55.5,6c-25.5,2.8-51.3,5.6-76.9,2.9c-1.6-5.6,1.6-9.6,1.3-15.4c-0.2-4.2-2-8-3.6-11.9
	c-3-6.8-5-14.1-5.9-21.5c-0.3-2.7-0.4-5.5-1.4-8.1c-1-2.5-3.3-4.8-6-5c15-1.5,26.4-4.3,41.4-5.8c5.6-0.6,11.4-1.2,16.1-4.2
	c5.9-3.7,9.2-10.3,11.8-16.7c6.5-15.9,10.7-33.4,7.3-50.3c-2.8-13.8-10.6-26.7-10.6-40.8c0-8.4,2.9-16.5,6.2-24.2
	c3.6-8.1,8.3-16.4,16.1-20.5C2498.2,379.1,2510.8,378.9,2519.6,380.1z"/>
<path class="st9" d="M2519.6,380.1c7.7,1,13.6,7.2,18,13.5c12.3,17.7,17.6,39.2,23.5,59.9c7.3,25.8,16,51.2,25.9,76.1
	c2.1,5.8,4.7,11.4,7.8,16.7c2.5,4.1,5.5,8.1,6.6,12.8c2.6,11.3-6.7,22-16.5,28.3c-5.2,3.5-10.9,6.2-16.8,8.1
	c-5.8,1.7-11.9,2.4-17.9,3.1l-55.5,6c-25.5,2.8-51.3,5.6-76.9,2.9c-1.6-5.6,1.6-9.6,1.3-15.4c-0.2-4.2-2-8-3.6-11.9
	c-3-6.8-5-14.1-5.9-21.5c-0.3-2.7-0.4-5.5-1.4-8.1c-1-2.5-3.3-4.8-6-5c15-1.5,26.4-4.3,41.4-5.8c5.6-0.6,11.4-1.2,16.1-4.2
	c5.9-3.7,9.2-10.3,11.8-16.7c6.5-15.9,10.7-33.4,7.3-50.3c-2.8-13.8-10.6-26.7-10.6-40.8c0-8.4,2.9-16.5,6.2-24.2
	c3.6-8.1,8.3-16.4,16.1-20.5C2498.2,379.1,2510.8,378.9,2519.6,380.1z"/>
<path class="st5" d="M2172,367.1c3.6-8.6,7.3-17.5,7.4-26.9c0.1-10.1-4-19.7-7.1-29.3c-3.9-11.7-6.5-23.9-7.7-36.2
	c-0.3-1.2-0.1-2.4,0.5-3.5c0.8-1.2,2.4-1.4,3.8-1.7c6.9-1.6,12.1-7.2,16.5-12.8c6.7-8.7,12.4-18.1,16.9-28.2
	c3.3-7.4,7.8-16.4,15.9-16.4c-3.3,15.3-7.3,30.4-12.1,45.3c8.4-2.2,16.5-5.3,24.9-7.5c1.7-0.5,3.4-0.8,5.1-0.7
	c5.1,0.5,8.2,7.4,5.2,11.5c4.1,4.8,11,6.1,16.4,9.5c5.4,3.3,9.3,11.5,4.5,15.7c-0.9,0.8-2.1,1.4-2.8,2.4c-2.3,3.6,3.4,7.7,2.9,11.9
	c-0.4,3.5-4.8,5.1-8.2,4.2c-3.4-0.9-6-3.4-9-5.3s-6.9-3-9.8-1.1c-0.8,9.4-1.6,19-5.7,27.6c-1.5,3.1-3.4,6.1-4.6,9.3
	c-1.1,3.5-1.9,7.2-2.1,10.9l-3.6,33.2C2201.9,382.6,2186.4,377.4,2172,367.1z"/>
<path class="st6" d="M2167.8,396.8l-3.2-21.6c-0.3-1.8-0.5-3.5-0.5-5.3c0-5,2.2-9.8,4.3-14.3c17.6,8.2,36.7,11.2,56.2,11.2
	c2.6,0,5.5-0.2,7.1-2.3c3.3,3.8,3.4,9.9,2,14.8c-1.4,4.8-4.1,9.2-5.9,13.9c-0.9,2.4-1.6,5-3.4,6.8c-2.7,2.9-7.1,3.4-11.1,3.4
	c-4.2,0-8.4-0.4-12.5-1.2C2190.2,400.3,2178.4,394.9,2167.8,396.8z"/>
<path class="st7" d="M2233.6,396c-13.7-1.6-27.3-3.8-40.8-6.6c-6.6-1.4-13.3-2.9-20.1-2.7c-4.4,0.2-9.1,1.1-13-1.1
	c3.8,12.8,4,26.3-0.5,38.9c-2.7,7.5-6.7,14.5-8.7,22.2c-4.1,16.2,1.5,33.8-3.6,49.6c-0.5,2.1-1.6,4-3.1,5.5
	c-1.6,1.4-3.7,2.2-5.1,3.7c-2.1,2.3-2.3,5.7-2.3,8.8l-0.1,27.5c-0.1,17.5,0.2,36.1,9.4,51c10.6,17,32.8,25.8,52.1,20.6
	c5.1-1.3,10-3.7,14.2-6.9c6.7-5.3,11-13.1,15.2-20.6c5-9,10-18.2,11.6-28.3c1.1-7.2,0.5-14.5-0.3-21.7c-4.5-40-14.3-79.7-12.2-119.8
	C2226.7,408.9,2229.2,401.8,2233.6,396z"/>
<path class="st5" d="M2290.9,562c-6.9,0.4-13.9,0.8-20.9,0c-5-0.6-9.9-1.8-14.8-2.7c-27.4-4.4-55.4,3.3-76.6,21.3
	c-3.8,3.3-7.7,8.3-5.6,12.9c2.3,4.9,9.3,4.8,14.6,3.9c-5.8,2.8-10.9,6.8-15,11.7c-1.5,1.8-2.9,4-2.6,6.4c0.6,5,7.3,5.8,12.3,5.4
	c-1.6,1.7-0.5,4.8,1.5,6c2.1,1.2,4.6,0.9,7,0.5c5.2-0.9,10.1-2.7,14.8-5.1c-0.9,2.5,0.7,5.3,3,6.5c2.3,1.2,5.1,1.1,7.7,0.7
	c12.2-2,22.4-10.5,34.3-13.8c19.1-5.3,39,3.2,58.8,3.8c6.2,0.2,12.6-0.4,18.2-3c6.9-3.2,12.5-9.1,19.8-11.2
	c8.1-2.3,17.5,0.3,24.9-3.7c5.4-2.9,0.5-25.3-0.9-29.7c-2.5-7.9-5.1-13.1-13.5-13.9C2336.6,555.9,2312.4,560.7,2290.9,562z"/>
<path class="st6" d="M2344.1,555.8c0,0,32.3,27.3,13.7,57.2l36-12.4v-26.1c0-1.2-13.7-19.9-13.7-19.9l-16.1-2.5L2344.1,555.8z"/>
<path class="st10" d="M2006,554.1h12.1c13.8,0,25,11.2,25,25v37.1l0,0H1981l0,0v-37.1C1981,565.3,1992.2,554.1,2006,554.1
	C2006,554.1,2006,554.1,2006,554.1z"/>
<path class="st4" d="M2006,554.1h12.1c13.8,0,25,11.2,25,25v37.1l0,0H1981l0,0v-37.1C1981,565.3,1992.2,554.1,2006,554.1
	C2006,554.1,2006,554.1,2006,554.1z"/>
<circle class="st10" cx="2009.6" cy="562.8" r="5"/>
<circle class="st10" cx="2009.6" cy="556.6" r="5"/>
<circle class="st10" cx="2009.6" cy="550.4" r="5"/>
<circle class="st10" cx="2009.6" cy="544.2" r="5"/>
<circle class="st10" cx="2009.6" cy="538" r="5"/>
<circle class="st10" cx="2009.6" cy="531.8" r="5"/>
<circle class="st10" cx="2009.6" cy="525.6" r="5"/>
<circle class="st10" cx="2017" cy="528.1" r="5"/>
<circle class="st10" cx="2022" cy="525.6" r="5"/>
<circle class="st10" cx="2027" cy="523.1" r="5"/>
<circle class="st10" cx="2009.6" cy="519.4" r="5"/>
<circle class="st10" cx="2009.6" cy="513.1" r="5"/>
<circle class="st10" cx="2009.6" cy="506.9" r="5"/>
<circle class="st10" cx="2009.6" cy="500.7" r="5"/>
<path class="st7" d="M2030.2,484.7c-1.2,0.2-2.5,0.3-3.7,0.4c1.2-1,2.2-2.1,3.2-3.3c-0.7-2.1-1.7-4.1-3-5.8c-1.2,0.7-2.6,1.1-4,1.3
	c-1.2,0.2-2.5,0.3-3.7,0.4c1.6-1.3,3.2-3.3,4.8-5c-8.6-7.8-22-7.2-29.8,1.5c-7.8,8.6-7.2,22,1.5,29.8s22,7.2,29.8-1.5
	c3.5-3.9,5.5-8.9,5.5-14.2c0-1.2-0.1-2.4-0.3-3.6L2030.2,484.7z"/>
<path class="st7" d="M2046.8,509.4c-1.3,0.8-2.7,1.3-4.2,1.4c-1.2,0.2-2.5,0.3-3.7,0.4c1.3-1.2,2.5-2.5,3.7-3.8
	c-6.6-1.7-13.4,2.3-15.2,8.9c-1.7,6.6,2.3,13.4,8.9,15.2c6.6,1.7,13.4-2.3,15.2-8.9C2052.8,517.6,2050.9,512.4,2046.8,509.4
	L2046.8,509.4z"/>
<circle class="st10" cx="2002.1" cy="528.1" r="5"/>
<circle class="st10" cx="1997.1" cy="525.6" r="5"/>
<circle class="st10" cx="1992.2" cy="523.1" r="5"/>
<path class="st7" d="M1972.4,509.4c1.3,0.8,2.7,1.3,4.2,1.4c1.2,0.2,2.5,0.3,3.7,0.4c-1.3-1.2-2.6-2.5-3.7-3.8
	c6.6-1.7,13.4,2.3,15.2,8.9c1.7,6.6-2.3,13.4-8.9,15.2c-6.6,1.7-13.4-2.3-15.2-8.9C1966.4,517.6,1968.2,512.4,1972.4,509.4
	L1972.4,509.4z"/>
<path class="st10" d="M2006,557.8h12.1c13.8,0,25,11.2,25,25l0,0v32.9c0,2.3-1.9,4.2-4.2,4.2h-53.7c-2.3,0-4.2-1.9-4.2-4.2v-32.9
	C1981,569,1992.2,557.8,2006,557.8C2006,557.8,2006,557.8,2006,557.8z"/>
<g class="st8">
	<path d="M2030.5,486.1c-0.5,0.5-1,1-1.6,1.5c0.6,0,1.1-0.1,1.7-0.2C2030.6,487,2030.6,486.5,2030.5,486.1z"/>
	<path d="M2021.5,480.1c1.3-0.1,2.5-0.2,3.7-0.4c1.1-0.1,2.2-0.4,3.2-0.9c-0.5-1-1.1-2-1.7-2.9c-0.6,0.4-1.3,0.7-2,0.8
		C2023.7,478,2022.6,479.1,2021.5,480.1z"/>
	<path d="M1990.9,490.8c0-11.6,9.4-21.1,21-21.1c4.1,0,8,1.2,11.5,3.4l0.3-0.3c-8.7-7.7-22-7-29.8,1.7c-7.7,8.7-7,22,1.7,29.8
		c0.1,0.1,0.2,0.1,0.2,0.2C1992.7,500.6,1990.9,495.8,1990.9,490.8z"/>
</g>
<g class="st8">
	<path d="M2038.9,513.7c1.2-0.1,2.5-0.2,3.7-0.4c1.5-0.1,2.9-0.6,4.2-1.4c2.8,2.1,4.7,5.3,5,8.8c0-0.4,0.1-0.9,0.1-1.3
		c0-3.9-1.8-7.7-5-10c-1.3,0.8-2.7,1.3-4.2,1.4l-1,0.1C2040.8,511.9,2039.9,512.8,2038.9,513.7z"/>
	<path d="M2039.4,509.4c0.4,0,0.8,0,1.2,0.1c0.7-0.7,1.3-1.4,1.9-2.2c-6.6-1.8-13.4,2.2-15.2,8.8c-0.3,1.1-0.4,2.1-0.4,3.2
		c0,0.4,0,0.8,0.1,1.2C2027.7,514.3,2033,509.4,2039.4,509.4z"/>
</g>
<g class="st8">
	<path d="M1980.3,513.7c-1.2-0.1-2.5-0.2-3.7-0.4c-1.5-0.1-2.9-0.6-4.2-1.4c-2.8,2.1-4.7,5.3-5,8.8c0-0.4-0.1-0.9-0.1-1.3
		c0-3.9,1.8-7.7,5-10c1.3,0.8,2.7,1.3,4.2,1.4l1,0.1C1978.3,511.9,1979.3,512.8,1980.3,513.7z"/>
	<path d="M1979.8,509.4c-0.4,0-0.8,0-1.3,0.1c-0.6-0.7-1.3-1.4-1.9-2.2c6.6-1.8,13.4,2.2,15.2,8.8c0.3,1.1,0.4,2.1,0.4,3.2
		c0,0.4,0,0.8-0.1,1.2C1991.5,514.3,1986.1,509.4,1979.8,509.4z"/>
</g>
<path class="st7" d="M1462.8,632h-97.7c-2.3,0-4.2-1.9-4.2-4.2l0,0v-46.2c0-2.3,1.9-4.2,4.1-4.2c0.6,0,1.2,0.1,1.8,0.4
	c28.1,13.3,58.3,17.9,94,0.2c2.1-1,4.6-0.2,5.6,1.9c0.3,0.6,0.4,1.2,0.4,1.8v46C1467,630,1465.1,631.9,1462.8,632
	C1462.9,632,1462.9,632,1462.8,632z"/>
<path class="st4" d="M1462.8,632h-97.7c-2.3,0-4.2-1.9-4.2-4.2l0,0v-46.2c0-2.3,1.9-4.2,4.1-4.2c0.6,0,1.2,0.1,1.8,0.4
	c28.1,13.3,58.3,17.9,94,0.2c2.1-1,4.6-0.2,5.6,1.9c0.3,0.6,0.4,1.2,0.4,1.8v46C1467,630,1465.1,631.9,1462.8,632
	C1462.9,632,1462.9,632,1462.8,632z"/>
<ellipse class="st10" cx="1413.3" cy="589.2" rx="5.8" ry="7.6"/>
<ellipse class="st10" cx="1413.3" cy="580" rx="5.8" ry="7.6"/>
<ellipse class="st10" cx="1413.3" cy="570.7" rx="5.8" ry="7.6"/>
<ellipse class="st10" cx="1413.3" cy="561.5" rx="5.8" ry="7.6"/>
<ellipse class="st10" cx="1413.3" cy="552.2" rx="5.8" ry="7.6"/>
<ellipse class="st10" cx="1413.3" cy="543" rx="5.8" ry="7.6"/>
<ellipse class="st10" cx="1413.3" cy="533.7" rx="5.8" ry="7.6"/>
<path class="st7" d="M1435,470.4c0.8-1,1.5-2.1,2.2-3.2l-15.2-2.5l16.4,0.1c3.2-6.9,3.4-14.9,0.5-22l-22.1,11.4l20.3-15
	c-7.7-13.2-24.6-17.8-37.9-10.1c-13.2,7.7-17.8,24.6-10.1,37.9c0.7,1.1,1.4,2.2,2.2,3.3c-1.2,1.6-2.3,3.3-3.2,5l19.7,10.4l-21-7.1
	c-3,8.9-1.3,18.6,4.5,26c-9.5,12-7.4,29.4,4.6,38.9c12,9.5,29.4,7.4,38.9-4.6c7.9-10.1,7.9-24.2,0-34.3
	C1442.9,494.5,1442.9,480.4,1435,470.4L1435,470.4z"/>
<path class="st4" d="M1385.5,487.5c0,6.2,2.1,12.3,5.9,17.1c-9.5,12-7.4,29.4,4.6,38.9s29.4,7.4,38.9-4.6c7.9-10.1,7.9-24.2,0-34.3
	C1438.7,499.9,1385.5,484.4,1385.5,487.5z"/>
<path class="st7" d="M1462.8,634.4h-97.7c-2.3,0-4.2-1.9-4.2-4.2l0,0v-48.7c0-2.3,1.9-4.2,4.1-4.2c0.6,0,1.2,0.1,1.8,0.4
	c28.1,13.3,50.3,28.8,94,0.2c2.6-1.7,6,0.6,6,3.7v48.5C1466.9,632.5,1465.1,634.4,1462.8,634.4z"/>
<polygon class="st11" points="2671,620.6 2526.9,639.7 2519.7,640.7 2449.2,603 2449.2,594.2 2669.4,570.2 "/>
<polygon class="st12" points="2490.1,607 2646.2,588.6 2644.6,617.4 2523,626.4 "/>
<path class="st3" d="M2526.9,630.2v9.5l-7.2,1l-70.5-37.7v-8.8l67.3,36C2516.5,630.2,2525.3,631,2526.9,630.2z"/>
<path class="st10" d="M2554.6,480.1l-32.4,150.1c-1.1,5.2,2.2,10.3,7.3,11.4c1.1,0.2,2.2,0.3,3.3,0.1l204.7-27.1
	c3.6-0.5,6.7-3,7.8-6.5l44.2-133.2c1.7-5-1.1-10.5-6.1-12.1c-1.1-0.4-2.3-0.5-3.5-0.5l-216.5,10.3
	C2559.2,472.8,2555.5,475.9,2554.6,480.1z"/>
<ellipse transform="matrix(0.1045 -0.9945 0.9945 0.1045 1851.3655 3125.873)" class="st6" cx="2661.5" cy="534.9" rx="8.7" ry="5.6"/>
<g>
	<path class="st13" d="M796,133.4c5.6,1.4,11.1,2.9,16.4,4.5v39.7c-5.4-1.6-10.9-3.1-16.4-4.5V133.4L796,133.4z"/>
	<path class="st14" d="M757.9,135.1c6,1.1,11.8,2.4,17.6,3.6v29.5c-5.8-1.3-11.7-2.5-17.6-3.6V135.1L757.9,135.1z"/>
	<path class="st13" d="M717.5,102.7c6.3,0.8,12.5,1.7,18.7,2.7v55.4c-6.2-1-12.4-1.9-18.7-2.7V102.7L717.5,102.7z"/>
	<path class="st14" d="M674.9,67.8c6.6,0.5,13.1,1,19.6,1.7v86c-6.5-0.6-13-1.2-19.6-1.7V67.8L674.9,67.8z"/>
	<path class="st14" d="M630.6,86.3c6.9,0.1,13.7,0.3,20.4,0.6l0,65.6c-6.7-0.3-13.5-0.5-20.4-0.6V86.3L630.6,86.3z"/>
	<path class="st13" d="M585.8,17.6c6.7-0.3,13.4-0.5,20.2-0.6v134.9c-6.8,0.1-13.5,0.3-20.2,0.6V17.6L585.8,17.6z"/>
	<path class="st13" d="M542.5,45.4c6.4-0.6,12.9-1.2,19.5-1.6v110.1c-6.6,0.5-13.1,1-19.5,1.6V45.4L542.5,45.4z"/>
	<path class="st13" d="M501,9.4c6.1-1,12.3-1.8,18.6-2.7V158c-6.3,0.8-12.5,1.7-18.6,2.7V9.4L501,9.4z"/>
</g>
<g>
	<g>
		<g>
			<g class="st15">
				<g class="st16">
					<linearGradient id="SVGID_1_" gradientUnits="userSpaceOnUse" x1="450.8412" y1="559.8645" x2="725.3499" y2="559.8645">
						<stop  offset="0" style="stop-color:#5761D7"/>
						<stop  offset="7.257640e-02" style="stop-color:#5472D8"/>
						<stop  offset="0.2791" style="stop-color:#4E9CDB"/>
						<stop  offset="0.4801" style="stop-color:#49BDDD"/>
						<stop  offset="0.6715" style="stop-color:#45D5DF"/>
						<stop  offset="0.8493" style="stop-color:#43E3E0"/>
						<stop  offset="1" style="stop-color:#42E8E0"/>
					</linearGradient>
					<path class="st17" d="M598.7,484.9c-6.5-3.8-14.5-3.8-21,0l-125.4,72.2c-2,1.1-2,4,0,5.1l126.4,73c5.7,3.3,12.8,3.3,18.6,0
						l126.6-72.9c2-1.1,2-4,0-5.1L598.7,484.9z"/>
				</g>
				<g class="st16">
					<linearGradient id="SVGID_2_" gradientUnits="userSpaceOnUse" x1="450.8412" y1="538.7475" x2="725.3499" y2="538.7475">
						<stop  offset="0" style="stop-color:#5761D7"/>
						<stop  offset="7.257640e-02" style="stop-color:#5472D8"/>
						<stop  offset="0.2791" style="stop-color:#4E9CDB"/>
						<stop  offset="0.4801" style="stop-color:#49BDDD"/>
						<stop  offset="0.6715" style="stop-color:#45D5DF"/>
						<stop  offset="0.8493" style="stop-color:#43E3E0"/>
						<stop  offset="1" style="stop-color:#42E8E0"/>
					</linearGradient>
					<path class="st18" d="M598.7,463.8c-6.5-3.8-14.5-3.8-21,0L452.3,536c-2,1.1-2,4,0,5.1l126.4,73c5.7,3.3,12.8,3.3,18.6,0
						l126.6-72.9c2-1.1,2-4,0-5.1L598.7,463.8z"/>
				</g>
				<g class="st16">
					<linearGradient id="SVGID_3_" gradientUnits="userSpaceOnUse" x1="450.8412" y1="517.6305" x2="725.3499" y2="517.6305">
						<stop  offset="0" style="stop-color:#5761D7"/>
						<stop  offset="7.257640e-02" style="stop-color:#5472D8"/>
						<stop  offset="0.2791" style="stop-color:#4E9CDB"/>
						<stop  offset="0.4801" style="stop-color:#49BDDD"/>
						<stop  offset="0.6715" style="stop-color:#45D5DF"/>
						<stop  offset="0.8493" style="stop-color:#43E3E0"/>
						<stop  offset="1" style="stop-color:#42E8E0"/>
					</linearGradient>
					<path class="st19" d="M598.7,442.6c-6.5-3.8-14.5-3.8-21,0l-125.4,72.2c-2,1.1-2,4,0,5.1l126.4,73c5.7,3.3,12.8,3.3,18.6,0
						L723.9,520c2-1.1,2-4,0-5.1L598.7,442.6z"/>
				</g>
				<g class="st16">
					<linearGradient id="SVGID_4_" gradientUnits="userSpaceOnUse" x1="450.8412" y1="496.5134" x2="725.3499" y2="496.5134">
						<stop  offset="0" style="stop-color:#5761D7"/>
						<stop  offset="7.257640e-02" style="stop-color:#5472D8"/>
						<stop  offset="0.2791" style="stop-color:#4E9CDB"/>
						<stop  offset="0.4801" style="stop-color:#49BDDD"/>
						<stop  offset="0.6715" style="stop-color:#45D5DF"/>
						<stop  offset="0.8493" style="stop-color:#43E3E0"/>
						<stop  offset="1" style="stop-color:#42E8E0"/>
					</linearGradient>
					<path class="st20" d="M598.7,421.5c-6.5-3.8-14.5-3.8-21,0l-125.4,72.2c-2,1.1-2,4,0,5.1l126.4,73c5.7,3.3,12.8,3.3,18.6,0
						l126.6-72.9c2-1.1,2-4,0-5.1L598.7,421.5z"/>
				</g>
				<linearGradient id="SVGID_5_" gradientUnits="userSpaceOnUse" x1="450.841" y1="528.1889" x2="725.3498" y2="528.1889">
					<stop  offset="0" style="stop-color:#5761D7"/>
					<stop  offset="7.257640e-02" style="stop-color:#5472D8"/>
					<stop  offset="0.2791" style="stop-color:#4E9CDB"/>
					<stop  offset="0.4801" style="stop-color:#49BDDD"/>
					<stop  offset="0.6715" style="stop-color:#45D5DF"/>
					<stop  offset="0.8493" style="stop-color:#43E3E0"/>
					<stop  offset="1" style="stop-color:#42E8E0"/>
				</linearGradient>
				<path class="st21" d="M723.9,493.8l-125.2-72.3c-6.5-3.8-14.5-3.8-21,0l-125.4,72.2c-1,0.6-1.5,1.6-1.5,2.6v63.4
					c0,1,0.5,2,1.5,2.6l126.4,73c5.7,3.3,12.8,3.3,18.6,0l126.6-72.9c1-0.6,1.5-1.6,1.5-2.6v-63.4l0,0
					C725.3,495.4,724.9,494.4,723.9,493.8z"/>
			</g>
			<g>
				<g class="st16">
					<linearGradient id="SVGID_6_" gradientUnits="userSpaceOnUse" x1="450.8412" y1="472.5067" x2="725.3499" y2="472.5067">
						<stop  offset="0" style="stop-color:#5761D7"/>
						<stop  offset="7.257640e-02" style="stop-color:#5472D8"/>
						<stop  offset="0.2791" style="stop-color:#4E9CDB"/>
						<stop  offset="0.4801" style="stop-color:#49BDDD"/>
						<stop  offset="0.6715" style="stop-color:#45D5DF"/>
						<stop  offset="0.8493" style="stop-color:#43E3E0"/>
						<stop  offset="1" style="stop-color:#42E8E0"/>
					</linearGradient>
					<path class="st22" d="M598.7,397.5c-6.5-3.8-14.5-3.8-21,0l-125.4,72.2c-2,1.1-2,4,0,5.1l126.4,73c5.7,3.3,12.8,3.3,18.6,0
						l126.6-72.9c2-1.1,2-4,0-5.1L598.7,397.5z"/>
				</g>
				<g class="st16">
					<linearGradient id="SVGID_7_" gradientUnits="userSpaceOnUse" x1="450.8412" y1="451.3898" x2="725.3499" y2="451.3898">
						<stop  offset="0" style="stop-color:#5761D7"/>
						<stop  offset="7.257640e-02" style="stop-color:#5472D8"/>
						<stop  offset="0.2791" style="stop-color:#4E9CDB"/>
						<stop  offset="0.4801" style="stop-color:#49BDDD"/>
						<stop  offset="0.6715" style="stop-color:#45D5DF"/>
						<stop  offset="0.8493" style="stop-color:#43E3E0"/>
						<stop  offset="1" style="stop-color:#42E8E0"/>
					</linearGradient>
					<path class="st23" d="M598.7,376.4c-6.5-3.8-14.5-3.8-21,0l-125.4,72.2c-2,1.1-2,4,0,5.1l126.4,73c5.7,3.3,12.8,3.3,18.6,0
						l126.6-72.9c2-1.1,2-4,0-5.1L598.7,376.4z"/>
				</g>
				<g class="st16">
					<linearGradient id="SVGID_8_" gradientUnits="userSpaceOnUse" x1="450.8412" y1="430.2728" x2="725.3499" y2="430.2728">
						<stop  offset="0" style="stop-color:#5761D7"/>
						<stop  offset="7.257640e-02" style="stop-color:#5472D8"/>
						<stop  offset="0.2791" style="stop-color:#4E9CDB"/>
						<stop  offset="0.4801" style="stop-color:#49BDDD"/>
						<stop  offset="0.6715" style="stop-color:#45D5DF"/>
						<stop  offset="0.8493" style="stop-color:#43E3E0"/>
						<stop  offset="1" style="stop-color:#42E8E0"/>
					</linearGradient>
					<path class="st24" d="M598.7,355.3c-6.5-3.8-14.5-3.8-21,0l-125.4,72.2c-2,1.1-2,4,0,5.1l126.4,73c5.7,3.3,12.8,3.3,18.6,0
						l126.6-72.9c2-1.1,2-4,0-5.1L598.7,355.3z"/>
				</g>
				<g class="st16">
					<linearGradient id="SVGID_9_" gradientUnits="userSpaceOnUse" x1="450.8412" y1="409.1558" x2="725.3499" y2="409.1558">
						<stop  offset="0" style="stop-color:#5761D7"/>
						<stop  offset="7.257640e-02" style="stop-color:#5472D8"/>
						<stop  offset="0.2791" style="stop-color:#4E9CDB"/>
						<stop  offset="0.4801" style="stop-color:#49BDDD"/>
						<stop  offset="0.6715" style="stop-color:#45D5DF"/>
						<stop  offset="0.8493" style="stop-color:#43E3E0"/>
						<stop  offset="1" style="stop-color:#42E8E0"/>
					</linearGradient>
					<path class="st25" d="M598.7,334.2c-6.5-3.8-14.5-3.8-21,0l-125.4,72.2c-2,1.1-2,4,0,5.1l126.4,73c5.7,3.3,12.8,3.3,18.6,0
						l126.6-72.9c2-1.1,2-4,0-5.1L598.7,334.2z"/>
				</g>
				<linearGradient id="SVGID_10_" gradientUnits="userSpaceOnUse" x1="450.841" y1="440.8312" x2="725.3498" y2="440.8312">
					<stop  offset="0" style="stop-color:#5761D7"/>
					<stop  offset="7.257640e-02" style="stop-color:#5472D8"/>
					<stop  offset="0.2791" style="stop-color:#4E9CDB"/>
					<stop  offset="0.4801" style="stop-color:#49BDDD"/>
					<stop  offset="0.6715" style="stop-color:#45D5DF"/>
					<stop  offset="0.8493" style="stop-color:#43E3E0"/>
					<stop  offset="1" style="stop-color:#42E8E0"/>
				</linearGradient>
				<path class="st26" d="M723.9,406.4l-125.2-72.3c-6.5-3.8-14.5-3.8-21,0l-125.4,72.2c-1,0.6-1.5,1.6-1.5,2.6v63.4
					c0,1,0.5,2,1.5,2.6l126.4,73c5.7,3.3,12.8,3.3,18.6,0l126.6-72.9c1-0.6,1.5-1.6,1.5-2.6V409l0,0
					C725.3,408,724.9,407,723.9,406.4z"/>
			</g>
			<g>
				<g class="st16">
					<linearGradient id="SVGID_11_" gradientUnits="userSpaceOnUse" x1="450.8412" y1="385.1491" x2="725.3499" y2="385.1491">
						<stop  offset="0" style="stop-color:#5761D7"/>
						<stop  offset="7.257640e-02" style="stop-color:#5472D8"/>
						<stop  offset="0.2791" style="stop-color:#4E9CDB"/>
						<stop  offset="0.4801" style="stop-color:#49BDDD"/>
						<stop  offset="0.6715" style="stop-color:#45D5DF"/>
						<stop  offset="0.8493" style="stop-color:#43E3E0"/>
						<stop  offset="1" style="stop-color:#42E8E0"/>
					</linearGradient>
					<path class="st27" d="M598.7,310.2c-6.5-3.8-14.5-3.8-21,0l-125.4,72.2c-2,1.1-2,4,0,5.1l126.4,73c5.7,3.3,12.8,3.3,18.6,0
						l126.6-72.9c2-1.1,2-4,0-5.1L598.7,310.2z"/>
				</g>
				<g class="st16">
					<linearGradient id="SVGID_12_" gradientUnits="userSpaceOnUse" x1="450.8412" y1="364.032" x2="725.3499" y2="364.032">
						<stop  offset="0" style="stop-color:#5761D7"/>
						<stop  offset="7.257640e-02" style="stop-color:#5472D8"/>
						<stop  offset="0.2791" style="stop-color:#4E9CDB"/>
						<stop  offset="0.4801" style="stop-color:#49BDDD"/>
						<stop  offset="0.6715" style="stop-color:#45D5DF"/>
						<stop  offset="0.8493" style="stop-color:#43E3E0"/>
						<stop  offset="1" style="stop-color:#42E8E0"/>
					</linearGradient>
					<path class="st28" d="M598.7,289.1c-6.5-3.8-14.5-3.8-21,0l-125.4,72.2c-2,1.1-2,4,0,5.1l126.4,73c5.7,3.3,12.8,3.3,18.6,0
						l126.6-72.9c2-1.1,2-4,0-5.1L598.7,289.1z"/>
				</g>
				<g class="st16">
					<linearGradient id="SVGID_13_" gradientUnits="userSpaceOnUse" x1="450.8412" y1="342.9151" x2="725.3499" y2="342.9151">
						<stop  offset="0" style="stop-color:#5761D7"/>
						<stop  offset="7.257640e-02" style="stop-color:#5472D8"/>
						<stop  offset="0.2791" style="stop-color:#4E9CDB"/>
						<stop  offset="0.4801" style="stop-color:#49BDDD"/>
						<stop  offset="0.6715" style="stop-color:#45D5DF"/>
						<stop  offset="0.8493" style="stop-color:#43E3E0"/>
						<stop  offset="1" style="stop-color:#42E8E0"/>
					</linearGradient>
					<path class="st29" d="M598.7,267.9c-6.5-3.8-14.5-3.8-21,0l-125.4,72.2c-2,1.1-2,4,0,5.1l126.4,73c5.7,3.3,12.8,3.3,18.6,0
						l126.6-72.9c2-1.1,2-4,0-5.1L598.7,267.9z"/>
				</g>
				<g class="st16">
					<linearGradient id="SVGID_14_" gradientUnits="userSpaceOnUse" x1="450.8412" y1="321.7981" x2="725.3499" y2="321.7981">
						<stop  offset="0" style="stop-color:#5761D7"/>
						<stop  offset="7.257640e-02" style="stop-color:#5472D8"/>
						<stop  offset="0.2791" style="stop-color:#4E9CDB"/>
						<stop  offset="0.4801" style="stop-color:#49BDDD"/>
						<stop  offset="0.6715" style="stop-color:#45D5DF"/>
						<stop  offset="0.8493" style="stop-color:#43E3E0"/>
						<stop  offset="1" style="stop-color:#42E8E0"/>
					</linearGradient>
					<path class="st30" d="M598.7,246.8c-6.5-3.8-14.5-3.8-21,0L452.3,319c-2,1.1-2,4,0,5.1l126.4,73c5.7,3.3,12.8,3.3,18.6,0
						l126.6-72.9c2-1.1,2-4,0-5.1L598.7,246.8z"/>
				</g>
				<linearGradient id="SVGID_15_" gradientUnits="userSpaceOnUse" x1="450.841" y1="353.4735" x2="725.3498" y2="353.4735">
					<stop  offset="0" style="stop-color:#5761D7"/>
					<stop  offset="7.257640e-02" style="stop-color:#5472D8"/>
					<stop  offset="0.2791" style="stop-color:#4E9CDB"/>
					<stop  offset="0.4801" style="stop-color:#49BDDD"/>
					<stop  offset="0.6715" style="stop-color:#45D5DF"/>
					<stop  offset="0.8493" style="stop-color:#43E3E0"/>
					<stop  offset="1" style="stop-color:#42E8E0"/>
				</linearGradient>
				<path class="st31" d="M723.9,319.1l-125.2-72.3c-6.5-3.8-14.5-3.8-21,0L452.3,319c-1,0.6-1.5,1.6-1.5,2.6v63.4
					c0,1,0.5,2,1.5,2.6l126.4,73c5.7,3.3,12.8,3.3,18.6,0l126.6-72.9c1-0.6,1.5-1.6,1.5-2.6v-63.4l0,0
					C725.3,320.6,724.9,319.6,723.9,319.1z"/>
				<g class="st16">
					<linearGradient id="SVGID_16_" gradientUnits="userSpaceOnUse" x1="450.8412" y1="321.7981" x2="725.3499" y2="321.7981">
						<stop  offset="0" style="stop-color:#5761D7"/>
						<stop  offset="7.257640e-02" style="stop-color:#5472D8"/>
						<stop  offset="0.2791" style="stop-color:#4E9CDB"/>
						<stop  offset="0.4801" style="stop-color:#49BDDD"/>
						<stop  offset="0.6715" style="stop-color:#45D5DF"/>
						<stop  offset="0.8493" style="stop-color:#43E3E0"/>
						<stop  offset="1" style="stop-color:#42E8E0"/>
					</linearGradient>
					<path class="st32" d="M598.7,246.8c-6.5-3.8-14.5-3.8-21,0L452.3,319c-2,1.1-2,4,0,5.1l126.4,73c5.7,3.3,12.8,3.3,18.6,0
						l126.6-72.9c2-1.1,2-4,0-5.1L598.7,246.8z"/>
				</g>
				<linearGradient id="SVGID_17_" gradientUnits="userSpaceOnUse" x1="450.8428" y1="359.8582" x2="725.3481" y2="359.8582">
					<stop  offset="0" style="stop-color:#5761D7"/>
					<stop  offset="7.257640e-02" style="stop-color:#5472D8"/>
					<stop  offset="0.2791" style="stop-color:#4E9CDB"/>
					<stop  offset="0.4801" style="stop-color:#49BDDD"/>
					<stop  offset="0.6715" style="stop-color:#45D5DF"/>
					<stop  offset="0.8493" style="stop-color:#43E3E0"/>
					<stop  offset="1" style="stop-color:#42E8E0"/>
				</linearGradient>
				<path class="st33" d="M723.9,321.3l-126.6,72.9c-5.7,3.3-12.8,3.3-18.6,0l-126.4-73c-0.5-0.3-0.9-0.7-1.1-1.1
					c-0.8,1.3-0.4,3.2,1.1,4l126.4,73c5.7,3.3,12.8,3.3,18.6,0l126.6-72.9c1.5-0.9,1.9-2.7,1.1-4C724.7,320.6,724.4,321,723.9,321.3
					z"/>
			</g>
		</g>
		<g>
			<g>
				<polygon class="st13" points="465.6,343.6 468.7,345.4 468.7,343.3 465.6,341.5 				"/>
				<polygon class="st13" points="465.6,357.7 468.7,359.5 468.7,347.3 465.6,345.5 				"/>
				<polygon class="st13" points="465.6,364.5 468.7,366.3 468.7,361.4 465.6,359.6 				"/>
				<polygon class="st13" points="465.6,371.5 468.7,373.3 468.7,368.4 465.6,366.6 				"/>
				<polygon class="st13" points="460.9,347.7 464,349.5 464,344.6 460.9,342.8 				"/>
				<polygon class="st13" points="460.9,356.9 464,358.7 464,351.6 460.9,349.8 				"/>
				<polygon class="st13" points="460.9,365.5 464,367.3 464,361.2 460.9,359.4 				"/>
				<polygon class="st13" points="465.6,378.5 468.7,380.3 468.7,375.4 465.6,373.6 				"/>
				<polygon class="st13" points="460.9,340.9 464,342.7 464,340.6 460.9,338.8 				"/>
			</g>
			<polygon class="st13" points="463.3,383.9 468.7,387.1 468.7,385 463.3,381.9 			"/>
		</g>
	</g>
	<ellipse class="st34" cx="588.1" cy="321.8" rx="67.3" ry="38.9"/>
	<g>
		<g>
			<path class="st35" d="M588.4,289.8l0.1,0.6l0.2-0.4c0,0,0.9,3.1,0.1,4.7c-0.8,1.6-2,3.5-3.6,5.7c-1.7,2.2-4.3,6.7-5,7.6
				c-0.7,0.9-4.8,4.3-9.8,4.8c-5.1,0.5-6.4-2.4-6-4c0.4-1.6,3.2-5.7,6.1-9.1c3-3.4,5.3-7.8,5.3-7.8L588.4,289.8z"/>
			<path class="st35" d="M573.2,276c0,0,0.2,3.3-0.2,4.6c-0.3,1.3-7.8,1.8-10.5,2.1c-2.7,0.3-7.3,2.2-8.7,2.9
				c-1.4,0.7-11.1,1.7-12.3-1.8c-1.2-3.6,4.9-6.6,9-7.5c4.1-0.9,10.8-3,10.8-3L573.2,276z"/>
			<path class="st36" d="M599.1,211.4c0,0,0.3,9.1-2.8,21.8c-3,12.6-2.7,21.4-2.7,21.4s3.2,14.3,0.4,24c-2.8,9.7-5.2,12.5-5.2,12.5
				s-5.6,7.4-13,0.8c0,0,4.1-13.4,4.6-24c0,0-3.6-7.8-4.9-14.8c0,0-1.1,11.1-1.7,15.6c0,0,0.6,6.6-1.1,9.3
				c-1.8,2.7-9.7,3.4-12.2-1.2c-2.5-4.6,2.1-2.4,0.7-23.6c0,0-7.3-9.1-8.3-25.8c-1.1-16.7-0.9-23.3,0-26.6c0.9-3.3,17.1-15,17.1-15
				l9.1,11.6L599.1,211.4z"/>
			<g>
				<linearGradient id="SVGID_18_" gradientUnits="userSpaceOnUse" x1="563.2604" y1="266.2781" x2="575.1444" y2="266.2781">
					<stop  offset="0" style="stop-color:#5761D7"/>
					<stop  offset="7.257640e-02" style="stop-color:#5472D8"/>
					<stop  offset="0.2791" style="stop-color:#4E9CDB"/>
					<stop  offset="0.4801" style="stop-color:#49BDDD"/>
					<stop  offset="0.6715" style="stop-color:#45D5DF"/>
					<stop  offset="0.8493" style="stop-color:#43E3E0"/>
					<stop  offset="1" style="stop-color:#42E8E0"/>
				</linearGradient>
				<path class="st37" d="M575.1,257.2c-0.4-1.5-0.8-3.1-1.1-4.7c0,0-1.1,11.1-1.7,15.6c0,0,0.6,6.6-1.1,9.3c-1.1,1.7-4.8,2.6-8,1.8
					c3.4,1.6,8.2,0.7,9.5-1.3c1.8-2.7,1.1-9.3,1.1-9.3C574.2,265.9,574.8,260.8,575.1,257.2z"/>
				<linearGradient id="SVGID_19_" gradientUnits="userSpaceOnUse" x1="569.3077" y1="240.1625" x2="599.0654" y2="240.1625">
					<stop  offset="0" style="stop-color:#5761D7"/>
					<stop  offset="7.257640e-02" style="stop-color:#5472D8"/>
					<stop  offset="0.2791" style="stop-color:#4E9CDB"/>
					<stop  offset="0.4801" style="stop-color:#49BDDD"/>
					<stop  offset="0.6715" style="stop-color:#45D5DF"/>
					<stop  offset="0.8493" style="stop-color:#43E3E0"/>
					<stop  offset="1" style="stop-color:#42E8E0"/>
				</linearGradient>
				<path class="st38" d="M599.1,211.4l-19.9-14.1l-9.1-11.6c0,0-0.3,0.2-0.7,0.5l8.3,10.6l19.9,14.1c0,0,0.3,9.1-2.8,21.8
					c-3,12.6-2.7,21.4-2.7,21.4s3.2,14.3,0.4,24c-2.8,9.7-5.2,12.5-5.2,12.5s-3.4,4.5-8.5,3.3c5.8,2.7,10-2.8,10-2.8
					s2.4-2.7,5.2-12.5c2.8-9.7-0.4-24-0.4-24s-0.4-8.8,2.7-21.4C599.3,220.6,599.1,211.4,599.1,211.4z"/>
			</g>
			<path class="st35" d="M563.1,230.1c-2.6-3.2-4.1-13-4.1-13s4.1,8.3,7,10.7c2.9,2.4,5.5,7.3,6,10.4c0.5,3.2,3.5,14.9,3.5,14.9
				s-1.1,11.1-1.7,15.6c0,0,0.6,6.6-1.1,9.3c-0.4,0.5-1,1-1.7,1.3c0-0.1,0.4-14.7,0-20.9C570.6,252.2,565.7,233.3,563.1,230.1z"/>
			<path class="st39" d="M623.3,144c0,0,7,13.6,7.7,14.7c0.7,1.1,13.7,17.7,15,27.3c0,0,1,3.7-3.5,7c-4.5,3.3-27.1,17.7-28.5,17.9
				c-1.4,0.2-9.6-3.8-10-12.8c0,0,17.7-8.3,21.6-12.4c0,0-6.9-11.6-10.3-15c-0.8-0.9-1.3-2.4-1.6-4.3c-1.1-7.6,1.9-15.3,7.6-20.5
				L623.3,144z"/>
			<path class="st36" d="M571.3,112.2c0,0-10.8,4-14.5,2.6c-3.7-1.4-12.7-2.5-18.9-6c-6.2-3.5-33.3-10.5-37.3-10.7
				c0,0-0.1,0.2,0.6,0.4c0.7,0.3,3.5,0.5,4.2,3.7c0.8,3.2-0.9,6.9-1.4,7.2c-0.5,0.3-0.7-0.9-3.3-2.1c-2.6-1.2-4.2-1.1-4.2-1.1
				l-1,1.2l-0.6,0.9c0,0,1.3,3.8,4.7,4.1c3.5,0.3,25.8,9.6,27.2,10c1.4,0.4,20.1,8.5,23.6,9.7c3.5,1.3,6.2,2.9,6.2,2.9
				s10.9-7.3,11.3-7.3C568.3,127.8,571.3,112.2,571.3,112.2z"/>
			<path class="st40" d="M473.8,93.5c0.5,0.1,6.1,2,6.1,2s-2.2,1.2-2.5,2.2c-0.2,1,0.5,6.7,0.7,7.1c0.2,0.4,1.4,1.1,1.7,1.3
				c0.4,0.2,1.2,2.2,2,1.9c0.8-0.2,1.1-1.3,1.1-1.3s0.6-0.3,0.8-0.4c0.2-0.1,4.2,0.2,5.6,1.1c1.3,0.9,4.4,1.3,5.6,0.9
				c1.2-0.4,3.1-1.3,3.5-1.5c0,0,1.4,0.2,2.2,0.6c0.8,0.4,3.2,2.1,3.6,2.2c0.4,0.1,5.4-9.7-3.6-11.6c0,0-3.7-0.3-5.3-1.1
				c-1.6-0.8-6.2-4.3-7.8-4.3c-1.7-0.1-3.4,0.5-3.4,0.5s-10.2-2.9-11-2C472.1,92,473.4,93.4,473.8,93.5z M481.2,100.3
				c1.2,0,2-1.2,2-1.2c0.8,0.5,1.6-0.1,1.6-0.1c0,0.2,1.4,0.4,1.4,0.4s0.6,0.5,1.4,1.1c0.8,0.6-0.3,2.3-0.3,2.3
				c-0.8,0.1-1.7-0.3-2.4-0.7c-0.7-0.4-1.4-0.3-1.9-0.5C482.5,101.4,481.2,100.3,481.2,100.3z"/>
			<path class="st35" d="M552.9,200.7c0.9-3.3,17.1-15,17.1-15l4.5,5.8l3.9,15.1l20.6,6.4v0c0,0-1.1,10.3-17.9,9.1
				c-16.8-1.2-18.8-14.2-18.8-14.2s-1.9,4.3-10.1,5.4C552,206.4,552.3,202.8,552.9,200.7z"/>
			<path class="st41" d="M602.9,120.6l2.8,7.3c0,0,13.7,11.8,17.6,16.1c0,0-6.8,13-8,26.6c0,0-6.3,5.1-8.1,7.4
				c-1.9,2.3-6.7,13.2-8.2,16.8s2.7,14.3,2.7,14.3s-5.8,10.7-15.2,10.4c-9.4-0.4-15.7-6.1-16.9-16.2c-1.2-10.2-0.8-11.6-0.8-11.6
				s-4.2,12.5-10.6,12.5c-6.4,0-16.5-10.8-16.5-10.8s-6.8-6.2-6.2-9c0.6-2.8,16.1-27.1,16.9-31c0.8-4,4.3-18.3,4.3-18.3l14.6-22.9
				l8.9,0.4L602.9,120.6z"/>
			<g>
				<linearGradient id="SVGID_20_" gradientUnits="userSpaceOnUse" x1="569.4406" y1="210.8533" x2="601.6878" y2="210.8533">
					<stop  offset="0" style="stop-color:#5761D7"/>
					<stop  offset="7.257640e-02" style="stop-color:#5472D8"/>
					<stop  offset="0.2791" style="stop-color:#4E9CDB"/>
					<stop  offset="0.4801" style="stop-color:#49BDDD"/>
					<stop  offset="0.6715" style="stop-color:#45D5DF"/>
					<stop  offset="0.8493" style="stop-color:#43E3E0"/>
					<stop  offset="1" style="stop-color:#42E8E0"/>
				</linearGradient>
				<path class="st42" d="M586.1,217.1c-9-0.3-15.1-5.6-16.7-15c0,0.4,0.1,0.9,0.2,1.3c1.2,10.2,7.6,15.9,16.9,16.2
					c9.4,0.4,15.2-10.4,15.2-10.4s-0.3-0.8-0.7-2C599.6,209.4,594.2,217.4,586.1,217.1z"/>
			</g>
			<path class="st43" d="M602.9,120.6c0,0,0.1,4.3-1.6,8.7c-1.7,4.3-7.3,28.6-20,36.9l-4.9,3.1v-15.5c0,0,0.1-9.5,2.3-15.5
				c2.2-6,2.1-13.4,2.1-13.4s3.6-1,3.6-0.9C584.2,124.1,602.9,120.6,602.9,120.6z"/>
			<path class="st40" d="M587.2,131.9c0,0-2.3,0.9-3.2-0.6c-1-1.5-2-4.4-1.7-5.8c0,0-6,0.3-7.2-2.9c-1.2-3.2,0.1-4,0.3-5
				c0.2-1,0.4-3.6,1.2-5.4l0.1-0.8c0,0-1.2-1.1-0.7-2.2c0.6-1.1,3.8-4.5,4.2-5.1c0.3-0.6-0.1-4.8,1.2-7c1.3-2.1,3.7-5.1,3.7-5.1
				s12.8-10,22.9,0c10.1,10-5.1,28.4-5.1,28.4s-1.2,5.9-4.2,8.3C595.8,131.3,587.2,131.9,587.2,131.9z"/>
			<path class="st44" d="M596.6,107.6c0-0.4,0-0.7,0.2-1.1c0.4-1.1,1-4.1-2.1-6.3c-3.9-2.8-10.7-5.3-10.4-8.1
				c0.2-2.8,10.9-9.7,18.9-6c7.9,3.7,15.3,13.1,10,23.1c-5.4,10-10.2,11.6-10.2,11.6s-1.6-0.3-0.2-2c1.4-1.7,4.1-5.8,1.9-7.1
				c-2.2-1.3-6,1.5-6.5,2.2c-0.2,0.2-0.4,0.6-0.6,0.8c-0.3,0.5-0.9,0.7-1.4,0.4l-0.2-0.1c-0.5-0.2-0.7-0.8-0.5-1.3l0.9-2.6
				c0.1-0.4,0.2-0.8,0.2-1.2L596.6,107.6z"/>
			<path class="st45" d="M587.5,134.7c0,0,2.9,2,4.5,5.9c0,0-3-3.2-4.8-3.8c0,0-3.4,1.6-3.4,2.6c0,1.1-0.3,7.4-1.1,10.7
				c-0.8,3.4-0.7,15.3-0.7,15.3l-2.1,1.4l-1-5.2l0.4-11.1l2-10.1c0,0,0.4-3.8,0.5-4C582,136.2,587.5,134.7,587.5,134.7z"/>
			<path class="st36" d="M587.5,134.7c0,0-3.3-3.5-4.9-3.5c-1.6-0.1-2.5,0.8-2.6,1c0,0.2-1.6,5.6-1.6,5.6s-3.1,9.5-2.8,20.5
				c0.3,11,0.6,10.9,0.6,10.9l4-2.6c0,0-1.1-7.9,1.1-17c2.2-9.1,0.3-10.5,1.3-11.5C583.8,137.3,588,135.8,587.5,134.7z"/>
			<path class="st36" d="M607.2,178.1c-1.9,2.3-6.6,13.2-8.1,16.8c-0.2,0.6-0.4,1.4-0.4,2.2c-0.4,0.2-0.6,0.4-0.6,0.4l-2-2
				c0,0,1.8-6.6,4.8-14.8c2.9-8.2,14.6-10,14.6-10S609,175.8,607.2,178.1z"/>
			<path class="st40" d="M604,198.4c0,0-3.3-4.8-4.4-5.5c0,0,0.2,1.4-1.6,2.2c-1.9,0.8-11.8,4.7-12.1,5.1c-0.3,0.4,0,1,0.7,1.1
				c0,0-2,0.7-2.9,0.7c-0.8,0-2,1.1-1.4,2c0.6,0.9,1,0.8,1,0.8s-0.2,1,0.4,1.2c0.6,0.2,2.1,0.3,2.1,0.3s-0.3,1,0.5,1.4
				c0.8,0.4,4.8,0.8,4.8,0.8s3.1-0.3,4-0.4c0.9,0,5,1,6.7,0.7c1.7-0.2,7.5-2.3,8-2.6C610.4,206,604,198.4,604,198.4z"/>
			<path class="st36" d="M606.4,130.3l-0.4,6.5l-3.5,1.1l2.4,1.9c0,0-9.5,21.7-21.7,28.6c0,0,11.6-4.1,22.6-28.4
				c0,0-1.2-1.4-1.5-1.8l2.5-1.1L606.4,130.3z"/>
			<path class="st36" d="M575.2,129.6c0,0-4.3,22.1-0.6,38.8c0,0-4.4-8-0.4-38.8H575.2z"/>
			<path class="st46" d="M477.7,97.2c0.6-0.9,2.2-1.7,2.2-1.7s4.6,1.9,5.4,2.2C485.3,97.8,480.6,97.3,477.7,97.2z"/>
			<path class="st46" d="M504.2,109.7c-0.2-0.1-0.9-0.5-1.7-1v0c3.1-4.1-0.3-10.1-0.3-10.1C508.9,101.2,504.5,109.8,504.2,109.7z"/>
			<path class="st46" d="M609.8,206.4c-0.4,0.3-3.7,1.4-6.1,2.1c0,0-1.5-6-1.2-8c0.3-2,1.2-2.5,1.2-2.5c0.1,0.2,0.2,0.3,0.2,0.3
				S610.4,206,609.8,206.4z"/>
			<path class="st39" d="M604,198.1c0,0-1,3.5,1.3,6.1c2.3,2.7,2.6,3,2.6,3h2.7c0,0,1.4-4.2,1.2-4.3
				C611.6,202.8,604,198.1,604,198.1z"/>
			<path class="st36" d="M579,136.1L579,136.1c0,0-2.6,15.2-2,20.8c0.6,5.6,0.4,11.6,0.4,11.6l-0.8,0.7l-0.2,0.2
				c0,0-0.3,0.1-0.6-10.9c-0.3-11,2.8-20.5,2.8-20.5S578.7,137,579,136.1z"/>
			<g>
				<path class="st35" d="M578.1,293.6c-0.7-0.4-1.5-1-2.3-1.7c0,0,4.1-13.4,4.6-24c0,0-3.6-7.8-4.9-14.8c0.3,1.4,4.6,8.9,6.5,16.6
					C584,277.3,578.1,293.6,578.1,293.6z"/>
			</g>
			<g>
				<path class="st46" d="M597,118.2C597,118.2,597,118.1,597,118.2C597,118.1,597,118.2,597,118.2z"/>
				<path class="st46" d="M597,118.2c-0.1,0.4-1.2,5.8-3.4,8.3c-2.3,2.6-4,5.2-4,5.2c-1.4,0.2-2.4,0.3-2.4,0.3s-2.3,0.9-3.2-0.6
					c-1-1.5-2-4.4-1.7-5.8c0,0,8.1-0.8,11.2-3C596.4,120.6,596.9,118.5,597,118.2z"/>
			</g>
			<path class="st47" d="M599.9,192.9c0,0-0.4,0.9-0.5,1c-0.1,0.1-0.2-0.7-0.2-0.7s0.4-0.8,0.4-0.8
				C599.6,192.5,599.9,192.9,599.9,192.9z"/>
			<path class="st36" d="M576.3,169.3c0,0-5.7,18.1-7.6,22.5l0.1,4.4C568.9,196.1,576.1,173.6,576.3,169.3z"/>
			<path class="st36" d="M570.8,175.7c-0.3,1.1,0.2,2.2,1.2,2.5c1,0.3,2-0.3,2.4-1.4c0.3-1.1-0.2-2.2-1.2-2.5
				C572.2,174.1,571.1,174.7,570.8,175.7z"/>
			<path class="st36" d="M568,183.5c-0.3,1.1,0.2,2.2,1.2,2.5c1,0.3,2-0.3,2.4-1.4c0.3-1.1-0.2-2.2-1.2-2.5
				C569.3,181.9,568.3,182.5,568,183.5z"/>
		</g>
		<path class="st48" d="M596.4,110.9c0.1-0.4,0.2-0.8,0.2-1.2l0-2.2c0-0.4,0-0.7,0.2-1.1c0.1-0.3,0.2-0.8,0.3-1.3
			c0,0,8.8,6.4,14.4,6.7c-4.7,7.5-8.6,8.8-8.6,8.8s-1.6-0.3-0.2-2c1.4-1.7,4.1-5.8,1.9-7.1c-2.2-1.3-6,1.5-6.5,2.2
			c-0.2,0.2-0.4,0.6-0.6,0.8c-0.3,0.5-0.9,0.7-1.4,0.4l-0.2-0.1c-0.5-0.2-0.7-0.8-0.5-1.3L596.4,110.9z"/>
	</g>
	<g>
		<g>
			<path class="st35" d="M613.1,347.6c0,0-4,1-7.8,1.1c-3.9,0.2-14.3,2.3-14.1,6.2c0.3,3.9,5.7,9.6,12.6,10.4
				c6.9,0.8,15.7-1.1,20.2-1c4.5,0.1,7.6-4.5,5.8-8.8C628,351.1,613.1,347.6,613.1,347.6z"/>
			<path class="st35" d="M636.3,337c0,0,1.5,2.4,0.8,3.8c-0.7,1.5-2.6,5.1-8.9,1.6c-6.2-3.5-18.3-8.5-18.3-8.5s-6.9-3.7-6.5-8
				c0.4-4.3,6.7-3.7,6.7-3.7L636.3,337z"/>
			<path class="st36" d="M595.5,275.5c0,0,2.7,28.2,8.3,38.9c5.8,10.9,7.3,30.7,8.5,34.5c1.2,3.8,4.9,9.3,10.8,10.5
				c5.9,1.2,6.8-2.8,6.6-5.2c-0.3-2.4-1.9-6.3-1.9-8.9c0-2.6,0.6-3.8,0.7-5c0,0,6.7,2,7.8-3.2c0,0-0.5-1.5-0.6-2.3
				c-0.1-0.8,0.6-19.6,0.7-21.9c0.2-2.3-1.1-14.6-2.9-20.7c-1.9-6-1.2-18.8-1.2-18.8l-19.2-2.7L595.5,275.5z"/>
			
				<linearGradient id="SVGID_21_" gradientUnits="userSpaceOnUse" x1="612.0482" y1="363.8369" x2="631.6007" y2="363.8369" gradientTransform="matrix(0.9962 -8.730000e-02 8.730000e-02 0.9962 -24.1926 8.2256)">
				<stop  offset="0" style="stop-color:#5761D7"/>
				<stop  offset="7.257640e-02" style="stop-color:#5472D8"/>
				<stop  offset="0.2791" style="stop-color:#4E9CDB"/>
				<stop  offset="0.4801" style="stop-color:#49BDDD"/>
				<stop  offset="0.6715" style="stop-color:#45D5DF"/>
				<stop  offset="0.8493" style="stop-color:#43E3E0"/>
				<stop  offset="1" style="stop-color:#42E8E0"/>
			</linearGradient>
			<path class="st49" d="M633.4,292.1c-1.9-6-1.2-18.8-1.2-18.8l-1.7-0.2c-0.1,1.8-0.5,13,1.2,18.6c1.9,6.1,3.1,18.4,2.9,20.7
				c-0.2,2.3-0.9,21.1-0.8,21.9c0.1,0.8,0.6,2.3,0.6,2.3c-1,5.2-7.8,3.2-7.8,3.2c-0.1,1.2-0.7,2.4-0.7,5c0,2.6,1.6,6.5,1.9,8.9
				c0.3,2.4-0.7,6.4-6.6,5.2c-0.2,0-0.3-0.1-0.5-0.2c0.7,0.3,1.5,0.6,2.3,0.7c5.9,1.2,6.8-2.8,6.6-5.2c-0.3-2.4-1.9-6.3-1.9-8.9
				c0-2.6,0.6-4,0.7-5.2c0,0,6.7,2.2,7.8-3c0,0-0.5-1.5-0.6-2.3c-0.1-0.8,0.6-19.6,0.7-21.9C636.5,310.5,635.3,298.2,633.4,292.1z"
				/>
			<path class="st35" d="M626.5,275.3c0,0-0.1,4.4-1.9,8.1c0,0,0,15-1.5,22.6c0,0,2.5,15.2,4,20c1.6,4.8,1.4,14.3,1.4,14.3
				s0.8,0.3,1.9,0.3c1.1,0,1.2-18.6-0.5-21.9c-1.7-3.3-3-17.8-2.3-22.3c0.6-4.4,0.4-17,1.2-19.2c0.8-2.2-1-3.4-1-3.4L626.5,275.3z"
				/>
			<path class="st35" d="M610.4,173.6c0,0-5.6,4-5.3,11l4.1-0.9C609.2,183.7,608,176,610.4,173.6z"/>
			<path class="st35" d="M612.5,281.5c12.7,0.4,19.6-5.2,19.6-5.2c0-1.8,0.1-2.9,0.1-2.9l-19.2-2.7l-17.5,4.9c0,0,0.5,5.6,1.6,12.7
				c3.1,0.3,6.2-7.3,6.2-7.3l8.7,0.6C612,281.4,599.8,281.1,612.5,281.5z"/>
			<path class="st41" d="M598,275.9c0,0,27.6,11.3,41-10.1c0.4-0.6,0.6-1.4,0.5-2.1l-0.2-5c0-0.6,0.1-1.3,0.3-1.8l0,0
				c0.4-1.3,0.5-2.6,0.3-4c-1-5.6-3.8-20.7-4.5-24.9c-0.8-5.1,1.9-25.6,6.5-34.5c4.5-8.8-7.1-28.5-7.1-28.5s-2.8-4.6-8.4-3
				c0,0,5.3,3.7,2.4,7.6c-2.9,4-11.7,7.1-11.7,7.1s-16.1,8.4-21.7,18.6c0,0-1.9,5.3-2.1,12c-0.2,6.8,0.6,23.1,0.3,25.3
				c-0.3,2.3-1.1,17.8-1.1,18.5C592.7,251.8,598,275.9,598,275.9z"/>
			<g>
				
					<linearGradient id="SVGID_22_" gradientUnits="userSpaceOnUse" x1="634.6449" y1="211.3726" x2="637.3969" y2="211.3726" gradientTransform="matrix(0.9962 -8.730000e-02 8.730000e-02 0.9962 -24.1926 8.2256)">
					<stop  offset="0" style="stop-color:#5761D7"/>
					<stop  offset="7.257640e-02" style="stop-color:#5472D8"/>
					<stop  offset="0.2791" style="stop-color:#4E9CDB"/>
					<stop  offset="0.4801" style="stop-color:#49BDDD"/>
					<stop  offset="0.6715" style="stop-color:#45D5DF"/>
					<stop  offset="0.8493" style="stop-color:#43E3E0"/>
					<stop  offset="1" style="stop-color:#42E8E0"/>
				</linearGradient>
				<path class="st50" d="M629,164.8c0.4-1.1,0.3-2.2-0.1-3.1c-0.8,0-1.6,0-2.5,0.3C626.4,161.9,628,163.1,629,164.8z"/>
				<path class="st36" d="M606.3,278.2c0,0,16.3-43.9,15.5-59.9c-0.8-15.5-23.7,31.5-23.7,31.5l-0.1,26.1
					C598,275.9,603.2,277.8,606.3,278.2z"/>
				
					<linearGradient id="SVGID_23_" gradientUnits="userSpaceOnUse" x1="593.2393" y1="309.3885" x2="640.1847" y2="309.3885" gradientTransform="matrix(0.9962 -8.730000e-02 8.730000e-02 0.9962 -24.1926 8.2256)">
					<stop  offset="0" style="stop-color:#5761D7"/>
					<stop  offset="7.257640e-02" style="stop-color:#5472D8"/>
					<stop  offset="0.2791" style="stop-color:#4E9CDB"/>
					<stop  offset="0.4801" style="stop-color:#49BDDD"/>
					<stop  offset="0.6715" style="stop-color:#45D5DF"/>
					<stop  offset="0.8493" style="stop-color:#43E3E0"/>
					<stop  offset="1" style="stop-color:#42E8E0"/>
				</linearGradient>
				<path class="st51" d="M639.1,252.5c-0.2,0.6-0.3,1.2-0.3,1.8l0.2,5c0,0.7-0.2,1.5-0.5,2.1c-13.3,21.2-40.8,10-40.8,10
					s-3.8-17.3-5-22.9c-0.1,1.4-0.1,2.3-0.1,2.5c0.1,0.7,5.4,24.8,5.4,24.8s27.6,11.3,41-10.1c0.4-0.6,0.6-1.4,0.5-2.1l-0.2-5
					c0-0.6,0.1-1.3,0.3-1.8c0.4-1.3,0.5-2.6,0.3-4c-0.1-0.6-0.2-1.3-0.4-2.1C639.4,251.4,639.3,252,639.1,252.5z"/>
				
					<linearGradient id="SVGID_24_" gradientUnits="userSpaceOnUse" x1="637.7615" y1="253.7673" x2="648.8618" y2="253.7673" gradientTransform="matrix(0.9962 -8.730000e-02 8.730000e-02 0.9962 -24.1926 8.2256)">
					<stop  offset="0" style="stop-color:#5761D7"/>
					<stop  offset="7.257640e-02" style="stop-color:#5472D8"/>
					<stop  offset="0.2791" style="stop-color:#4E9CDB"/>
					<stop  offset="0.4801" style="stop-color:#49BDDD"/>
					<stop  offset="0.6715" style="stop-color:#45D5DF"/>
					<stop  offset="0.8493" style="stop-color:#43E3E0"/>
					<stop  offset="1" style="stop-color:#42E8E0"/>
				</linearGradient>
				<path class="st52" d="M641.4,189.5c-4.6,8.8-7.3,29.2-6.5,34.3c0.1,0.5,0.2,1.1,0.3,1.8c0-7.4,2.6-24.3,6.6-32.2
					c1.3-2.5,1.2-5.8,0.6-9.3C642.5,186.1,642.2,188,641.4,189.5z"/>
			</g>
			<path class="st39" d="M597.6,226.3c0.6-3.6,0.9-7.2,1-10.8c0.1-6.2,1.8-16.6,13.1-14.8c16,2.5,9.1,24.9,7.4,28.8
				c-1.8,3.9-8.8,21.7-9.1,22.7c-0.3,0.9-11.4,23.1-15.3,28.4c-0.4,0.5-1,0.6-1.4,0.2c-1.6-1.4-5.2-4.6-5.7-6.7
				c-0.6-2.6,1.7-12.2,1.7-12.2s6.2-23.9,6.7-25C596.3,236,596.6,232.1,597.6,226.3z"/>
			<path class="st40" d="M610.6,174.1c0,0-1.3-2.9-4.2-3.2c-2.9-0.3-4.6-1.1-4.9-2.2c-0.3-1.1-0.3-2.4-1-4c-0.7-1.6-1.3-5.6-1.3-5.7
				c0-0.1-2.2-0.8-2.3-1.7c-0.1-1,1-4.5,0.9-4.7c-0.1-0.3-1.3-2.4-1.2-4.1c0.2-1.7,0.4-4.1,1.3-6.1c0.9-2,7.1-14.4,23.3-8
				c16.3,6.5,3.9,20.2,5.5,29.1c0,0,1.5,1.9-1.2,5.1C622.8,171.6,615.1,172.3,610.6,174.1z"/>
			<path class="st46" d="M625.5,168.4c2.7-3.2,1.2-5.1,1.2-5.1c-0.2-1.2-0.2-2.6,0-4l-6.4,1.2c0,0-9.4-8.4-8.8-3.9
				c0.7,4.5-1.6,5.3-1.6,5.3l1.9,2.5c0.5,0.6,0.2,1.4-0.2,2.1c-2.7,4.6-9.2,3.2-9.3,3.2c0.8,0.5,2.2,0.9,4,1.1
				c2.9,0.3,4.2,3.2,4.2,3.2C615.1,172.3,622.8,171.6,625.5,168.4z"/>
			<g>
				<path class="st44" d="M597.2,137.7c0,0-1.1,3.3,0.7,4.7c1.8,1.4,3.5,2.7,3.5,2.7l0,4.2c0,0.6,0.2,1.2,0.5,1.7l2.3,3.6
					c0.4,0.7,0.7,1.5,0.7,2.3l0,1.7c0,0.5,0.4,0.9,0.9,1l0.6,0.1c0.5,0.1,1-0.3,1.1-0.9l0.3-2.4c0,0,1.2-1.9,3.9,0.4l2.4,1
					c0.7,0.3,1.2,0.8,1.4,1.5c0.7,1.8,2.1,5.5,3.2,6.1c1.4,0.8,7-2.1,7.8-3.4c0.7-1.3,2.6-9.8,3.8-13.9c1.2-4,0.5-14-11.6-16.6
					C606.6,129,598.9,134,597.2,137.7z"/>
				<path class="st48" d="M626.4,161.9c0.7-1.3,2.6-9.8,3.8-13.9c0,0-4.7,3.1-10.7,4c-6.1,0.9-18-5.9-18-5.9l0,3.1
					c0,0.6,0.2,1.2,0.5,1.7l2.3,3.6c0.4,0.7,0.7,1.5,0.7,2.3l0,1.7c0,0.5,0.4,0.9,0.9,1l0.6,0.1c0.5,0.1,1-0.3,1.1-0.9l0.3-2.4
					c0,0,1.2-1.9,3.9,0.4l3.4,1.4c0,0,2.1,6.3,3.5,7.1C620,166.1,625.6,163.2,626.4,161.9z"/>
			</g>
			<path class="st43" d="M626.6,162.3c0,0,4.7,2.9,2.3,7c-2.3,4.1-19.3,11.4-20.2,12.5c0,0-0.7-6.1,1.6-8.2c0,0,13-2.5,15-5.8
				C627.4,164.5,626.6,162.3,626.6,162.3z"/>
			<path class="st45" d="M626.6,162.3c0,0,0.8,2.1-1.2,5.4c-1.5,2.5-9.3,4.6-13,5.4l0,0c0,0,1.4,0.8,3.7,4.7
				c5.2-2.7,11.6-6.2,12.9-8.6C631.3,165.2,626.6,162.3,626.6,162.3z"/>
			<path class="st36" d="M629.8,175.4c0,0-7.6,4.3-11.2,6.3c-3.7,2-7.7,4.6-7.7,4.6l-1.4-1.4l-1.7,3.7c0,0-5.8,3.5-8.5,6.4
				c-2.7,2.9-4.8,6.7-5.1,7.6c0,0,7.2-9.5,13-12.3l1.5-0.8l0.9-3l1.4,1.5C610.9,188,627.5,178,629.8,175.4z"/>
		</g>
		<g>
			
				<linearGradient id="SVGID_25_" gradientUnits="userSpaceOnUse" x1="568.439" y1="353.2852" x2="606.4182" y2="353.2852" gradientTransform="matrix(0.9962 -8.730000e-02 8.730000e-02 0.9962 -24.1926 8.2256)">
				<stop  offset="0" style="stop-color:#5761D7"/>
				<stop  offset="7.257640e-02" style="stop-color:#5472D8"/>
				<stop  offset="0.2791" style="stop-color:#4E9CDB"/>
				<stop  offset="0.4801" style="stop-color:#49BDDD"/>
				<stop  offset="0.6715" style="stop-color:#45D5DF"/>
				<stop  offset="0.8493" style="stop-color:#43E3E0"/>
				<stop  offset="1" style="stop-color:#42E8E0"/>
			</linearGradient>
			<path class="st53" d="M610.3,303.7L610.3,303.7L610.3,303.7c-0.2-0.7-0.6-1.3-1-1.6L578.2,276c-0.8-0.7-1.6-0.2-1.8,1.2
				l-3.6,30.4c-0.2,1.4,0.4,3.1,1.2,3.9l26.1,22.6l-0.9,8.8l7.8-3.6l0,0c0.4-0.2,0.6-0.7,0.7-1.5l2.9-31.8
				C610.6,305.2,610.5,304.4,610.3,303.7z"/>
			<path class="st41" d="M569.7,278.9l7.4-3.2l0.2-0.1c0.3-0.1,0.6,0,0.9,0.3l31.1,26.1c0.4,0.4,0.8,0.9,1,1.6l-1.1,0.5l0,0
				l-6.3,3.1L575.6,284l0,0L569.7,278.9z"/>
			<path class="st36" d="M566.3,314.8l31.8,27.7c0.9,0.8,1.7,0.2,1.8-1.3l3.1-31.9c0.1-1.4-0.4-3.1-1.3-3.8l-31-26.2
				c-0.8-0.7-1.6-0.2-1.8,1.2l-3.8,30.5C564.9,312.3,565.5,314,566.3,314.8z"/>
			<path class="st35" d="M603.9,339.3l3-31.8c0.1-1.4-0.5-3.1-1.3-3.8l-31.1-26.2c-0.3-0.2-0.5-0.3-0.7-0.3c0.3-0.1,0.6-0.1,1,0.2
				l31.1,26.2c0.9,0.7,1.4,2.4,1.3,3.8l-3,31.8c-0.1,1-0.5,1.6-1,1.7C603.6,340.7,603.8,340.2,603.9,339.3z"/>
			<g>
				<g>
					<path class="st35" d="M592.5,292.4l1.6-0.8c0.4-0.2,0.7-0.2,1-0.2l0.1,0c0.2,0,0.2,0.2,0.2,0.5l0,0.3l-4.6,2.3l0-0.3
						c0-0.2,0.2-0.5,0.3-0.7l0.2-0.2C591.8,292.9,592.2,292.6,592.5,292.4z"/>
					<polygon class="st35" points="593.1,296.4 590.9,294.5 595.4,291.6 597.6,293.4 					"/>
					
						<linearGradient id="SVGID_26_" gradientUnits="userSpaceOnUse" x1="589.7679" y1="339.5521" x2="594.6016" y2="339.5521" gradientTransform="matrix(0.9962 -8.730000e-02 8.730000e-02 0.9962 -24.1926 8.2256)">
						<stop  offset="0" style="stop-color:#5761D7"/>
						<stop  offset="7.257640e-02" style="stop-color:#5472D8"/>
						<stop  offset="0.2791" style="stop-color:#4E9CDB"/>
						<stop  offset="0.4801" style="stop-color:#49BDDD"/>
						<stop  offset="0.6715" style="stop-color:#45D5DF"/>
						<stop  offset="0.8493" style="stop-color:#43E3E0"/>
						<stop  offset="1" style="stop-color:#42E8E0"/>
					</linearGradient>
					<path class="st54" d="M594.7,294.3l1.6-0.8c0.4-0.2,0.7-0.2,1-0.2l0.1,0c0.2,0,0.2,0.2,0.2,0.5l0,0.3l-4.6,2.3l0-0.3
						c0-0.2,0.2-0.5,0.3-0.7l0.2-0.2C594,294.8,594.3,294.5,594.7,294.3z"/>
					<polygon class="st55" points="595.7,295.1 595.8,293.7 595.7,293.8 595.6,295.1 					"/>
					<polygon class="st55" points="595.8,293.7 593.6,291.9 593.5,292 595.7,293.8 					"/>
				</g>
				<g>
					<path class="st35" d="M582.6,284.1l1.6-0.8c0.4-0.2,0.7-0.2,1-0.2l0.1,0c0.2,0,0.2,0.2,0.2,0.5l0,0.3l-4.6,2.3l0-0.3
						c0-0.2,0.2-0.5,0.4-0.7l0.2-0.2C581.9,284.6,582.3,284.3,582.6,284.1z"/>
					<polygon class="st35" points="583.2,288 581,286.2 585.6,283.3 587.7,285.1 					"/>
					
						<linearGradient id="SVGID_27_" gradientUnits="userSpaceOnUse" x1="580.6249" y1="330.3828" x2="585.4473" y2="330.3828" gradientTransform="matrix(0.9962 -8.730000e-02 8.730000e-02 0.9962 -24.1926 8.2256)">
						<stop  offset="0" style="stop-color:#5761D7"/>
						<stop  offset="7.257640e-02" style="stop-color:#5472D8"/>
						<stop  offset="0.2791" style="stop-color:#4E9CDB"/>
						<stop  offset="0.4801" style="stop-color:#49BDDD"/>
						<stop  offset="0.6715" style="stop-color:#45D5DF"/>
						<stop  offset="0.8493" style="stop-color:#43E3E0"/>
						<stop  offset="1" style="stop-color:#42E8E0"/>
					</linearGradient>
					<path class="st56" d="M584.8,286l1.6-0.8c0.4-0.2,0.7-0.2,1-0.2l0.1,0c0.2,0,0.2,0.2,0.2,0.5l0,0.3l-4.6,2.3l0-0.3
						c0-0.2,0.2-0.5,0.4-0.7l0.2-0.2C584.1,286.4,584.4,286.1,584.8,286z"/>
					<polygon class="st55" points="585.8,286.7 585.9,285.4 585.8,285.5 585.6,286.8 					"/>
					<polygon class="st55" points="585.9,285.4 583.7,283.6 583.6,283.7 585.8,285.5 					"/>
				</g>
				<g>
					<path class="st41" d="M596.7,287.4l-0.6,5.7l-1.5-1.2l0.6-5.5c0.1-0.8-0.3-1.8-0.9-2.3l-6.3-5.3c-0.6-0.5-1.1-0.2-1.2,0.6
						l-0.6,5.4l-1.5-1.2l0.6-5.6c0.2-1.7,1.4-2.3,2.6-1.3l6.7,5.6C596,283.3,596.9,285.6,596.7,287.4z"/>
					<path class="st41" d="M585.8,278.3l2.6-0.3l7.5,7l0.3,4.3l-0.2,3.6l-1.7,0.8l-0.1-4.5l-0.1-3.1l-1.6-2.2c0,0-2.8-2.3-2.9-2.3
						C589.8,281.6,585.8,278.3,585.8,278.3z"/>
					<polygon class="st41" points="584.5,285.5 586.2,284.7 586.7,280.7 585.1,280.8 584.6,280.9 					"/>
					<path class="st41" d="M584.6,277.1l1.8-0.9c0,0-0.5,1-0.5,1c0,0-0.6,0.2-0.6,0.2C585.3,277.4,584.6,277.1,584.6,277.1z"/>
					<path class="st35" d="M595,288.2l-0.6,5.7l-1.5-1.2l0.6-5.5c0.1-0.8-0.3-1.8-0.9-2.3l-6.3-5.3c-0.6-0.5-1.1-0.2-1.2,0.6
						l-0.6,5.5l-1.5-1.2l0.6-5.6c0.2-1.8,1.4-2.3,2.6-1.3l6.7,5.6C594.3,284.1,595.2,286.4,595,288.2z"/>
				</g>
			</g>
		</g>
		<path class="st40" d="M587.9,273.9c0,0-1.1,5.5-0.8,6.9c0.3,1.4,3,4.1,4.6,4.6c1.6,0.5,0.9-1.4,1.3-2.6c0.4-1.2,0.3-3.8,0.3-3.8
			L587.9,273.9z"/>
		<path class="st46" d="M593.3,279l-5.4-5.1c0,0-0.2,1.1-0.4,2.5c0,0,2,4.1,5.7,5.8C593.4,280.9,593.3,279,593.3,279z"/>
		<path class="st39" d="M587.5,274.3c0,0,1.9,6,6.7,6.5l-1.6-6.5c0,0-4-1.1-4.2-1.2C588.3,273.2,587.5,274.3,587.5,274.3z"/>
		
			<linearGradient id="SVGID_28_" gradientUnits="userSpaceOnUse" x1="589.8713" y1="288.554" x2="625.7968" y2="288.554" gradientTransform="matrix(0.9962 -8.730000e-02 8.730000e-02 0.9962 -24.1926 8.2256)">
			<stop  offset="0" style="stop-color:#5761D7"/>
			<stop  offset="7.257640e-02" style="stop-color:#5472D8"/>
			<stop  offset="0.2791" style="stop-color:#4E9CDB"/>
			<stop  offset="0.4801" style="stop-color:#49BDDD"/>
			<stop  offset="0.6715" style="stop-color:#45D5DF"/>
			<stop  offset="0.8493" style="stop-color:#43E3E0"/>
			<stop  offset="1" style="stop-color:#42E8E0"/>
		</linearGradient>
		<path class="st57" d="M618.7,204.2c4.4,13.5-6.7,34.5-8.3,40.6c-1.6,6.2-18.5,34.8-18.5,34.8c0,0,0,0,0,0
			c-0.1,0.2-0.2,0.3-0.2,0.3c0.4,0.3,0.8,0.6,1.1,0.8c0.4,0.2,0.3,0.2,0.8,0.3l0,0c0.4,0.1,0.7-0.1,1-0.4c3.9-5.3,15-27.4,15.3-28.4
			c0.4-1,7.4-18.7,9.1-22.7C620.5,226.4,625.2,211.3,618.7,204.2z"/>
	</g>
	<g>
		<g>
			<path class="st58" d="M438.4,334.1c-1.2,0-2.3-0.2-3.1-0.7l-70.7-40.8c-0.9-0.5-1.4-1.3-1.4-2.1c0-1,0.7-1.9,1.9-2.6l69.7-40.3
				c2.1-1.2,5.3-1.4,7.1-0.3l70.7,40.8c0.9,0.5,1.4,1.3,1.4,2.1c0,1-0.7,1.9-1.9,2.6l-69.7,40.3
				C441.3,333.8,439.8,334.1,438.4,334.1z M435.8,332.4c1.5,0.9,4.3,0.7,6-0.3l69.7-40.3c0.8-0.5,1.3-1.1,1.3-1.7
				c0-0.6-0.5-1-0.9-1.2l-70.7-40.8c-1.5-0.9-4.3-0.7-6,0.3l-69.7,40.3c-0.8,0.5-1.3,1.1-1.3,1.7c0,0.6,0.5,1,0.9,1.2L435.8,332.4z"
				/>
			<g>
				<g>
					<linearGradient id="SVGID_29_" gradientUnits="userSpaceOnUse" x1="326.2779" y1="286.4982" x2="518.6248" y2="286.4982">
						<stop  offset="0" style="stop-color:#5761D7"/>
						<stop  offset="0.1645" style="stop-color:#5E67DA"/>
						<stop  offset="0.4051" style="stop-color:#727AE2"/>
						<stop  offset="0.6924" style="stop-color:#9297EE"/>
						<stop  offset="1" style="stop-color:#BCBEFF"/>
					</linearGradient>
					<polygon class="st59" points="513.5,260.5 513.5,269.2 438.4,312.5 363.4,269.2 363.4,260.5 					"/>
					<polygon class="st60" points="438.4,303.8 363.4,260.5 438.4,217.2 513.5,260.5 					"/>
					<polygon class="st6" points="438.4,302.8 364.3,260 363.4,260.5 438.4,303.8 513.5,260.5 512.6,260 					"/>
				</g>
				<g>
					<polygon class="st61" points="438.4,293.8 380.7,260.5 438.4,227.2 496.2,260.5 					"/>
					<g>
						<linearGradient id="SVGID_30_" gradientUnits="userSpaceOnUse" x1="380.7125" y1="260.5065" x2="496.1642" y2="260.5065">
							<stop  offset="0" style="stop-color:#42E8E0"/>
							<stop  offset="0.1507" style="stop-color:#43E3E0"/>
							<stop  offset="0.3285" style="stop-color:#45D5DF"/>
							<stop  offset="0.5199" style="stop-color:#49BDDD"/>
							<stop  offset="0.7209" style="stop-color:#4E9CDB"/>
							<stop  offset="0.9274" style="stop-color:#5472D8"/>
							<stop  offset="1" style="stop-color:#5761D7"/>
						</linearGradient>
						<polygon class="st62" points="438.4,293.8 380.7,260.5 438.4,227.2 496.2,260.5 						"/>
						<g>
							<linearGradient id="SVGID_31_" gradientUnits="userSpaceOnUse" x1="438.4374" y1="239.6404" x2="496.1642" y2="239.6404">
								<stop  offset="0" style="stop-color:#42E8E0"/>
								<stop  offset="0.1507" style="stop-color:#43E3E0"/>
								<stop  offset="0.3285" style="stop-color:#45D5DF"/>
								<stop  offset="0.5199" style="stop-color:#49BDDD"/>
								<stop  offset="0.7209" style="stop-color:#4E9CDB"/>
								<stop  offset="0.9274" style="stop-color:#5472D8"/>
								<stop  offset="1" style="stop-color:#5761D7"/>
							</linearGradient>
							<polygon class="st63" points="438.4,218.8 496.2,252.1 496.2,260.5 438.4,227.2 							"/>
							<linearGradient id="SVGID_32_" gradientUnits="userSpaceOnUse" x1="380.7125" y1="239.64" x2="438.4391" y2="239.64">
								<stop  offset="0" style="stop-color:#42E8E0"/>
								<stop  offset="0.1507" style="stop-color:#43E3E0"/>
								<stop  offset="0.3285" style="stop-color:#45D5DF"/>
								<stop  offset="0.5199" style="stop-color:#49BDDD"/>
								<stop  offset="0.7209" style="stop-color:#4E9CDB"/>
								<stop  offset="0.9274" style="stop-color:#5472D8"/>
								<stop  offset="1" style="stop-color:#5761D7"/>
							</linearGradient>
							<polygon class="st64" points="438.4,227.2 380.7,260.5 380.7,252.1 438.4,218.8 							"/>
							<linearGradient id="SVGID_33_" gradientUnits="userSpaceOnUse" x1="380.7125" y1="252.1023" x2="496.1642" y2="252.1023">
								<stop  offset="0" style="stop-color:#42E8E0"/>
								<stop  offset="0.1507" style="stop-color:#43E3E0"/>
								<stop  offset="0.3285" style="stop-color:#45D5DF"/>
								<stop  offset="0.5199" style="stop-color:#49BDDD"/>
								<stop  offset="0.7209" style="stop-color:#4E9CDB"/>
								<stop  offset="0.9274" style="stop-color:#5472D8"/>
								<stop  offset="1" style="stop-color:#5761D7"/>
							</linearGradient>
							<polygon class="st65" points="438.4,285.4 380.7,252.1 438.4,218.8 496.2,252.1 							"/>
							<polygon class="st14" points="438.4,265.4 415.4,252.1 438.4,238.8 461.5,252.1 							"/>
							<polygon class="st14" points="438.4,240 460.4,252.7 461.5,252.1 438.4,238.8 415.4,252.1 416.4,252.7 							"/>
							<linearGradient id="SVGID_34_" gradientUnits="userSpaceOnUse" x1="438.4391" y1="272.9684" x2="496.1642" y2="272.9684">
								<stop  offset="0" style="stop-color:#42E8E0"/>
								<stop  offset="0.1507" style="stop-color:#43E3E0"/>
								<stop  offset="0.3285" style="stop-color:#45D5DF"/>
								<stop  offset="0.5199" style="stop-color:#49BDDD"/>
								<stop  offset="0.7209" style="stop-color:#4E9CDB"/>
								<stop  offset="0.9274" style="stop-color:#5472D8"/>
								<stop  offset="1" style="stop-color:#5761D7"/>
							</linearGradient>
							<polygon class="st66" points="438.4,285.4 438.4,293.8 496.2,260.5 496.2,252.1 							"/>
						</g>
						<linearGradient id="SVGID_35_" gradientUnits="userSpaceOnUse" x1="380.7125" y1="272.968" x2="438.4391" y2="272.968">
							<stop  offset="0" style="stop-color:#42E8E0"/>
							<stop  offset="0.1507" style="stop-color:#43E3E0"/>
							<stop  offset="0.3285" style="stop-color:#45D5DF"/>
							<stop  offset="0.5199" style="stop-color:#49BDDD"/>
							<stop  offset="0.7209" style="stop-color:#4E9CDB"/>
							<stop  offset="0.9274" style="stop-color:#5472D8"/>
							<stop  offset="1" style="stop-color:#5761D7"/>
						</linearGradient>
						<polygon class="st67" points="380.7,252.1 380.7,260.5 438.4,293.8 438.4,285.4 						"/>
					</g>
					<polygon class="st68" points="438.4,284.5 381.5,251.6 380.7,252.1 438.4,285.4 496.2,252.1 495.4,251.6 					"/>
				</g>
			</g>
		</g>
		<g>
			<path class="st58" d="M438.4,531c-1.2,0-2.3-0.2-3.1-0.7l-70.7-40.8c-0.9-0.5-1.4-1.3-1.4-2.1c0-1,0.7-1.9,1.9-2.6l69.7-40.3
				c2.1-1.2,5.3-1.4,7.1-0.3l70.7,40.8c0.9,0.5,1.4,1.3,1.4,2.1c0,1-0.7,1.9-1.9,2.6L442.4,530C441.3,530.7,439.8,531,438.4,531z
				 M435.8,529.3c1.5,0.9,4.3,0.7,6-0.3l69.7-40.3c0.8-0.5,1.3-1.1,1.3-1.7c0-0.6-0.5-1-0.9-1.2l-70.7-40.8c-1.5-0.9-4.3-0.7-6,0.3
				l-69.7,40.3c-0.8,0.5-1.3,1.1-1.3,1.7c0,0.6,0.5,1,0.9,1.2L435.8,529.3z"/>
			<g>
				<g>
					<linearGradient id="SVGID_36_" gradientUnits="userSpaceOnUse" x1="326.2779" y1="483.356" x2="518.6248" y2="483.356">
						<stop  offset="0" style="stop-color:#5761D7"/>
						<stop  offset="0.1645" style="stop-color:#5E67DA"/>
						<stop  offset="0.4051" style="stop-color:#727AE2"/>
						<stop  offset="0.6924" style="stop-color:#9297EE"/>
						<stop  offset="1" style="stop-color:#BCBEFF"/>
					</linearGradient>
					<polygon class="st69" points="513.5,457.4 513.5,466 438.4,509.4 363.4,466 363.4,457.4 					"/>
					<polygon class="st60" points="438.4,500.7 363.4,457.4 438.4,414 513.5,457.4 					"/>
					<polygon class="st6" points="438.4,499.7 364.3,456.8 363.4,457.4 438.4,500.7 513.5,457.4 512.6,456.8 					"/>
				</g>
				<g>
					<polygon class="st61" points="438.4,490.7 380.7,457.4 438.4,424 496.2,457.4 					"/>
					<g>
						<linearGradient id="SVGID_37_" gradientUnits="userSpaceOnUse" x1="380.7125" y1="457.3643" x2="496.1642" y2="457.3643">
							<stop  offset="0" style="stop-color:#42E8E0"/>
							<stop  offset="0.1507" style="stop-color:#43E3E0"/>
							<stop  offset="0.3285" style="stop-color:#45D5DF"/>
							<stop  offset="0.5199" style="stop-color:#49BDDD"/>
							<stop  offset="0.7209" style="stop-color:#4E9CDB"/>
							<stop  offset="0.9274" style="stop-color:#5472D8"/>
							<stop  offset="1" style="stop-color:#5761D7"/>
						</linearGradient>
						<polygon class="st70" points="438.4,490.7 380.7,457.4 438.4,424 496.2,457.4 						"/>
						<g>
							<linearGradient id="SVGID_38_" gradientUnits="userSpaceOnUse" x1="438.4374" y1="436.4982" x2="496.1642" y2="436.4982">
								<stop  offset="0" style="stop-color:#42E8E0"/>
								<stop  offset="0.1507" style="stop-color:#43E3E0"/>
								<stop  offset="0.3285" style="stop-color:#45D5DF"/>
								<stop  offset="0.5199" style="stop-color:#49BDDD"/>
								<stop  offset="0.7209" style="stop-color:#4E9CDB"/>
								<stop  offset="0.9274" style="stop-color:#5472D8"/>
								<stop  offset="1" style="stop-color:#5761D7"/>
							</linearGradient>
							<polygon class="st71" points="438.4,415.6 496.2,449 496.2,457.4 438.4,424 							"/>
							<linearGradient id="SVGID_39_" gradientUnits="userSpaceOnUse" x1="380.7125" y1="436.4978" x2="438.4391" y2="436.4978">
								<stop  offset="0" style="stop-color:#42E8E0"/>
								<stop  offset="0.1507" style="stop-color:#43E3E0"/>
								<stop  offset="0.3285" style="stop-color:#45D5DF"/>
								<stop  offset="0.5199" style="stop-color:#49BDDD"/>
								<stop  offset="0.7209" style="stop-color:#4E9CDB"/>
								<stop  offset="0.9274" style="stop-color:#5472D8"/>
								<stop  offset="1" style="stop-color:#5761D7"/>
							</linearGradient>
							<polygon class="st72" points="438.4,424 380.7,457.4 380.7,449 438.4,415.6 							"/>
							<linearGradient id="SVGID_40_" gradientUnits="userSpaceOnUse" x1="380.7125" y1="448.9601" x2="496.1642" y2="448.9601">
								<stop  offset="0" style="stop-color:#42E8E0"/>
								<stop  offset="0.1507" style="stop-color:#43E3E0"/>
								<stop  offset="0.3285" style="stop-color:#45D5DF"/>
								<stop  offset="0.5199" style="stop-color:#49BDDD"/>
								<stop  offset="0.7209" style="stop-color:#4E9CDB"/>
								<stop  offset="0.9274" style="stop-color:#5472D8"/>
								<stop  offset="1" style="stop-color:#5761D7"/>
							</linearGradient>
							<polygon class="st73" points="438.4,482.3 380.7,449 438.4,415.6 496.2,449 							"/>
							<polygon class="st14" points="438.4,462.3 415.4,449 438.4,435.6 461.5,449 							"/>
							<polygon class="st14" points="438.4,436.9 460.4,449.6 461.5,449 438.4,435.6 415.4,449 416.4,449.6 							"/>
							<linearGradient id="SVGID_41_" gradientUnits="userSpaceOnUse" x1="438.4391" y1="469.8262" x2="496.1642" y2="469.8262">
								<stop  offset="0" style="stop-color:#42E8E0"/>
								<stop  offset="0.1507" style="stop-color:#43E3E0"/>
								<stop  offset="0.3285" style="stop-color:#45D5DF"/>
								<stop  offset="0.5199" style="stop-color:#49BDDD"/>
								<stop  offset="0.7209" style="stop-color:#4E9CDB"/>
								<stop  offset="0.9274" style="stop-color:#5472D8"/>
								<stop  offset="1" style="stop-color:#5761D7"/>
							</linearGradient>
							<polygon class="st74" points="438.4,482.3 438.4,490.7 496.2,457.4 496.2,449 							"/>
						</g>
						<linearGradient id="SVGID_42_" gradientUnits="userSpaceOnUse" x1="380.7125" y1="469.8258" x2="438.4391" y2="469.8258">
							<stop  offset="0" style="stop-color:#42E8E0"/>
							<stop  offset="0.1507" style="stop-color:#43E3E0"/>
							<stop  offset="0.3285" style="stop-color:#45D5DF"/>
							<stop  offset="0.5199" style="stop-color:#49BDDD"/>
							<stop  offset="0.7209" style="stop-color:#4E9CDB"/>
							<stop  offset="0.9274" style="stop-color:#5472D8"/>
							<stop  offset="1" style="stop-color:#5761D7"/>
						</linearGradient>
						<polygon class="st75" points="380.7,449 380.7,457.4 438.4,490.7 438.4,482.3 						"/>
					</g>
					<polygon class="st68" points="438.4,481.4 381.5,448.5 380.7,449 438.4,482.3 496.2,449 495.4,448.5 					"/>
				</g>
			</g>
		</g>
		<g>
			<path class="st58" d="M739.3,334.1c-1.2,0-2.3-0.2-3.1-0.7l-70.7-40.8c-0.9-0.5-1.4-1.3-1.4-2.1c0-1,0.7-1.9,1.9-2.6l69.7-40.3
				c2.1-1.2,5.3-1.4,7.1-0.3l70.7,40.8c0.9,0.5,1.4,1.3,1.4,2.1c0,1-0.7,1.9-1.9,2.6l-69.7,40.3
				C742.1,333.8,740.7,334.1,739.3,334.1z M736.7,332.4c1.5,0.9,4.3,0.7,6-0.3l69.7-40.3c0.8-0.5,1.3-1.1,1.3-1.7
				c0-0.6-0.5-1-0.9-1.2l-70.7-40.8c-1.5-0.9-4.3-0.7-6,0.3l-69.7,40.3c-0.8,0.5-1.3,1.1-1.3,1.7c0,0.6,0.5,1,0.9,1.2L736.7,332.4z"
				/>
			<g>
				<g>
					<linearGradient id="SVGID_43_" gradientUnits="userSpaceOnUse" x1="627.1102" y1="286.4982" x2="819.457" y2="286.4982">
						<stop  offset="0" style="stop-color:#5761D7"/>
						<stop  offset="0.1645" style="stop-color:#5E67DA"/>
						<stop  offset="0.4051" style="stop-color:#727AE2"/>
						<stop  offset="0.6924" style="stop-color:#9297EE"/>
						<stop  offset="1" style="stop-color:#BCBEFF"/>
					</linearGradient>
					<polygon class="st76" points="814.3,260.5 814.3,269.2 739.3,312.5 664.2,269.2 664.2,260.5 					"/>
					<polygon class="st60" points="739.3,303.8 664.2,260.5 739.3,217.2 814.3,260.5 					"/>
					<polygon class="st6" points="739.3,302.8 665.1,260 664.2,260.5 739.3,303.8 814.3,260.5 813.4,260 					"/>
				</g>
				<g>
					<polygon class="st61" points="739.3,293.8 681.5,260.5 739.3,227.2 797,260.5 					"/>
					<g>
						<linearGradient id="SVGID_44_" gradientUnits="userSpaceOnUse" x1="681.5447" y1="260.5065" x2="796.9965" y2="260.5065">
							<stop  offset="0" style="stop-color:#42E8E0"/>
							<stop  offset="0.1507" style="stop-color:#43E3E0"/>
							<stop  offset="0.3285" style="stop-color:#45D5DF"/>
							<stop  offset="0.5199" style="stop-color:#49BDDD"/>
							<stop  offset="0.7209" style="stop-color:#4E9CDB"/>
							<stop  offset="0.9274" style="stop-color:#5472D8"/>
							<stop  offset="1" style="stop-color:#5761D7"/>
						</linearGradient>
						<polygon class="st77" points="739.3,293.8 681.5,260.5 739.3,227.2 797,260.5 						"/>
						<g>
							<linearGradient id="SVGID_45_" gradientUnits="userSpaceOnUse" x1="739.2697" y1="239.6404" x2="796.9965" y2="239.6404">
								<stop  offset="0" style="stop-color:#42E8E0"/>
								<stop  offset="0.1507" style="stop-color:#43E3E0"/>
								<stop  offset="0.3285" style="stop-color:#45D5DF"/>
								<stop  offset="0.5199" style="stop-color:#49BDDD"/>
								<stop  offset="0.7209" style="stop-color:#4E9CDB"/>
								<stop  offset="0.9274" style="stop-color:#5472D8"/>
								<stop  offset="1" style="stop-color:#5761D7"/>
							</linearGradient>
							<polygon class="st78" points="739.3,218.8 797,252.1 797,260.5 739.3,227.2 							"/>
							<linearGradient id="SVGID_46_" gradientUnits="userSpaceOnUse" x1="681.5447" y1="239.64" x2="739.2714" y2="239.64">
								<stop  offset="0" style="stop-color:#42E8E0"/>
								<stop  offset="0.1507" style="stop-color:#43E3E0"/>
								<stop  offset="0.3285" style="stop-color:#45D5DF"/>
								<stop  offset="0.5199" style="stop-color:#49BDDD"/>
								<stop  offset="0.7209" style="stop-color:#4E9CDB"/>
								<stop  offset="0.9274" style="stop-color:#5472D8"/>
								<stop  offset="1" style="stop-color:#5761D7"/>
							</linearGradient>
							<polygon class="st79" points="739.3,227.2 681.5,260.5 681.5,252.1 739.3,218.8 							"/>
							<linearGradient id="SVGID_47_" gradientUnits="userSpaceOnUse" x1="681.5447" y1="252.1023" x2="796.9965" y2="252.1023">
								<stop  offset="0" style="stop-color:#42E8E0"/>
								<stop  offset="0.1507" style="stop-color:#43E3E0"/>
								<stop  offset="0.3285" style="stop-color:#45D5DF"/>
								<stop  offset="0.5199" style="stop-color:#49BDDD"/>
								<stop  offset="0.7209" style="stop-color:#4E9CDB"/>
								<stop  offset="0.9274" style="stop-color:#5472D8"/>
								<stop  offset="1" style="stop-color:#5761D7"/>
							</linearGradient>
							<polygon class="st80" points="739.3,285.4 681.5,252.1 739.3,218.8 797,252.1 							"/>
							<polygon class="st14" points="739.3,265.4 716.2,252.1 739.3,238.8 762.3,252.1 							"/>
							<polygon class="st14" points="739.3,240 761.3,252.7 762.3,252.1 739.3,238.8 716.2,252.1 717.3,252.7 							"/>
							<linearGradient id="SVGID_48_" gradientUnits="userSpaceOnUse" x1="739.2714" y1="272.9684" x2="796.9965" y2="272.9684">
								<stop  offset="0" style="stop-color:#42E8E0"/>
								<stop  offset="0.1507" style="stop-color:#43E3E0"/>
								<stop  offset="0.3285" style="stop-color:#45D5DF"/>
								<stop  offset="0.5199" style="stop-color:#49BDDD"/>
								<stop  offset="0.7209" style="stop-color:#4E9CDB"/>
								<stop  offset="0.9274" style="stop-color:#5472D8"/>
								<stop  offset="1" style="stop-color:#5761D7"/>
							</linearGradient>
							<polygon class="st81" points="739.3,285.4 739.3,293.8 797,260.5 797,252.1 							"/>
						</g>
						<linearGradient id="SVGID_49_" gradientUnits="userSpaceOnUse" x1="681.5447" y1="272.968" x2="739.2714" y2="272.968">
							<stop  offset="0" style="stop-color:#42E8E0"/>
							<stop  offset="0.1507" style="stop-color:#43E3E0"/>
							<stop  offset="0.3285" style="stop-color:#45D5DF"/>
							<stop  offset="0.5199" style="stop-color:#49BDDD"/>
							<stop  offset="0.7209" style="stop-color:#4E9CDB"/>
							<stop  offset="0.9274" style="stop-color:#5472D8"/>
							<stop  offset="1" style="stop-color:#5761D7"/>
						</linearGradient>
						<polygon class="st82" points="681.5,252.1 681.5,260.5 739.3,293.8 739.3,285.4 						"/>
					</g>
					<polygon class="st68" points="739.3,284.5 682.3,251.6 681.5,252.1 739.3,285.4 797,252.1 796.2,251.6 					"/>
				</g>
			</g>
		</g>
		<g>
			<path class="st58" d="M739.3,531c-1.2,0-2.3-0.2-3.1-0.7l-70.7-40.8c-0.9-0.5-1.4-1.3-1.4-2.1c0-1,0.7-1.9,1.9-2.6l69.7-40.3
				c2.1-1.2,5.3-1.4,7.1-0.3l70.7,40.8c0.9,0.5,1.4,1.3,1.4,2.1c0,1-0.7,1.9-1.9,2.6L743.3,530C742.1,530.7,740.7,531,739.3,531z
				 M736.7,529.3c1.5,0.9,4.3,0.7,6-0.3l69.7-40.3c0.8-0.5,1.3-1.1,1.3-1.7c0-0.6-0.5-1-0.9-1.2l-70.7-40.8c-1.5-0.9-4.3-0.7-6,0.3
				l-69.7,40.3c-0.8,0.5-1.3,1.1-1.3,1.7c0,0.6,0.5,1,0.9,1.2L736.7,529.3z"/>
			<g>
				<g>
					<linearGradient id="SVGID_50_" gradientUnits="userSpaceOnUse" x1="627.1102" y1="483.356" x2="819.457" y2="483.356">
						<stop  offset="0" style="stop-color:#5761D7"/>
						<stop  offset="0.1645" style="stop-color:#5E67DA"/>
						<stop  offset="0.4051" style="stop-color:#727AE2"/>
						<stop  offset="0.6924" style="stop-color:#9297EE"/>
						<stop  offset="1" style="stop-color:#BCBEFF"/>
					</linearGradient>
					<polygon class="st83" points="814.3,457.4 814.3,466 739.3,509.4 664.2,466 664.2,457.4 					"/>
					<polygon class="st60" points="739.3,500.7 664.2,457.4 739.3,414 814.3,457.4 					"/>
					<polygon class="st6" points="739.3,499.7 665.1,456.8 664.2,457.4 739.3,500.7 814.3,457.4 813.4,456.8 					"/>
				</g>
				<g>
					<polygon class="st61" points="739.3,490.7 681.5,457.4 739.3,424 797,457.4 					"/>
					<g>
						<linearGradient id="SVGID_51_" gradientUnits="userSpaceOnUse" x1="681.5447" y1="457.3643" x2="796.9965" y2="457.3643">
							<stop  offset="0" style="stop-color:#42E8E0"/>
							<stop  offset="0.1507" style="stop-color:#43E3E0"/>
							<stop  offset="0.3285" style="stop-color:#45D5DF"/>
							<stop  offset="0.5199" style="stop-color:#49BDDD"/>
							<stop  offset="0.7209" style="stop-color:#4E9CDB"/>
							<stop  offset="0.9274" style="stop-color:#5472D8"/>
							<stop  offset="1" style="stop-color:#5761D7"/>
						</linearGradient>
						<polygon class="st84" points="739.3,490.7 681.5,457.4 739.3,424 797,457.4 						"/>
						<g>
							<linearGradient id="SVGID_52_" gradientUnits="userSpaceOnUse" x1="739.2697" y1="436.4982" x2="796.9965" y2="436.4982">
								<stop  offset="0" style="stop-color:#42E8E0"/>
								<stop  offset="0.1507" style="stop-color:#43E3E0"/>
								<stop  offset="0.3285" style="stop-color:#45D5DF"/>
								<stop  offset="0.5199" style="stop-color:#49BDDD"/>
								<stop  offset="0.7209" style="stop-color:#4E9CDB"/>
								<stop  offset="0.9274" style="stop-color:#5472D8"/>
								<stop  offset="1" style="stop-color:#5761D7"/>
							</linearGradient>
							<polygon class="st85" points="739.3,415.6 797,449 797,457.4 739.3,424 							"/>
							<linearGradient id="SVGID_53_" gradientUnits="userSpaceOnUse" x1="681.5447" y1="436.4978" x2="739.2714" y2="436.4978">
								<stop  offset="0" style="stop-color:#42E8E0"/>
								<stop  offset="0.1507" style="stop-color:#43E3E0"/>
								<stop  offset="0.3285" style="stop-color:#45D5DF"/>
								<stop  offset="0.5199" style="stop-color:#49BDDD"/>
								<stop  offset="0.7209" style="stop-color:#4E9CDB"/>
								<stop  offset="0.9274" style="stop-color:#5472D8"/>
								<stop  offset="1" style="stop-color:#5761D7"/>
							</linearGradient>
							<polygon class="st86" points="739.3,424 681.5,457.4 681.5,449 739.3,415.6 							"/>
							<linearGradient id="SVGID_54_" gradientUnits="userSpaceOnUse" x1="681.5447" y1="448.9601" x2="796.9965" y2="448.9601">
								<stop  offset="0" style="stop-color:#42E8E0"/>
								<stop  offset="0.1507" style="stop-color:#43E3E0"/>
								<stop  offset="0.3285" style="stop-color:#45D5DF"/>
								<stop  offset="0.5199" style="stop-color:#49BDDD"/>
								<stop  offset="0.7209" style="stop-color:#4E9CDB"/>
								<stop  offset="0.9274" style="stop-color:#5472D8"/>
								<stop  offset="1" style="stop-color:#5761D7"/>
							</linearGradient>
							<polygon class="st87" points="739.3,482.3 681.5,449 739.3,415.6 797,449 							"/>
							<polygon class="st14" points="739.3,462.3 716.2,449 739.3,435.6 762.3,449 							"/>
							<polygon class="st14" points="739.3,436.9 761.3,449.6 762.3,449 739.3,435.6 716.2,449 717.3,449.6 							"/>
							<linearGradient id="SVGID_55_" gradientUnits="userSpaceOnUse" x1="739.2714" y1="469.8262" x2="796.9965" y2="469.8262">
								<stop  offset="0" style="stop-color:#42E8E0"/>
								<stop  offset="0.1507" style="stop-color:#43E3E0"/>
								<stop  offset="0.3285" style="stop-color:#45D5DF"/>
								<stop  offset="0.5199" style="stop-color:#49BDDD"/>
								<stop  offset="0.7209" style="stop-color:#4E9CDB"/>
								<stop  offset="0.9274" style="stop-color:#5472D8"/>
								<stop  offset="1" style="stop-color:#5761D7"/>
							</linearGradient>
							<polygon class="st88" points="739.3,482.3 739.3,490.7 797,457.4 797,449 							"/>
						</g>
						<linearGradient id="SVGID_56_" gradientUnits="userSpaceOnUse" x1="681.5447" y1="469.8258" x2="739.2714" y2="469.8258">
							<stop  offset="0" style="stop-color:#42E8E0"/>
							<stop  offset="0.1507" style="stop-color:#43E3E0"/>
							<stop  offset="0.3285" style="stop-color:#45D5DF"/>
							<stop  offset="0.5199" style="stop-color:#49BDDD"/>
							<stop  offset="0.7209" style="stop-color:#4E9CDB"/>
							<stop  offset="0.9274" style="stop-color:#5472D8"/>
							<stop  offset="1" style="stop-color:#5761D7"/>
						</linearGradient>
						<polygon class="st89" points="681.5,449 681.5,457.4 739.3,490.7 739.3,482.3 						"/>
					</g>
					<polygon class="st68" points="739.3,481.4 682.3,448.5 681.5,449 739.3,482.3 797,449 796.2,448.5 					"/>
				</g>
			</g>
		</g>
	</g>
</g>
<g class="st15">
	<g>
		<path class="st90" d="M375.5,43.4c51.9-15.6,82.7,43.1,52.4,99.8c-25.7,48.1-88.4,82.8-104.8,32.3c-9.6-29.7-1.7-102.5,47.4-130
			c-13.2,6.8-22.9,16.5-32.4,32.3c18.1,22.3,19.6,24.1,35.2,42c18.5-43.7,20-47.3,33.7-76.8C396.3,39.3,386.9,39.4,375.5,43.4
			L375.5,43.4z M371.9,44.9c-0.4,0.2-0.8,0.4-1.2,0.6C371.1,45.2,371.5,45.1,371.9,44.9L371.9,44.9z M374.5,43.8
			c0.3-0.1,0.6-0.2,0.9-0.3C375.1,43.5,374.8,43.6,374.5,43.8L374.5,43.8z M373.3,44.3c-0.4,0.2-0.8,0.4-1.2,0.5
			C372.5,44.6,372.9,44.4,373.3,44.3L373.3,44.3z M373.3,44.3c0.3-0.1,0.7-0.3,1-0.4C373.9,44,373.6,44.1,373.3,44.3L373.3,44.3z"/>
		<path class="st13" d="M287.9,99.1c3-3.2,6.3-6.3,9.7-9.4v151.2c-3.5,3.1-6.7,6.2-9.7,9.4V99.1L287.9,99.1z"/>
		<path class="st13" d="M272.3,172c2.1-3.4,4.5-6.7,7.1-10V260c-2.6,3.3-5,6.6-7.1,10V172L272.3,172z"/>
		<path class="st90" d="M258.4,286l0.2,0.4l0.2-9.9l-0.3-0.5V286L258.4,286z M258.4,315.2V164c0-1,0-1.9,0.1-2.9
			c0.3-6.9,1.5-13.7,3.6-20.4v151.2c-2.1,6.7-3.3,13.5-3.6,20.4C258.4,313.3,258.4,314.2,258.4,315.2L258.4,315.2z"/>
		<polygon class="st13" points="258.4,286 258.6,286.3 258.7,276.4 258.4,275.9 258.4,286 		"/>
		<path class="st13" d="M370.7,45.4c-0.1,0-0.1,0.1-0.2,0.1C370.6,45.5,370.7,45.5,370.7,45.4L370.7,45.4z M375.4,43.4
			c0,0,0.1,0,0.1-0.1C375.5,43.4,375.4,43.4,375.4,43.4L375.4,43.4z M372.1,44.8c-0.1,0-0.1,0.1-0.2,0.1
			C371.9,44.8,372,44.8,372.1,44.8L372.1,44.8z M374.3,43.9C374.3,43.9,374.3,43.8,374.3,43.9C374.3,43.8,374.3,43.8,374.3,43.9
			C374.4,43.8,374.4,43.8,374.3,43.9c0.1,0,0.1,0,0.1,0c0,0,0,0,0,0c0,0,0,0,0,0c0,0,0,0,0,0c0,0,0,0,0,0
			C374.4,43.8,374.4,43.8,374.3,43.9L374.3,43.9z"/>
		<path class="st13" d="M373.3,44.3c16.9-7,29.1-2.8,33.7-1.2c-19.3,42.6-21.4,47.1-33.7,76.8c-19.1-22.2-22-25.6-35.2-42
			C341.8,71.6,353.2,52.7,373.3,44.3L373.3,44.3z"/>
	</g>
	<g>
		<path class="st90" d="M493.3,416.3c-15.6,4.6-25.5-4.8-29.2-7.6c-28.6-24.2-53.6-53.7-82.2-77.8c-8.5-7.1-13.7-4.2-16.6-3.4
			c-53.4,21.2-53.4,21.2-62,8.3c-15.7-27.8-16.2-30-23.5-47.4c-1.7-4-7.3-10-9.8-9.7c-12,3.4-10.4,5.8-11.5,7.3v-10.1
			c14.1-5.4,15.6-6.1,21.3,7.1c26.4,56,31,54.8,37.2,53.3c56.2-22.5,55.5-20.9,69.9-6c24.8,25.8,74.8,76.1,90.2,80.1
			c4.7,0.6,12.3-0.1,16.7-1.2c54.3-18.2,75.8-29.6,128.9-52.5l4.8,7.7c-19.7,8.6-79.1,32-133.8,49.2L493.3,416.3z M663,477.2
			l0-151.2c-16.7,0.9-33.7,1.4-51.1,1.2c-196.5-1.6-353.5-74.4-353.5-163.3v151.2c0,88.9,157,161.7,353.5,163.3
			C629.2,478.6,646.3,478.2,663,477.2L663,477.2z"/>
		<path class="st13" d="M493.3,416.3c-14,3.6-27.2,7-109.5-81.6c-10.4-10.5-10.4-10.5-63.9,10.8c-6.1,1.5-15.2,3.7-40.5-56.6
			c-7.8-17.8-20.8-3.1-20.9-3v-10.1c4.4-2.5,4.7-2.7,11.4-4.6c1.2-0.3,2.5-0.3,3.7,0.3c1.8,0.9,3.6,3,6.7,9.7c14.6,31,14.6,31,25,48
			c6.2,9.2,6.2,9.2,56.4-10.7c3.4-0.9,10.6-2.8,21.3,5.7c30.2,24.1,54.8,54.3,84.7,78.8c11.2,8,18,12.8,155.2-46.4l4.8,7.7
			C607.8,372.9,548,399,493.3,416.3L493.3,416.3z"/>
	</g>
</g>
</svg>
