<?xml version="1.0" encoding="utf-8"?>
<!-- Generator: Adobe Illustrator 22.1.0, SVG Export Plug-In . SVG Version: 6.00 Build 0)  -->
<svg version="1.1" id="a02f2390-8fa7-48a9-96f1-2ec5f63ecbc1"
	 xmlns="http://www.w3.org/2000/svg" xmlns:xlink="http://www.w3.org/1999/xlink" x="0px" y="0px" viewBox="0 0 1150 627.5"
	 style="enable-background:new 0 0 1150 627.5;" xml:space="preserve">
<style type="text/css">
	.st0{opacity:0.1;fill:#007BFF;enable-background:new    ;}
	.st1{fill:#454B69;}
	.st2{fill:none;}
	.st3{opacity:0.4;enable-background:new    ;}
	.st4{opacity:0.1;enable-background:new    ;}
	.st5{fill:#EFB7B9;}
	.st6{fill:#FFFFFF;}
	.st7{fill:#007BFF;}
	.st8{opacity:0.1;}
	.st9{opacity:8.000000e-02;enable-background:new    ;}
	.st10{fill:#3F3D56;}
	.st11{fill:#9C9CA1;}
	.st12{fill:#939498;}
	.st13{fill:#42E8E0;}
	.st14{opacity:0.5;fill:#42E8E0;enable-background:new    ;}
	.st15{opacity:0.5;}
	.st16{opacity:0.11;}
	.st17{fill:url(#SVGID_1_);}
	.st18{fill:url(#SVGID_2_);}
	.st19{fill:url(#SVGID_3_);}
	.st20{fill:url(#SVGID_4_);}
	.st21{opacity:0.11;fill:url(#SVGID_5_);enable-background:new    ;}
	.st22{fill:url(#SVGID_6_);}
	.st23{fill:url(#SVGID_7_);}
	.st24{fill:url(#SVGID_8_);}
	.st25{fill:url(#SVGID_9_);}
	.st26{opacity:0.11;fill:url(#SVGID_10_);enable-background:new    ;}
	.st27{fill:url(#SVGID_11_);}
	.st28{fill:url(#SVGID_12_);}
	.st29{fill:url(#SVGID_13_);}
	.st30{fill:url(#SVGID_14_);}
	.st31{opacity:0.5;fill:url(#SVGID_15_);enable-background:new    ;}
	.st32{fill:url(#SVGID_16_);}
	.st33{fill:url(#SVGID_17_);}
	.st34{opacity:0.2;fill:#180D5B;enable-background:new    ;}
	.st35{fill:#160A5B;}
	.st36{fill:#24126A;}
	.st37{fill:url(#SVGID_18_);}
	.st38{fill:url(#SVGID_19_);}
	.st39{fill:#4846A5;}
	.st40{fill:#FCD1C5;}
	.st41{fill:#453C9E;}
	.st42{fill:url(#SVGID_20_);}
	.st43{fill:#F0F6FF;}
	.st44{fill:#AA8383;}
	.st45{fill:#C4CCD6;}
	.st46{fill:#E2B1A6;}
	.st47{fill:#1B2B3A;}
	.st48{fill:#936D6D;}
	.st49{fill:url(#SVGID_21_);}
	.st50{fill:url(#SVGID_22_);}
	.st51{fill:url(#SVGID_23_);}
	.st52{fill:url(#SVGID_24_);}
	.st53{fill:url(#SVGID_25_);}
	.st54{fill:url(#SVGID_26_);}
	.st55{fill:#722318;}
	.st56{fill:url(#SVGID_27_);}
	.st57{fill:url(#SVGID_28_);}
	.st58{fill:#8686F2;}
	.st59{fill:url(#SVGID_29_);}
	.st60{fill:#BCBEFF;}
	.st61{fill:#0F054C;}
	.st62{opacity:0.5;fill:url(#SVGID_30_);enable-background:new    ;}
	.st63{opacity:0.5;fill:url(#SVGID_31_);enable-background:new    ;}
	.st64{opacity:0.5;fill:url(#SVGID_32_);enable-background:new    ;}
	.st65{opacity:0.5;fill:url(#SVGID_33_);enable-background:new    ;}
	.st66{opacity:0.5;fill:url(#SVGID_34_);enable-background:new    ;}
	.st67{opacity:0.5;fill:url(#SVGID_35_);enable-background:new    ;}
	.st68{opacity:0.8;fill:#42E8E0;enable-background:new    ;}
	.st69{fill:url(#SVGID_36_);}
	.st70{opacity:0.5;fill:url(#SVGID_37_);enable-background:new    ;}
	.st71{opacity:0.5;fill:url(#SVGID_38_);enable-background:new    ;}
	.st72{opacity:0.5;fill:url(#SVGID_39_);enable-background:new    ;}
	.st73{opacity:0.5;fill:url(#SVGID_40_);enable-background:new    ;}
	.st74{opacity:0.5;fill:url(#SVGID_41_);enable-background:new    ;}
	.st75{opacity:0.5;fill:url(#SVGID_42_);enable-background:new    ;}
	.st76{fill:url(#SVGID_43_);}
	.st77{opacity:0.5;fill:url(#SVGID_44_);enable-background:new    ;}
	.st78{opacity:0.5;fill:url(#SVGID_45_);enable-background:new    ;}
	.st79{opacity:0.5;fill:url(#SVGID_46_);enable-background:new    ;}
	.st80{opacity:0.5;fill:url(#SVGID_47_);enable-background:new    ;}
	.st81{opacity:0.5;fill:url(#SVGID_48_);enable-background:new    ;}
	.st82{opacity:0.5;fill:url(#SVGID_49_);enable-background:new    ;}
	.st83{fill:url(#SVGID_50_);}
	.st84{opacity:0.5;fill:url(#SVGID_51_);enable-background:new    ;}
	.st85{opacity:0.5;fill:url(#SVGID_52_);enable-background:new    ;}
	.st86{opacity:0.5;fill:url(#SVGID_53_);enable-background:new    ;}
	.st87{opacity:0.5;fill:url(#SVGID_54_);enable-background:new    ;}
	.st88{opacity:0.5;fill:url(#SVGID_55_);enable-background:new    ;}
	.st89{opacity:0.5;fill:url(#SVGID_56_);enable-background:new    ;}
	.st90{opacity:0.502;fill:#42E8E0;enable-background:new    ;}
	.st91{opacity:0.6;fill:#0C0F38;enable-background:new    ;}
	.st92{fill:url(#SVGID_57_);}
	.st93{fill:#D4088C;}
	.st94{fill:#6EE8FC;}
	.st95{fill:url(#SVGID_58_);}
	.st96{fill:#6DE0F6;}
	.st97{fill:#18D0F7;}
	.st98{fill:#25BFEC;}
	.st99{fill:#267FE5;}
	.st100{opacity:0.8;fill:#6EE8FC;enable-background:new    ;}
	.st101{opacity:0.6;fill:#6EE8FC;enable-background:new    ;}
	.st102{opacity:0.4;fill:#6EE8FC;enable-background:new    ;}
	.st103{opacity:0.2;fill:#6EE8FC;enable-background:new    ;}
	.st104{opacity:0.1;fill:#6EE8FC;enable-background:new    ;}
	.st105{fill:#3BE1FA;}
</style>
<title>teacher</title>
<path class="st0" d="M2887,615c-4.5,11-10,21.6-16.4,31.6c-3,4.8-6.3,9.3-9.9,13.7l-0.1,0.1H1749.2l0.2-0.1c1-0.8,6.9-5.5,16-13.7
	c6.5-5.8,14.8-13.4,24-22.5c75.5-74.3,220.5-250,99.7-411c-112.3-149.7,8.6-176.8,88.3-180c30.6-1.2,61.2,3.8,89.9,14.7
	c36.8,14,104.2,35.5,191.9,45.3c2.9,0.3,5.8,0.6,8.7,0.9c46.4,4.7,93.2,5.6,139.8,2.5l0,0c1.4-0.1,2.8-0.2,4.1-0.3
	c46.1-3.2,91.8-10.3,136.7-21.1c2.9-0.7,5.8-1.4,8.6-2.1c149.6-34.6,287.6,83.4,253.1,216.7c-12.8,49.3-9.5,101.9,33,144.4
	C2912.9,503.6,2904.4,571.9,2887,615z"/>
<path class="st1" d="M2887,615c-4.5,11-10,21.6-16.4,31.6c-3,4.8-6.3,9.3-9.9,13.7H1749.4c1-0.8,6.9-5.5,16-13.7
	c6.5-5.8,14.8-13.4,24-22.5l117.1-24.2c1.5-0.3,3.1-0.5,4.6-0.5l124.9-0.2h0.1l61.8-0.1h0.1l52.2-0.1h34.2l0,0h35l143.4-0.2h0.2
	h11.1h19.5h24.4h6.5l24.6-0.3h8.1l71.6-0.1h22.9l0,0h11l0,0l82.8-0.1h24.6l78.4-0.1l66.2-0.1c1.8,0,3.7,0.2,5.5,0.7L2887,615z"/>
<path class="st2" d="M1765.4,646.6h1105.2c-3,4.8-6.3,9.3-9.9,13.7H1749.4C1750.3,659.4,1756.2,654.7,1765.4,646.6z"/>
<path class="st3" d="M1765.4,646.6h1105.2c-3,4.8-6.3,9.3-9.9,13.7H1749.4C1750.3,659.4,1756.2,654.7,1765.4,646.6z"/>
<path class="st1" d="M2482.4,335.6l-2.2,0.4l-100.4,19.3c-29.1,5.6-58.7,11.2-88.3,9.1c-21.5-1.6-41.5-7.9-62.1-13.5
	c-11.6-3.2-24-4.4-27.9-17.5c-5.4-18,3.4-44.6,5.5-62.9c2-17.9,3.2-36.3-0.4-53.9c-0.8-4-1.8-7.9-3.1-11.7
	c-3.6-10.6-9.2-21.6-6.2-32.4c2.4-8.5,9.7-14.6,16.5-20.3c13.4-11,27-23.3,32.3-39.8c2.6-8,3.1-16.6,5.9-24.6
	c5.3-15.1,18.6-26.4,33.5-32.4c14.8-6,31.2-7.3,47.2-7.3c14.1,0,28.3,0.9,42.3,2.8c15.3,2,30.7,5.3,44.1,12.9
	c13.4,7.6,24.8,20,27.9,35.1c4.4,21.4-7.9,44.2-1.3,65c3.3,10.5,11,19,16.3,28.6c8.8,16.3,10.6,35.4,5,53c-6.4,19.8-22,39.8-14,58.9
	c5.1,12.2,18.1,18.7,27.1,28.4C2481,333.8,2481.7,334.7,2482.4,335.6z"/>
<path class="st4" d="M2480.2,333v3l-100.4,19.3c-29.1,5.6-58.7,11.2-88.3,9.1c-21.5-1.6-41.5-7.9-62.1-13.5
	c-11.6-3.2-24-4.4-27.9-17.5c-5.4-18,3.4-44.6,5.5-62.9c2-17.9,32.8-83.3,29.2-100.9l184,8c1.2,9.8,49.9,58.8,46.8,68.2
	c-6.4,19.8-22,39.8-14,58.9C2458.1,316.9,2471.1,323.4,2480.2,333z"/>
<path class="st5" d="M2292.2,283.6c1.1,6.2,1.7,13-1.5,18.4c-4.2,7.2-13.4,9.5-21.6,11.2l-28.5,5.7c-1.9,0.4-4,0.8-5.4,2.2
	c-1.7,1.5-2.3,4-2.5,6.2c-1.1,10.3,2.5,20.5,5.8,30.3c6.7,19.9,12.4,40.2,20.9,59.4c8.5,19.2,20.2,37.5,36.9,50.4
	s38.7,19.7,59.1,14.7c17.8-4.4,32.4-16.9,44.9-30.2c10.4-11,20.1-23,25.1-37.3c3.5-9.8,4.6-20.2,5.7-30.6
	c1.7-15.9,3.4-31.7,5.1-47.6c0.8-7.4,1.3-15.8-3.5-21.5c-2.1-2.5-5-4.2-7.9-5.7c-10.9-5.8-22.5-10.6-32.6-17.6
	c-10.2-7-19.2-16.6-22.3-28.6c-1.9-7.2-1.5-15-4.7-21.7c-3.5-7.5-11-12.6-19-14.8s-16.4-1.9-24.7-1s-40,3.3-43.4,12.6
	c-1.8,5,5.8,15.7,7.6,20.6C2288.5,266.8,2290.7,275.1,2292.2,283.6z"/>
<path class="st4" d="M2292.2,283.6c1.1,6.2,1.7,13-1.5,18.4c-4.2,7.2-13.4,9.5-21.6,11.2l-28.5,5.7c-1.9,0.4-4,0.8-5.4,2.2
	c-1.7,1.5-2.3,4-2.5,6.2c-1.1,10.3,2.5,20.5,5.8,30.3c6.7,19.9,12.4,40.2,20.9,59.4c8.5,19.2,20.2,37.5,36.9,50.4
	s38.7,19.7,59.1,14.7c17.8-4.4,32.4-16.9,44.9-30.2c10.4-11,20.1-23,25.1-37.3c3.5-9.8,4.6-20.2,5.7-30.6
	c1.7-15.9,3.4-31.7,5.1-47.6c0.8-7.4,1.3-15.8-3.5-21.5c-2.1-2.5-5-4.2-7.9-5.7c-10.9-5.8-22.5-10.6-32.6-17.6
	c-10.2-7-19.2-16.6-22.3-28.6c-1.9-7.2-1.5-15-4.7-21.7c-3.5-7.5-11-12.6-19-14.8s-16.4-1.9-24.7-1s-40,3.3-43.4,12.6
	c-1.8,5,5.8,15.7,7.6,20.6C2288.5,266.8,2290.7,275.1,2292.2,283.6z"/>
<path class="st6" d="M2360.8,392.3l16.7-35.4c7.8-16.6,15.8-34,15-52.3c-0.2-3.6-0.2-8.2,3-9.8c1.4-0.6,2.9-0.8,4.4-0.6
	c17.6,0.9,35,4.4,51.5,10.4c3.2,1.2,6.5,2.5,8.8,5.1s3.2,6,3.9,9.3c2.6,11.2,4.5,22.5,5.7,33.9c3,28.2,1.5,56.7,0,85l-4.4,86.4
	c0,1.2-0.2,2.4-0.7,3.6c-1.1,2-3.6,2.7-5.8,3c-8.6,1.5-17.4,1.2-26.1,0.8c-61.2-2.3-122.7-5.9-183.5,1.5c0.3-9,0.1-18-0.4-27
	c-2.4-38.9-12.5-76.8-22.4-114.5c-5.8-22-11.4-46-2.1-66.7c1.4-3.3,3.3-6.3,5.8-8.8c4-3.9,9.3-5.9,14.7-7.4
	c9.2-2.5,18.8-3.6,28.3-3.2l63.1,137.3c2.9,6.3,5.3,12.9,8.1,19.1c2.6-10.7-0.5-23.3,2.6-34.9
	C2350.2,415.1,2355.5,403.6,2360.8,392.3z"/>
<path class="st7" d="M2354.2,486.8c11.3,0.7,22.2-5.1,30-13.2s12.9-18.5,17.2-29c6.2-14.9,11.2-30.3,14.8-46.1
	c3-13.4,5.1-27.3,3.1-40.9c-2.9-18.8-13.5-35.8-15.3-54.7c-0.3-3.3-0.1-7.2,2.5-9.1c1.6-1.2,3.8-1.4,5.8-1.5
	c18.9-1.1,39.6-0.9,54.2,11.1c4.5,3.6,8.1,8.2,12.4,11.9c10.4,9,25,13.6,31.6,25.5c2.3,4.2,3.4,8.9,5.1,13.4
	c3.8,10.6,10.4,19.9,17,29.1c-6.4,26.9-13.7,53.8-20.1,80.7c-3.7,15.8-7.5,31.6-13.3,46.7c-3.8,9.9-8.7,20-7.5,30.6
	c0.5,4.2,1.9,8.2,3.1,12.2c4.2,14.1,6.2,28.8,5.9,43.5l-285.3,0.7c13.7-19.6,17.7-43.6,16.3-67.5c-0.7-11.4-3.3-22.9-9-32.8
	c-9.1-15.5-25-25.6-40.7-34.3c-11-6-22.8,27.8-34.7,23.9c1.9-13.6,2.8-66,2-79.7c-0.3-4.5-0.7-9.1,0.7-13.4c0.9-2.9,2.7-5.5,3.8-8.4
	c4.7-11.4,0.2-26,7.8-35.7c5.2-6.8,14.4-8.7,21.9-12.8c7.7-4.3,13.6-11,20.3-16.7c13.1-11.1,29.1-18.3,46.2-20.6
	c5,7.8,8,16.8,8.8,26c0.5,5.8,0.1,11.7,0.9,17.5c1.1,7.8,4.3,15.2,7.6,22.4c13.4,30.2,26.8,60.5,43.7,88.8c4.8,8,10,16,16.9,22.2
	S2344.9,487.2,2354.2,486.8z"/>
<path class="st4" d="M2354.2,486.8c11.3,0.7,22.2-5.1,30-13.2s12.9-18.5,17.2-29c6.2-14.9,11.2-30.3,14.8-46.1
	c3-13.4,5.1-27.3,3.1-40.9c-2.9-18.8-13.5-35.8-15.3-54.7c-0.3-3.3-0.1-7.2,2.5-9.1c1.6-1.2,3.8-1.4,5.8-1.5
	c18.9-1.1,39.6-0.9,54.2,11.1c4.5,3.6,8.1,8.2,12.4,11.9c10.4,9,25,13.6,31.6,25.5c2.3,4.2,3.4,8.9,5.1,13.4
	c3.8,10.6,10.4,19.9,17,29.1c-6.4,26.9-13.7,53.8-20.1,80.7c-3.7,15.8-7.5,31.6-13.3,46.7c-3.8,9.9-8.7,20-7.5,30.6
	c0.5,4.2,1.9,8.2,3.1,12.2c4.2,14.1,6.2,28.8,5.9,43.5l-285.3,0.7c13.7-19.6,17.7-43.6,16.3-67.5c-0.7-11.4-3.3-22.9-9-32.8
	c-9.1-15.5-25-25.6-40.7-34.3c-11-6-22.8,27.8-34.7,23.9c1.9-13.6,2.8-66,2-79.7c-0.3-4.5-0.7-9.1,0.7-13.4c0.9-2.9,2.7-5.5,3.8-8.4
	c4.7-11.4,0.2-26,7.8-35.7c5.2-6.8,14.4-8.7,21.9-12.8c7.7-4.3,13.6-11,20.3-16.7c13.1-11.1,29.1-18.3,46.2-20.6
	c5,7.8,8,16.8,8.8,26c0.5,5.8,0.1,11.7,0.9,17.5c1.1,7.8,4.3,15.2,7.6,22.4c13.4,30.2,26.8,60.5,43.7,88.8c4.8,8,10,16,16.9,22.2
	S2344.9,487.2,2354.2,486.8z"/>
<circle class="st5" cx="2339.1" cy="195.6" r="85.7"/>
<path class="st1" d="M2294.1,309.8c2.4-22.2-6.9-43.9-17.3-63.6c-5-9.4-10.4-18.8-12.9-29.2s-1.8-22.1,4.6-30.6
	c5.5-7.2,14.1-11.1,22.1-15.4c22.6-12,43.3-29.6,53.2-53.2c-5.6,3.1-4.2,12.2,0.8,16.2s11.7,4.8,17.8,6.7
	c22.2,7,35.6,29.2,46.3,49.9c1.8,3.4,3.5,7,3.5,10.8s-1.8,7.2-3.6,10.4c-5.3,9.4-11.7,18.4-14.1,28.9c-2.8,12,0.2,24.6,3.9,36.4
	c4,12.5,9.3,25.1,18.9,34.1c9.6,9,24.5,13.4,36.3,7.6c-11.8-20.3-24-42.9-19.4-65.9c2.2-11,8.2-21,10.7-31.9
	c4.8-20.9-3.2-42.3-11.1-62.3l-23.6-59.4c-3.6-9.1-7.7-18.8-16-23.9c-5.6-3.5-12.4-4.4-18.9-5c-21.1-1.9-43-1.3-62.7,6.6
	c-35.8,14.3-58.3,49.6-76.1,83.8c-5.3,10.3-10.6,21.1-10.4,32.7c0.1,6.3,1.9,12.5,3.3,18.7c5.9,25.2,6.2,51.2,6.5,77.1
	c0.2,19.8-0.8,38.5-9.5,56.5c11.9,2.4,29.1,8.7,40.9,4.1C2282.8,343.9,2292.2,325.2,2294.1,309.8z"/>
<g class="st8">
	<path d="M2236,288.9c0-2.8,0-5.7,0-8.5c-0.3-25.8-0.6-51.9-6.5-77.1c-1.3-4.9-2.3-9.9-3.1-14.9c-0.2,1.7-0.3,3.5-0.3,5.2
		c0.1,6.3,1.9,12.5,3.3,18.7C2235.3,237.3,2235.7,263.2,2236,288.9z"/>
	<path d="M2445.1,221.1c1.3-5.8,1.8-11.8,1.3-17.8c-0.2,3-0.6,5.9-1.3,8.8c-2.5,11-8.5,20.9-10.7,31.9c-1,4.9-1.2,9.8-0.8,14.8
		c0.2-1.9,0.4-3.9,0.8-5.8C2436.6,242,2442.5,232.1,2445.1,221.1z"/>
	<path d="M2411.6,196.9c0.5-1.4,0.8-2.9,0.8-4.4c0-3.8-1.8-7.4-3.5-10.8c-10.7-20.7-24-42.9-46.3-49.9c-6.1-1.9-12.8-2.7-17.8-6.7
		c-2.6-2.2-4.2-5.4-4.4-8.8c-10.8,19.9-29.5,35.1-49.6,45.8c-8,4.3-16.7,8.2-22.1,15.4c-5.1,6.8-6.6,15.6-5.7,24.2
		c0.5-5.5,2.5-10.7,5.7-15.2c5.5-7.2,14.1-11.1,22.1-15.4c20.2-10.7,38.8-25.9,49.6-45.8c0.2,3.4,1.8,6.6,4.4,8.8
		c5,4,11.7,4.8,17.8,6.7c22.2,7,35.6,29.2,46.3,49.9C2409.9,192.7,2410.8,194.7,2411.6,196.9z"/>
	<path d="M2417.5,302.3c-9.6-9-14.9-21.6-18.9-34.1c-2.4-7-4-14.3-4.8-21.7c-0.9,10.3,1.6,20.8,4.8,30.7c4,12.5,9.3,25.1,18.9,34.1
		c9.6,9,24.5,13.4,36.3,7.6c-1.4-2.4-2.8-4.9-4.2-7.4C2438.6,314.7,2426,310.3,2417.5,302.3z"/>
	<path d="M2294.1,300.8c-1.9,15.4-11.4,34.1-26.7,40.2c-10.7,4.2-25.9-0.6-37.4-3.3c-1,2.8-2.1,5.6-3.4,8.3
		c11.9,2.4,29.1,8.7,40.9,4.1c15.4-6.1,24.8-24.8,26.7-40.2c0.4-3.9,0.5-7.7,0.2-11.6C2294.3,299.1,2294.2,299.9,2294.1,300.8z"/>
</g>
<path class="st6" d="M2415.3,548.7c-15.4-2.5-31.1-7.2-46.4-4c-8.9,1.8-17,6.3-24.4,11.6c4.1,3.3,8.8,6.2,11.4,10.7
	c1.6,3.1,2.8,6.4,3.6,9.9c1.6,6,3.3,12.1,3.5,18.4s-1,12.7-4.7,17.8c19.5,1.9,38.4-2.9,57.4-7.6c2.2-0.4,4.2-1.2,6.1-2.5
	c3-2.4,3.9-6.6,3.9-10.4c0-6.8-1.9-13.5-3.9-20.1C2419.4,564.7,2417.6,556.6,2415.3,548.7z"/>
<path class="st7" d="M2519.6,380.1c7.7,1,13.6,7.2,18,13.5c12.3,17.7,17.6,39.2,23.5,59.9c7.3,25.8,16,51.2,25.9,76.1
	c2.1,5.8,4.7,11.4,7.8,16.7c2.5,4.1,5.5,8.1,6.6,12.8c2.6,11.3-6.7,22-16.5,28.3c-5.2,3.5-10.9,6.2-16.8,8.1
	c-5.8,1.7-11.9,2.4-17.9,3.1l-55.5,6c-25.5,2.8-51.3,5.6-76.9,2.9c-1.6-5.6,1.6-9.6,1.3-15.4c-0.2-4.2-2-8-3.6-11.9
	c-3-6.8-5-14.1-5.9-21.5c-0.3-2.7-0.4-5.5-1.4-8.1c-1-2.5-3.3-4.8-6-5c15-1.5,26.4-4.3,41.4-5.8c5.6-0.6,11.4-1.2,16.1-4.2
	c5.9-3.7,9.2-10.3,11.8-16.7c6.5-15.9,10.7-33.4,7.3-50.3c-2.8-13.8-10.6-26.7-10.6-40.8c0-8.4,2.9-16.5,6.2-24.2
	c3.6-8.1,8.3-16.4,16.1-20.5C2498.2,379.1,2510.8,378.9,2519.6,380.1z"/>
<path class="st9" d="M2519.6,380.1c7.7,1,13.6,7.2,18,13.5c12.3,17.7,17.6,39.2,23.5,59.9c7.3,25.8,16,51.2,25.9,76.1
	c2.1,5.8,4.7,11.4,7.8,16.7c2.5,4.1,5.5,8.1,6.6,12.8c2.6,11.3-6.7,22-16.5,28.3c-5.2,3.5-10.9,6.2-16.8,8.1
	c-5.8,1.7-11.9,2.4-17.9,3.1l-55.5,6c-25.5,2.8-51.3,5.6-76.9,2.9c-1.6-5.6,1.6-9.6,1.3-15.4c-0.2-4.2-2-8-3.6-11.9
	c-3-6.8-5-14.1-5.9-21.5c-0.3-2.7-0.4-5.5-1.4-8.1c-1-2.5-3.3-4.8-6-5c15-1.5,26.4-4.3,41.4-5.8c5.6-0.6,11.4-1.2,16.1-4.2
	c5.9-3.7,9.2-10.3,11.8-16.7c6.5-15.9,10.7-33.4,7.3-50.3c-2.8-13.8-10.6-26.7-10.6-40.8c0-8.4,2.9-16.5,6.2-24.2
	c3.6-8.1,8.3-16.4,16.1-20.5C2498.2,379.1,2510.8,378.9,2519.6,380.1z"/>
<path class="st5" d="M2172,367.1c3.6-8.6,7.3-17.5,7.4-26.9c0.1-10.1-4-19.7-7.1-29.3c-3.9-11.7-6.5-23.9-7.7-36.2
	c-0.3-1.2-0.1-2.4,0.5-3.5c0.8-1.2,2.4-1.4,3.8-1.7c6.9-1.6,12.1-7.2,16.5-12.8c6.7-8.7,12.4-18.1,16.9-28.2
	c3.3-7.4,7.8-16.4,15.9-16.4c-3.3,15.3-7.3,30.4-12.1,45.3c8.4-2.2,16.5-5.3,24.9-7.5c1.7-0.5,3.4-0.8,5.1-0.7
	c5.1,0.5,8.2,7.4,5.2,11.5c4.1,4.8,11,6.1,16.4,9.5c5.4,3.3,9.3,11.5,4.5,15.7c-0.9,0.8-2.1,1.4-2.8,2.4c-2.3,3.6,3.4,7.7,2.9,11.9
	c-0.4,3.5-4.8,5.1-8.2,4.2s-6-3.4-9-5.3s-6.9-3-9.8-1.1c-0.8,9.4-1.6,19-5.7,27.6c-1.5,3.1-3.4,6.1-4.6,9.3
	c-1.1,3.5-1.9,7.2-2.1,10.9l-3.6,33.2C2201.9,382.6,2186.4,377.4,2172,367.1z"/>
<path class="st6" d="M2167.8,396.8l-3.2-21.6c-0.3-1.8-0.5-3.5-0.5-5.3c0-5,2.2-9.8,4.3-14.3c17.6,8.2,36.7,11.2,56.2,11.2
	c2.6,0,5.5-0.2,7.1-2.3c3.3,3.8,3.4,9.9,2,14.8c-1.4,4.8-4.1,9.2-5.9,13.9c-0.9,2.4-1.6,5-3.4,6.8c-2.7,2.9-7.1,3.4-11.1,3.4
	c-4.2,0-8.4-0.4-12.5-1.2C2190.2,400.3,2178.4,394.9,2167.8,396.8z"/>
<path class="st7" d="M2233.6,396c-13.7-1.6-27.3-3.8-40.8-6.6c-6.6-1.4-13.3-2.9-20.1-2.7c-4.4,0.2-9.1,1.1-13-1.1
	c3.8,12.8,4,26.3-0.5,38.9c-2.7,7.5-6.7,14.5-8.7,22.2c-4.1,16.2,1.5,33.8-3.6,49.6c-0.5,2.1-1.6,4-3.1,5.5
	c-1.6,1.4-3.7,2.2-5.1,3.7c-2.1,2.3-2.3,5.7-2.3,8.8l-0.1,27.5c-0.1,17.5,0.2,36.1,9.4,51c10.6,17,32.8,25.8,52.1,20.6
	c5.1-1.3,10-3.7,14.2-6.9c6.7-5.3,11-13.1,15.2-20.6c5-9,10-18.2,11.6-28.3c1.1-7.2,0.5-14.5-0.3-21.7c-4.5-40-14.3-79.7-12.2-119.8
	C2226.7,408.9,2229.2,401.8,2233.6,396z"/>
<path class="st5" d="M2290.9,562c-6.9,0.4-13.9,0.8-20.9,0c-5-0.6-9.9-1.8-14.8-2.7c-27.4-4.4-55.4,3.3-76.6,21.3
	c-3.8,3.3-7.7,8.3-5.6,12.9c2.3,4.9,9.3,4.8,14.6,3.9c-5.8,2.8-10.9,6.8-15,11.7c-1.5,1.8-2.9,4-2.6,6.4c0.6,5,7.3,5.8,12.3,5.4
	c-1.6,1.7-0.5,4.8,1.5,6c2.1,1.2,4.6,0.9,7,0.5c5.2-0.9,10.1-2.7,14.8-5.1c-0.9,2.5,0.7,5.3,3,6.5s5.1,1.1,7.7,0.7
	c12.2-2,22.4-10.5,34.3-13.8c19.1-5.3,39,3.2,58.8,3.8c6.2,0.2,12.6-0.4,18.2-3c6.9-3.2,12.5-9.1,19.8-11.2
	c8.1-2.3,17.5,0.3,24.9-3.7c5.4-2.9,0.5-25.3-0.9-29.7c-2.5-7.9-5.1-13.1-13.5-13.9C2336.6,555.9,2312.4,560.7,2290.9,562z"/>
<path class="st6" d="M2344.1,555.8c0,0,32.3,27.3,13.7,57.2l36-12.4v-26.1c0-1.2-13.7-19.9-13.7-19.9l-16.1-2.5L2344.1,555.8z"/>
<path class="st10" d="M2006,554.1h12.1c13.8,0,25,11.2,25,25v37.1l0,0H1981l0,0v-37.1C1981,565.3,1992.2,554.1,2006,554.1
	L2006,554.1z"/>
<path class="st4" d="M2006,554.1h12.1c13.8,0,25,11.2,25,25v37.1l0,0H1981l0,0v-37.1C1981,565.3,1992.2,554.1,2006,554.1L2006,554.1
	z"/>
<circle class="st10" cx="2009.6" cy="562.8" r="5"/>
<circle class="st10" cx="2009.6" cy="556.6" r="5"/>
<circle class="st10" cx="2009.6" cy="550.4" r="5"/>
<circle class="st10" cx="2009.6" cy="544.2" r="5"/>
<circle class="st10" cx="2009.6" cy="538" r="5"/>
<circle class="st10" cx="2009.6" cy="531.8" r="5"/>
<circle class="st10" cx="2009.6" cy="525.6" r="5"/>
<circle class="st10" cx="2017" cy="528.1" r="5"/>
<circle class="st10" cx="2022" cy="525.6" r="5"/>
<circle class="st10" cx="2027" cy="523.1" r="5"/>
<circle class="st10" cx="2009.6" cy="519.4" r="5"/>
<circle class="st10" cx="2009.6" cy="513.1" r="5"/>
<circle class="st10" cx="2009.6" cy="506.9" r="5"/>
<circle class="st10" cx="2009.6" cy="500.7" r="5"/>
<path class="st7" d="M2030.2,484.7c-1.2,0.2-2.5,0.3-3.7,0.4c1.2-1,2.2-2.1,3.2-3.3c-0.7-2.1-1.7-4.1-3-5.8c-1.2,0.7-2.6,1.1-4,1.3
	c-1.2,0.2-2.5,0.3-3.7,0.4c1.6-1.3,3.2-3.3,4.8-5c-8.6-7.8-22-7.2-29.8,1.5c-7.8,8.6-7.2,22,1.5,29.8s22,7.2,29.8-1.5
	c3.5-3.9,5.5-8.9,5.5-14.2c0-1.2-0.1-2.4-0.3-3.6L2030.2,484.7z"/>
<path class="st7" d="M2046.8,509.4c-1.3,0.8-2.7,1.3-4.2,1.4c-1.2,0.2-2.5,0.3-3.7,0.4c1.3-1.2,2.5-2.5,3.7-3.8
	c-6.6-1.7-13.4,2.3-15.2,8.9c-1.7,6.6,2.3,13.4,8.9,15.2c6.6,1.7,13.4-2.3,15.2-8.9C2052.8,517.6,2050.9,512.4,2046.8,509.4
	L2046.8,509.4z"/>
<circle class="st10" cx="2002.1" cy="528.1" r="5"/>
<circle class="st10" cx="1997.1" cy="525.6" r="5"/>
<circle class="st10" cx="1992.2" cy="523.1" r="5"/>
<path class="st7" d="M1972.4,509.4c1.3,0.8,2.7,1.3,4.2,1.4c1.2,0.2,2.5,0.3,3.7,0.4c-1.3-1.2-2.6-2.5-3.7-3.8
	c6.6-1.7,13.4,2.3,15.2,8.9c1.7,6.6-2.3,13.4-8.9,15.2c-6.6,1.7-13.4-2.3-15.2-8.9C1966.4,517.6,1968.2,512.4,1972.4,509.4
	L1972.4,509.4z"/>
<path class="st10" d="M2006,557.8h12.1c13.8,0,25,11.2,25,25l0,0v32.9c0,2.3-1.9,4.2-4.2,4.2h-53.7c-2.3,0-4.2-1.9-4.2-4.2v-32.9
	C1981,569,1992.2,557.8,2006,557.8L2006,557.8z"/>
<g class="st8">
	<path d="M2030.5,486.1c-0.5,0.5-1,1-1.6,1.5c0.6,0,1.1-0.1,1.7-0.2C2030.6,487,2030.6,486.5,2030.5,486.1z"/>
	<path d="M2021.5,480.1c1.3-0.1,2.5-0.2,3.7-0.4c1.1-0.1,2.2-0.4,3.2-0.9c-0.5-1-1.1-2-1.7-2.9c-0.6,0.4-1.3,0.7-2,0.8
		C2023.7,478,2022.6,479.1,2021.5,480.1z"/>
	<path d="M1990.9,490.8c0-11.6,9.4-21.1,21-21.1c4.1,0,8,1.2,11.5,3.4l0.3-0.3c-8.7-7.7-22-7-29.8,1.7c-7.7,8.7-7,22,1.7,29.8
		c0.1,0.1,0.2,0.1,0.2,0.2C1992.7,500.6,1990.9,495.8,1990.9,490.8z"/>
</g>
<g class="st8">
	<path d="M2038.9,513.7c1.2-0.1,2.5-0.2,3.7-0.4c1.5-0.1,2.9-0.6,4.2-1.4c2.8,2.1,4.7,5.3,5,8.8c0-0.4,0.1-0.9,0.1-1.3
		c0-3.9-1.8-7.7-5-10c-1.3,0.8-2.7,1.3-4.2,1.4l-1,0.1C2040.8,511.9,2039.9,512.8,2038.9,513.7z"/>
	<path d="M2039.4,509.4c0.4,0,0.8,0,1.2,0.1c0.7-0.7,1.3-1.4,1.9-2.2c-6.6-1.8-13.4,2.2-15.2,8.8c-0.3,1.1-0.4,2.1-0.4,3.2
		c0,0.4,0,0.8,0.1,1.2C2027.7,514.3,2033,509.4,2039.4,509.4z"/>
</g>
<g class="st8">
	<path d="M1980.3,513.7c-1.2-0.1-2.5-0.2-3.7-0.4c-1.5-0.1-2.9-0.6-4.2-1.4c-2.8,2.1-4.7,5.3-5,8.8c0-0.4-0.1-0.9-0.1-1.3
		c0-3.9,1.8-7.7,5-10c1.3,0.8,2.7,1.3,4.2,1.4l1,0.1C1978.3,511.9,1979.3,512.8,1980.3,513.7z"/>
	<path d="M1979.8,509.4c-0.4,0-0.8,0-1.3,0.1c-0.6-0.7-1.3-1.4-1.9-2.2c6.6-1.8,13.4,2.2,15.2,8.8c0.3,1.1,0.4,2.1,0.4,3.2
		c0,0.4,0,0.8-0.1,1.2C1991.5,514.3,1986.1,509.4,1979.8,509.4z"/>
</g>
<path class="st7" d="M1462.8,632h-97.7c-2.3,0-4.2-1.9-4.2-4.2l0,0v-46.2c0-2.3,1.9-4.2,4.1-4.2c0.6,0,1.2,0.1,1.8,0.4
	c28.1,13.3,58.3,17.9,94,0.2c2.1-1,4.6-0.2,5.6,1.9c0.3,0.6,0.4,1.2,0.4,1.8v46C1467,630,1465.1,631.9,1462.8,632
	C1462.9,632,1462.9,632,1462.8,632z"/>
<path class="st4" d="M1462.8,632h-97.7c-2.3,0-4.2-1.9-4.2-4.2l0,0v-46.2c0-2.3,1.9-4.2,4.1-4.2c0.6,0,1.2,0.1,1.8,0.4
	c28.1,13.3,58.3,17.9,94,0.2c2.1-1,4.6-0.2,5.6,1.9c0.3,0.6,0.4,1.2,0.4,1.8v46C1467,630,1465.1,631.9,1462.8,632
	C1462.9,632,1462.9,632,1462.8,632z"/>
<ellipse class="st10" cx="1413.3" cy="589.2" rx="5.8" ry="7.6"/>
<ellipse class="st10" cx="1413.3" cy="580" rx="5.8" ry="7.6"/>
<ellipse class="st10" cx="1413.3" cy="570.7" rx="5.8" ry="7.6"/>
<ellipse class="st10" cx="1413.3" cy="561.5" rx="5.8" ry="7.6"/>
<ellipse class="st10" cx="1413.3" cy="552.2" rx="5.8" ry="7.6"/>
<ellipse class="st10" cx="1413.3" cy="543" rx="5.8" ry="7.6"/>
<ellipse class="st10" cx="1413.3" cy="533.7" rx="5.8" ry="7.6"/>
<path class="st7" d="M1435,470.4c0.8-1,1.5-2.1,2.2-3.2l-15.2-2.5l16.4,0.1c3.2-6.9,3.4-14.9,0.5-22l-22.1,11.4l20.3-15
	c-7.7-13.2-24.6-17.8-37.9-10.1c-13.2,7.7-17.8,24.6-10.1,37.9c0.7,1.1,1.4,2.2,2.2,3.3c-1.2,1.6-2.3,3.3-3.2,5l19.7,10.4l-21-7.1
	c-3,8.9-1.3,18.6,4.5,26c-9.5,12-7.4,29.4,4.6,38.9s29.4,7.4,38.9-4.6c7.9-10.1,7.9-24.2,0-34.3
	C1442.9,494.5,1442.9,480.4,1435,470.4L1435,470.4z"/>
<path class="st4" d="M1385.5,487.5c0,6.2,2.1,12.3,5.9,17.1c-9.5,12-7.4,29.4,4.6,38.9s29.4,7.4,38.9-4.6c7.9-10.1,7.9-24.2,0-34.3
	C1438.7,499.9,1385.5,484.4,1385.5,487.5z"/>
<path class="st7" d="M1462.8,634.4h-97.7c-2.3,0-4.2-1.9-4.2-4.2l0,0v-48.7c0-2.3,1.9-4.2,4.1-4.2c0.6,0,1.2,0.1,1.8,0.4
	c28.1,13.3,50.3,28.8,94,0.2c2.6-1.7,6,0.6,6,3.7v48.5C1466.9,632.5,1465.1,634.4,1462.8,634.4z"/>
<polygon class="st11" points="2671,620.6 2526.9,639.7 2519.7,640.7 2449.2,603 2449.2,594.2 2669.4,570.2 "/>
<polygon class="st12" points="2490.1,607 2646.2,588.6 2644.6,617.4 2523,626.4 "/>
<path class="st3" d="M2526.9,630.2v9.5l-7.2,1l-70.5-37.7v-8.8l67.3,36C2516.5,630.2,2525.3,631,2526.9,630.2z"/>
<path class="st10" d="M2554.6,480.1l-32.4,150.1c-1.1,5.2,2.2,10.3,7.3,11.4c1.1,0.2,2.2,0.3,3.3,0.1l204.7-27.1
	c3.6-0.5,6.7-3,7.8-6.5l44.2-133.2c1.7-5-1.1-10.5-6.1-12.1c-1.1-0.4-2.3-0.5-3.5-0.5l-216.5,10.3
	C2559.2,472.8,2555.5,475.9,2554.6,480.1z"/>
<ellipse transform="matrix(0.1045 -0.9945 0.9945 0.1045 1851.3423 3125.887)" class="st6" cx="2661.5" cy="534.9" rx="8.7" ry="5.6"/>
<g>
	<path class="st13" d="M-448.5,71.2c5.6,1.4,11.1,2.9,16.4,4.5v39.7c-5.4-1.6-10.9-3.1-16.4-4.5V71.2L-448.5,71.2z"/>
	<path class="st14" d="M-486.6,72.9c6,1.1,11.8,2.4,17.6,3.6V106c-5.8-1.3-11.7-2.5-17.6-3.6V72.9L-486.6,72.9z"/>
	<path class="st13" d="M-527,40.5c6.3,0.8,12.5,1.7,18.7,2.7v55.4c-6.2-1-12.4-1.9-18.7-2.7V40.5L-527,40.5z"/>
	<path class="st14" d="M-569.6,5.6c6.6,0.5,13.1,1,19.6,1.7v86c-6.5-0.6-13-1.2-19.6-1.7V5.6L-569.6,5.6z"/>
	<path class="st14" d="M-613.9,24.1c6.9,0.1,13.7,0.3,20.4,0.6v65.6c-6.7-0.3-13.5-0.5-20.4-0.6V24.1L-613.9,24.1z"/>
	<path class="st13" d="M-658.7-44.6c6.7-0.3,13.4-0.5,20.2-0.6V89.7c-6.8,0.1-13.5,0.3-20.2,0.6V-44.6L-658.7-44.6z"/>
	<path class="st13" d="M-702-16.8c6.4-0.6,12.9-1.2,19.5-1.6V91.7c-6.6,0.5-13.1,1-19.5,1.6V-16.8L-702-16.8z"/>
	<path class="st13" d="M-743.5-52.8c6.1-1,12.3-1.8,18.6-2.7V95.8c-6.3,0.8-12.5,1.7-18.6,2.7V-52.8L-743.5-52.8z"/>
</g>
<g>
	<g>
		<g>
			<g class="st15">
				<g class="st16">
					
						<linearGradient id="SVGID_1_" gradientUnits="userSpaceOnUse" x1="-793.7071" y1="132.375" x2="-519.1072" y2="132.375" gradientTransform="matrix(1 0 0 -1 0 630)">
						<stop  offset="0" style="stop-color:#5761D7"/>
						<stop  offset="7.257640e-02" style="stop-color:#5472D8"/>
						<stop  offset="0.2791" style="stop-color:#4E9CDB"/>
						<stop  offset="0.4801" style="stop-color:#49BDDD"/>
						<stop  offset="0.6715" style="stop-color:#45D5DF"/>
						<stop  offset="0.8493" style="stop-color:#43E3E0"/>
						<stop  offset="1" style="stop-color:#42E8E0"/>
					</linearGradient>
					<path class="st17" d="M-645.8,422.7c-6.5-3.8-14.5-3.8-21,0l-125.4,72.2c-2,1.1-2,4,0,5.1l126.4,73c5.7,3.3,12.8,3.3,18.6,0
						l126.6-72.9c2-1.1,2-4,0-5.1L-645.8,422.7z"/>
				</g>
				<g class="st16">
					
						<linearGradient id="SVGID_2_" gradientUnits="userSpaceOnUse" x1="-793.7072" y1="153.475" x2="-519.1072" y2="153.475" gradientTransform="matrix(1 0 0 -1 0 630)">
						<stop  offset="0" style="stop-color:#5761D7"/>
						<stop  offset="7.257640e-02" style="stop-color:#5472D8"/>
						<stop  offset="0.2791" style="stop-color:#4E9CDB"/>
						<stop  offset="0.4801" style="stop-color:#49BDDD"/>
						<stop  offset="0.6715" style="stop-color:#45D5DF"/>
						<stop  offset="0.8493" style="stop-color:#43E3E0"/>
						<stop  offset="1" style="stop-color:#42E8E0"/>
					</linearGradient>
					<path class="st18" d="M-645.8,401.6c-6.5-3.8-14.5-3.8-21,0l-125.4,72.2c-2,1.1-2,4,0,5.1l126.4,73c5.7,3.3,12.8,3.3,18.6,0
						l126.6-72.9c2-1.1,2-4,0-5.1L-645.8,401.6z"/>
				</g>
				<g class="st16">
					
						<linearGradient id="SVGID_3_" gradientUnits="userSpaceOnUse" x1="-793.7071" y1="174.675" x2="-519.1071" y2="174.675" gradientTransform="matrix(1 0 0 -1 0 630)">
						<stop  offset="0" style="stop-color:#5761D7"/>
						<stop  offset="7.257640e-02" style="stop-color:#5472D8"/>
						<stop  offset="0.2791" style="stop-color:#4E9CDB"/>
						<stop  offset="0.4801" style="stop-color:#49BDDD"/>
						<stop  offset="0.6715" style="stop-color:#45D5DF"/>
						<stop  offset="0.8493" style="stop-color:#43E3E0"/>
						<stop  offset="1" style="stop-color:#42E8E0"/>
					</linearGradient>
					<path class="st19" d="M-645.8,380.4c-6.5-3.8-14.5-3.8-21,0l-125.4,72.2c-2,1.1-2,4,0,5.1l126.4,73c5.7,3.3,12.8,3.3,18.6,0
						l126.6-72.9c2-1.1,2-4,0-5.1L-645.8,380.4z"/>
				</g>
				<g class="st16">
					
						<linearGradient id="SVGID_4_" gradientUnits="userSpaceOnUse" x1="-793.7071" y1="195.775" x2="-519.1072" y2="195.775" gradientTransform="matrix(1 0 0 -1 0 630)">
						<stop  offset="0" style="stop-color:#5761D7"/>
						<stop  offset="7.257640e-02" style="stop-color:#5472D8"/>
						<stop  offset="0.2791" style="stop-color:#4E9CDB"/>
						<stop  offset="0.4801" style="stop-color:#49BDDD"/>
						<stop  offset="0.6715" style="stop-color:#45D5DF"/>
						<stop  offset="0.8493" style="stop-color:#43E3E0"/>
						<stop  offset="1" style="stop-color:#42E8E0"/>
					</linearGradient>
					<path class="st20" d="M-645.8,359.3c-6.5-3.8-14.5-3.8-21,0l-125.4,72.2c-2,1.1-2,4,0,5.1l126.4,73c5.7,3.3,12.8,3.3,18.6,0
						l126.6-72.9c2-1.1,2-4,0-5.1L-645.8,359.3z"/>
				</g>
				
					<linearGradient id="SVGID_5_" gradientUnits="userSpaceOnUse" x1="-793.7071" y1="164.025" x2="-519.1072" y2="164.025" gradientTransform="matrix(1 0 0 -1 0 630)">
					<stop  offset="0" style="stop-color:#5761D7"/>
					<stop  offset="7.257640e-02" style="stop-color:#5472D8"/>
					<stop  offset="0.2791" style="stop-color:#4E9CDB"/>
					<stop  offset="0.4801" style="stop-color:#49BDDD"/>
					<stop  offset="0.6715" style="stop-color:#45D5DF"/>
					<stop  offset="0.8493" style="stop-color:#43E3E0"/>
					<stop  offset="1" style="stop-color:#42E8E0"/>
				</linearGradient>
				<path class="st21" d="M-520.6,431.6l-125.2-72.3c-6.5-3.8-14.5-3.8-21,0l-125.4,72.2c-1,0.6-1.5,1.6-1.5,2.6v63.4
					c0,1,0.5,2,1.5,2.6l126.4,73c5.7,3.3,12.8,3.3,18.6,0l126.6-72.9c1-0.6,1.5-1.6,1.5-2.6v-63.4l0,0
					C-519.2,433.2-519.6,432.2-520.6,431.6z"/>
			</g>
			<g>
				<g class="st16">
					
						<linearGradient id="SVGID_6_" gradientUnits="userSpaceOnUse" x1="-793.7071" y1="219.775" x2="-519.1072" y2="219.775" gradientTransform="matrix(1 0 0 -1 0 630)">
						<stop  offset="0" style="stop-color:#5761D7"/>
						<stop  offset="7.257640e-02" style="stop-color:#5472D8"/>
						<stop  offset="0.2791" style="stop-color:#4E9CDB"/>
						<stop  offset="0.4801" style="stop-color:#49BDDD"/>
						<stop  offset="0.6715" style="stop-color:#45D5DF"/>
						<stop  offset="0.8493" style="stop-color:#43E3E0"/>
						<stop  offset="1" style="stop-color:#42E8E0"/>
					</linearGradient>
					<path class="st22" d="M-645.8,335.3c-6.5-3.8-14.5-3.8-21,0l-125.4,72.2c-2,1.1-2,4,0,5.1l126.4,73c5.7,3.3,12.8,3.3,18.6,0
						l126.6-72.9c2-1.1,2-4,0-5.1L-645.8,335.3z"/>
				</g>
				<g class="st16">
					
						<linearGradient id="SVGID_7_" gradientUnits="userSpaceOnUse" x1="-793.7071" y1="240.875" x2="-519.1072" y2="240.875" gradientTransform="matrix(1 0 0 -1 0 630)">
						<stop  offset="0" style="stop-color:#5761D7"/>
						<stop  offset="7.257640e-02" style="stop-color:#5472D8"/>
						<stop  offset="0.2791" style="stop-color:#4E9CDB"/>
						<stop  offset="0.4801" style="stop-color:#49BDDD"/>
						<stop  offset="0.6715" style="stop-color:#45D5DF"/>
						<stop  offset="0.8493" style="stop-color:#43E3E0"/>
						<stop  offset="1" style="stop-color:#42E8E0"/>
					</linearGradient>
					<path class="st23" d="M-645.8,314.2c-6.5-3.8-14.5-3.8-21,0l-125.4,72.2c-2,1.1-2,4,0,5.1l126.4,73c5.7,3.3,12.8,3.3,18.6,0
						l126.6-72.9c2-1.1,2-4,0-5.1L-645.8,314.2z"/>
				</g>
				<g class="st16">
					
						<linearGradient id="SVGID_8_" gradientUnits="userSpaceOnUse" x1="-793.7071" y1="261.975" x2="-519.1072" y2="261.975" gradientTransform="matrix(1 0 0 -1 0 630)">
						<stop  offset="0" style="stop-color:#5761D7"/>
						<stop  offset="7.257640e-02" style="stop-color:#5472D8"/>
						<stop  offset="0.2791" style="stop-color:#4E9CDB"/>
						<stop  offset="0.4801" style="stop-color:#49BDDD"/>
						<stop  offset="0.6715" style="stop-color:#45D5DF"/>
						<stop  offset="0.8493" style="stop-color:#43E3E0"/>
						<stop  offset="1" style="stop-color:#42E8E0"/>
					</linearGradient>
					<path class="st24" d="M-645.8,293.1c-6.5-3.8-14.5-3.8-21,0l-125.4,72.2c-2,1.1-2,4,0,5.1l126.4,73c5.7,3.3,12.8,3.3,18.6,0
						l126.6-72.9c2-1.1,2-4,0-5.1L-645.8,293.1z"/>
				</g>
				<g class="st16">
					
						<linearGradient id="SVGID_9_" gradientUnits="userSpaceOnUse" x1="-793.7071" y1="283.075" x2="-519.1072" y2="283.075" gradientTransform="matrix(1 0 0 -1 0 630)">
						<stop  offset="0" style="stop-color:#5761D7"/>
						<stop  offset="7.257640e-02" style="stop-color:#5472D8"/>
						<stop  offset="0.2791" style="stop-color:#4E9CDB"/>
						<stop  offset="0.4801" style="stop-color:#49BDDD"/>
						<stop  offset="0.6715" style="stop-color:#45D5DF"/>
						<stop  offset="0.8493" style="stop-color:#43E3E0"/>
						<stop  offset="1" style="stop-color:#42E8E0"/>
					</linearGradient>
					<path class="st25" d="M-645.8,272c-6.5-3.8-14.5-3.8-21,0l-125.4,72.2c-2,1.1-2,4,0,5.1l126.4,73c5.7,3.3,12.8,3.3,18.6,0
						l126.6-72.9c2-1.1,2-4,0-5.1L-645.8,272z"/>
				</g>
				
					<linearGradient id="SVGID_10_" gradientUnits="userSpaceOnUse" x1="-793.7071" y1="251.425" x2="-519.1072" y2="251.425" gradientTransform="matrix(1 0 0 -1 0 630)">
					<stop  offset="0" style="stop-color:#5761D7"/>
					<stop  offset="7.257640e-02" style="stop-color:#5472D8"/>
					<stop  offset="0.2791" style="stop-color:#4E9CDB"/>
					<stop  offset="0.4801" style="stop-color:#49BDDD"/>
					<stop  offset="0.6715" style="stop-color:#45D5DF"/>
					<stop  offset="0.8493" style="stop-color:#43E3E0"/>
					<stop  offset="1" style="stop-color:#42E8E0"/>
				</linearGradient>
				<path class="st26" d="M-520.6,344.2l-125.2-72.3c-6.5-3.8-14.5-3.8-21,0l-125.4,72.2c-1,0.6-1.5,1.6-1.5,2.6v63.4
					c0,1,0.5,2,1.5,2.6l126.4,73c5.7,3.3,12.8,3.3,18.6,0l126.6-72.9c1-0.6,1.5-1.6,1.5-2.6v-63.4l0,0
					C-519.2,345.8-519.6,344.8-520.6,344.2z"/>
			</g>
			<g>
				<g class="st16">
					
						<linearGradient id="SVGID_11_" gradientUnits="userSpaceOnUse" x1="-793.7071" y1="307.075" x2="-519.1072" y2="307.075" gradientTransform="matrix(1 0 0 -1 0 630)">
						<stop  offset="0" style="stop-color:#5761D7"/>
						<stop  offset="7.257640e-02" style="stop-color:#5472D8"/>
						<stop  offset="0.2791" style="stop-color:#4E9CDB"/>
						<stop  offset="0.4801" style="stop-color:#49BDDD"/>
						<stop  offset="0.6715" style="stop-color:#45D5DF"/>
						<stop  offset="0.8493" style="stop-color:#43E3E0"/>
						<stop  offset="1" style="stop-color:#42E8E0"/>
					</linearGradient>
					<path class="st27" d="M-645.8,248c-6.5-3.8-14.5-3.8-21,0l-125.4,72.2c-2,1.1-2,4,0,5.1l126.4,73c5.7,3.3,12.8,3.3,18.6,0
						l126.6-72.9c2-1.1,2-4,0-5.1L-645.8,248z"/>
				</g>
				<g class="st16">
					
						<linearGradient id="SVGID_12_" gradientUnits="userSpaceOnUse" x1="-793.7071" y1="328.175" x2="-519.1072" y2="328.175" gradientTransform="matrix(1 0 0 -1 0 630)">
						<stop  offset="0" style="stop-color:#5761D7"/>
						<stop  offset="7.257640e-02" style="stop-color:#5472D8"/>
						<stop  offset="0.2791" style="stop-color:#4E9CDB"/>
						<stop  offset="0.4801" style="stop-color:#49BDDD"/>
						<stop  offset="0.6715" style="stop-color:#45D5DF"/>
						<stop  offset="0.8493" style="stop-color:#43E3E0"/>
						<stop  offset="1" style="stop-color:#42E8E0"/>
					</linearGradient>
					<path class="st28" d="M-645.8,226.9c-6.5-3.8-14.5-3.8-21,0l-125.4,72.2c-2,1.1-2,4,0,5.1l126.4,73c5.7,3.3,12.8,3.3,18.6,0
						l126.6-72.9c2-1.1,2-4,0-5.1L-645.8,226.9z"/>
				</g>
				<g class="st16">
					
						<linearGradient id="SVGID_13_" gradientUnits="userSpaceOnUse" x1="-793.7071" y1="349.375" x2="-519.1072" y2="349.375" gradientTransform="matrix(1 0 0 -1 0 630)">
						<stop  offset="0" style="stop-color:#5761D7"/>
						<stop  offset="7.257640e-02" style="stop-color:#5472D8"/>
						<stop  offset="0.2791" style="stop-color:#4E9CDB"/>
						<stop  offset="0.4801" style="stop-color:#49BDDD"/>
						<stop  offset="0.6715" style="stop-color:#45D5DF"/>
						<stop  offset="0.8493" style="stop-color:#43E3E0"/>
						<stop  offset="1" style="stop-color:#42E8E0"/>
					</linearGradient>
					<path class="st29" d="M-645.8,205.7c-6.5-3.8-14.5-3.8-21,0l-125.4,72.2c-2,1.1-2,4,0,5.1l126.4,73c5.7,3.3,12.8,3.3,18.6,0
						l126.6-72.9c2-1.1,2-4,0-5.1L-645.8,205.7z"/>
				</g>
				<g class="st16">
					
						<linearGradient id="SVGID_14_" gradientUnits="userSpaceOnUse" x1="-793.7072" y1="370.475" x2="-519.1072" y2="370.475" gradientTransform="matrix(1 0 0 -1 0 630)">
						<stop  offset="0" style="stop-color:#5761D7"/>
						<stop  offset="7.257640e-02" style="stop-color:#5472D8"/>
						<stop  offset="0.2791" style="stop-color:#4E9CDB"/>
						<stop  offset="0.4801" style="stop-color:#49BDDD"/>
						<stop  offset="0.6715" style="stop-color:#45D5DF"/>
						<stop  offset="0.8493" style="stop-color:#43E3E0"/>
						<stop  offset="1" style="stop-color:#42E8E0"/>
					</linearGradient>
					<path class="st30" d="M-645.8,184.6c-6.5-3.8-14.5-3.8-21,0l-125.4,72.2c-2,1.1-2,4,0,5.1l126.4,73c5.7,3.3,12.8,3.3,18.6,0
						l126.6-72.9c2-1.1,2-4,0-5.1L-645.8,184.6z"/>
				</g>
				
					<linearGradient id="SVGID_15_" gradientUnits="userSpaceOnUse" x1="-793.7072" y1="338.725" x2="-519.1072" y2="338.725" gradientTransform="matrix(1 0 0 -1 0 630)">
					<stop  offset="0" style="stop-color:#5761D7"/>
					<stop  offset="7.257640e-02" style="stop-color:#5472D8"/>
					<stop  offset="0.2791" style="stop-color:#4E9CDB"/>
					<stop  offset="0.4801" style="stop-color:#49BDDD"/>
					<stop  offset="0.6715" style="stop-color:#45D5DF"/>
					<stop  offset="0.8493" style="stop-color:#43E3E0"/>
					<stop  offset="1" style="stop-color:#42E8E0"/>
				</linearGradient>
				<path class="st31" d="M-520.6,256.9l-125.2-72.3c-6.5-3.8-14.5-3.8-21,0l-125.4,72.2c-1,0.6-1.5,1.6-1.5,2.6v63.4
					c0,1,0.5,2,1.5,2.6l126.4,73c5.7,3.3,12.8,3.3,18.6,0l126.6-72.9c1-0.6,1.5-1.6,1.5-2.6v-63.4l0,0
					C-519.2,258.4-519.6,257.4-520.6,256.9z"/>
				<g class="st16">
					
						<linearGradient id="SVGID_16_" gradientUnits="userSpaceOnUse" x1="-793.7072" y1="370.475" x2="-519.1072" y2="370.475" gradientTransform="matrix(1 0 0 -1 0 630)">
						<stop  offset="0" style="stop-color:#5761D7"/>
						<stop  offset="7.257640e-02" style="stop-color:#5472D8"/>
						<stop  offset="0.2791" style="stop-color:#4E9CDB"/>
						<stop  offset="0.4801" style="stop-color:#49BDDD"/>
						<stop  offset="0.6715" style="stop-color:#45D5DF"/>
						<stop  offset="0.8493" style="stop-color:#43E3E0"/>
						<stop  offset="1" style="stop-color:#42E8E0"/>
					</linearGradient>
					<path class="st32" d="M-645.8,184.6c-6.5-3.8-14.5-3.8-21,0l-125.4,72.2c-2,1.1-2,4,0,5.1l126.4,73c5.7,3.3,12.8,3.3,18.6,0
						l126.6-72.9c2-1.1,2-4,0-5.1L-645.8,184.6z"/>
				</g>
				
					<linearGradient id="SVGID_17_" gradientUnits="userSpaceOnUse" x1="-793.7108" y1="332.4" x2="-519.1033" y2="332.4" gradientTransform="matrix(1 0 0 -1 0 630)">
					<stop  offset="0" style="stop-color:#5761D7"/>
					<stop  offset="7.257640e-02" style="stop-color:#5472D8"/>
					<stop  offset="0.2791" style="stop-color:#4E9CDB"/>
					<stop  offset="0.4801" style="stop-color:#49BDDD"/>
					<stop  offset="0.6715" style="stop-color:#45D5DF"/>
					<stop  offset="0.8493" style="stop-color:#43E3E0"/>
					<stop  offset="1" style="stop-color:#42E8E0"/>
				</linearGradient>
				<path class="st33" d="M-520.6,259.1L-647.2,332c-5.7,3.3-12.8,3.3-18.6,0l-126.4-73c-0.5-0.3-0.9-0.7-1.1-1.1
					c-0.8,1.3-0.4,3.2,1.1,4l126.4,73c5.7,3.3,12.8,3.3,18.6,0l126.6-72.9c1.5-0.9,1.9-2.7,1.1-4
					C-519.8,258.4-520.1,258.8-520.6,259.1z"/>
			</g>
		</g>
		<g>
			<g>
				<polygon class="st13" points="-778.9,281.4 -775.8,283.2 -775.8,281.1 -778.9,279.3 				"/>
				<polygon class="st13" points="-778.9,295.5 -775.8,297.3 -775.8,285.1 -778.9,283.3 				"/>
				<polygon class="st13" points="-778.9,302.3 -775.8,304.1 -775.8,299.2 -778.9,297.4 				"/>
				<polygon class="st13" points="-778.9,309.3 -775.8,311.1 -775.8,306.2 -778.9,304.4 				"/>
				<polygon class="st13" points="-783.6,285.5 -780.5,287.3 -780.5,282.4 -783.6,280.6 				"/>
				<polygon class="st13" points="-783.6,294.7 -780.5,296.5 -780.5,289.4 -783.6,287.6 				"/>
				<polygon class="st13" points="-783.6,303.3 -780.5,305.1 -780.5,299 -783.6,297.2 				"/>
				<polygon class="st13" points="-778.9,316.3 -775.8,318.1 -775.8,313.2 -778.9,311.4 				"/>
				<polygon class="st13" points="-783.6,278.7 -780.5,280.5 -780.5,278.4 -783.6,276.6 				"/>
			</g>
			<polygon class="st13" points="-781.2,321.7 -775.8,324.9 -775.8,322.8 -781.2,319.7 			"/>
		</g>
	</g>
	<ellipse class="st34" cx="-656.4" cy="259.6" rx="67.3" ry="38.9"/>
	<g>
		<g>
			<path class="st35" d="M-656.1,227.6l0.1,0.6l0.2-0.4c0,0,0.9,3.1,0.1,4.7c-0.8,1.6-2,3.5-3.6,5.7c-1.7,2.2-4.3,6.7-5,7.6
				s-4.8,4.3-9.8,4.8c-5.1,0.5-6.4-2.4-6-4s3.2-5.7,6.1-9.1c3-3.4,5.3-7.8,5.3-7.8L-656.1,227.6z"/>
			<path class="st35" d="M-671.3,213.8c0,0,0.2,3.3-0.2,4.6c-0.3,1.3-7.8,1.8-10.5,2.1c-2.7,0.3-7.3,2.2-8.7,2.9
				c-1.4,0.7-11.1,1.7-12.3-1.8c-1.2-3.6,4.9-6.6,9-7.5s10.8-3,10.8-3L-671.3,213.8z"/>
			<path class="st36" d="M-645.4,149.2c0,0,0.3,9.1-2.8,21.8c-3,12.6-2.7,21.4-2.7,21.4s3.2,14.3,0.4,24c-2.8,9.7-5.2,12.5-5.2,12.5
				s-5.6,7.4-13,0.8c0,0,4.1-13.4,4.6-24c0,0-3.6-7.8-4.9-14.8c0,0-1.1,11.1-1.7,15.6c0,0,0.6,6.6-1.1,9.3
				c-1.8,2.7-9.7,3.4-12.2-1.2s2.1-2.4,0.7-23.6c0,0-7.3-9.1-8.3-25.8c-1.1-16.7-0.9-23.3,0-26.6s17.1-15,17.1-15l9.1,11.6
				L-645.4,149.2z"/>
			<g>
				
					<linearGradient id="SVGID_18_" gradientUnits="userSpaceOnUse" x1="-681.2468" y1="425.9768" x2="-669.3627" y2="425.9768" gradientTransform="matrix(1 0 0 -1 0 630)">
					<stop  offset="0" style="stop-color:#5761D7"/>
					<stop  offset="7.257640e-02" style="stop-color:#5472D8"/>
					<stop  offset="0.2791" style="stop-color:#4E9CDB"/>
					<stop  offset="0.4801" style="stop-color:#49BDDD"/>
					<stop  offset="0.6715" style="stop-color:#45D5DF"/>
					<stop  offset="0.8493" style="stop-color:#43E3E0"/>
					<stop  offset="1" style="stop-color:#42E8E0"/>
				</linearGradient>
				<path class="st37" d="M-669.4,195c-0.4-1.5-0.8-3.1-1.1-4.7c0,0-1.1,11.1-1.7,15.6c0,0,0.6,6.6-1.1,9.3c-1.1,1.7-4.8,2.6-8,1.8
					c3.4,1.6,8.2,0.7,9.5-1.3c1.8-2.7,1.1-9.3,1.1-9.3C-670.3,203.7-669.7,198.6-669.4,195z"/>
				
					<linearGradient id="SVGID_19_" gradientUnits="userSpaceOnUse" x1="-675.1995" y1="452.0646" x2="-645.4417" y2="452.0646" gradientTransform="matrix(1 0 0 -1 0 630)">
					<stop  offset="0" style="stop-color:#5761D7"/>
					<stop  offset="7.257640e-02" style="stop-color:#5472D8"/>
					<stop  offset="0.2791" style="stop-color:#4E9CDB"/>
					<stop  offset="0.4801" style="stop-color:#49BDDD"/>
					<stop  offset="0.6715" style="stop-color:#45D5DF"/>
					<stop  offset="0.8493" style="stop-color:#43E3E0"/>
					<stop  offset="1" style="stop-color:#42E8E0"/>
				</linearGradient>
				<path class="st38" d="M-645.4,149.2l-19.9-14.1l-9.1-11.6c0,0-0.3,0.2-0.7,0.5l8.3,10.6l19.9,14.1c0,0,0.3,9.1-2.8,21.8
					c-3,12.6-2.7,21.4-2.7,21.4s3.2,14.3,0.4,24c-2.8,9.7-5.2,12.5-5.2,12.5s-3.4,4.5-8.5,3.3c5.8,2.7,10-2.8,10-2.8
					s2.4-2.7,5.2-12.5c2.8-9.7-0.4-24-0.4-24s-0.4-8.8,2.7-21.4C-645.2,158.4-645.4,149.2-645.4,149.2z"/>
			</g>
			<path class="st35" d="M-681.4,167.9c-2.6-3.2-4.1-13-4.1-13s4.1,8.3,7,10.7s5.5,7.3,6,10.4c0.5,3.2,3.5,14.9,3.5,14.9
				s-1.1,11.1-1.7,15.6c0,0,0.6,6.6-1.1,9.3c-0.4,0.5-1,1-1.7,1.3c0-0.1,0.4-14.7,0-20.9C-673.9,190-678.8,171.1-681.4,167.9z"/>
			<path class="st39" d="M-621.2,81.8c0,0,7,13.6,7.7,14.7c0.7,1.1,13.7,17.7,15,27.3c0,0,1,3.7-3.5,7s-27.1,17.7-28.5,17.9
				s-9.6-3.8-10-12.8c0,0,17.7-8.3,21.6-12.4c0,0-6.9-11.6-10.3-15c-0.8-0.9-1.3-2.4-1.6-4.3c-1.1-7.6,1.9-15.3,7.6-20.5
				L-621.2,81.8z"/>
			<path class="st36" d="M-673.2,50c0,0-10.8,4-14.5,2.6s-12.7-2.5-18.9-6s-33.3-10.5-37.3-10.7c0,0-0.1,0.2,0.6,0.4
				c0.7,0.3,3.5,0.5,4.2,3.7c0.8,3.2-0.9,6.9-1.4,7.2c-0.5,0.3-0.7-0.9-3.3-2.1S-748,44-748,44l-1,1.2l-0.6,0.9c0,0,1.3,3.8,4.7,4.1
				c3.5,0.3,25.8,9.6,27.2,10c1.4,0.4,20.1,8.5,23.6,9.7c3.5,1.3,6.2,2.9,6.2,2.9s10.9-7.3,11.3-7.3C-676.2,65.6-673.2,50-673.2,50z
				"/>
			<path class="st40" d="M-770.7,31.3c0.5,0.1,6.1,2,6.1,2s-2.2,1.2-2.5,2.2c-0.2,1,0.5,6.7,0.7,7.1s1.4,1.1,1.7,1.3
				c0.4,0.2,1.2,2.2,2,1.9c0.8-0.2,1.1-1.3,1.1-1.3s0.6-0.3,0.8-0.4c0.2-0.1,4.2,0.2,5.6,1.1c1.3,0.9,4.4,1.3,5.6,0.9
				s3.1-1.3,3.5-1.5c0,0,1.4,0.2,2.2,0.6s3.2,2.1,3.6,2.2c0.4,0.1,5.4-9.7-3.6-11.6c0,0-3.7-0.3-5.3-1.1c-1.6-0.8-6.2-4.3-7.8-4.3
				c-1.7-0.1-3.4,0.5-3.4,0.5s-10.2-2.9-11-2C-772.4,29.8-771.1,31.2-770.7,31.3z M-763.3,38.1c1.2,0,2-1.2,2-1.2
				c0.8,0.5,1.6-0.1,1.6-0.1c0,0.2,1.4,0.4,1.4,0.4s0.6,0.5,1.4,1.1s-0.3,2.3-0.3,2.3c-0.8,0.1-1.7-0.3-2.4-0.7
				c-0.7-0.4-1.4-0.3-1.9-0.5C-762,39.2-763.3,38.1-763.3,38.1z"/>
			<path class="st35" d="M-691.6,138.5c0.9-3.3,17.1-15,17.1-15l4.5,5.8l3.9,15.1l20.6,6.4l0,0c0,0-1.1,10.3-17.9,9.1
				c-16.8-1.2-18.8-14.2-18.8-14.2s-1.9,4.3-10.1,5.4C-692.5,144.2-692.2,140.6-691.6,138.5z"/>
			<path class="st41" d="M-641.6,58.4l2.8,7.3c0,0,13.7,11.8,17.6,16.1c0,0-6.8,13-8,26.6c0,0-6.3,5.1-8.1,7.4
				c-1.9,2.3-6.7,13.2-8.2,16.8s2.7,14.3,2.7,14.3s-5.8,10.7-15.2,10.4c-9.4-0.4-15.7-6.1-16.9-16.2c-1.2-10.2-0.8-11.6-0.8-11.6
				s-4.2,12.5-10.6,12.5c-6.4,0-16.5-10.8-16.5-10.8s-6.8-6.2-6.2-9s16.1-27.1,16.9-31c0.8-4,4.3-18.3,4.3-18.3l14.6-22.9l8.9,0.4
				L-641.6,58.4z"/>
			<g>
				
					<linearGradient id="SVGID_20_" gradientUnits="userSpaceOnUse" x1="-675.0665" y1="481.382" x2="-642.8193" y2="481.382" gradientTransform="matrix(1 0 0 -1 0 630)">
					<stop  offset="0" style="stop-color:#5761D7"/>
					<stop  offset="7.257640e-02" style="stop-color:#5472D8"/>
					<stop  offset="0.2791" style="stop-color:#4E9CDB"/>
					<stop  offset="0.4801" style="stop-color:#49BDDD"/>
					<stop  offset="0.6715" style="stop-color:#45D5DF"/>
					<stop  offset="0.8493" style="stop-color:#43E3E0"/>
					<stop  offset="1" style="stop-color:#42E8E0"/>
				</linearGradient>
				<path class="st42" d="M-658.4,154.9c-9-0.3-15.1-5.6-16.7-15c0,0.4,0.1,0.9,0.2,1.3c1.2,10.2,7.6,15.9,16.9,16.2
					c9.4,0.4,15.2-10.4,15.2-10.4s-0.3-0.8-0.7-2C-644.9,147.2-650.3,155.2-658.4,154.9z"/>
			</g>
			<path class="st43" d="M-641.6,58.4c0,0,0.1,4.3-1.6,8.7c-1.7,4.3-7.3,28.6-20,36.9l-4.9,3.1V91.6c0,0,0.1-9.5,2.3-15.5
				s2.1-13.4,2.1-13.4s3.6-1,3.6-0.9C-660.3,61.9-641.6,58.4-641.6,58.4z"/>
			<path class="st40" d="M-657.3,69.7c0,0-2.3,0.9-3.2-0.6c-1-1.5-2-4.4-1.7-5.8c0,0-6,0.3-7.2-2.9c-1.2-3.2,0.1-4,0.3-5
				s0.4-3.6,1.2-5.4l0.1-0.8c0,0-1.2-1.1-0.7-2.2c0.6-1.1,3.8-4.5,4.2-5.1c0.3-0.6-0.1-4.8,1.2-7c1.3-2.1,3.7-5.1,3.7-5.1
				s12.8-10,22.9,0c10.1,10-5.1,28.4-5.1,28.4s-1.2,5.9-4.2,8.3C-648.7,69.1-657.3,69.7-657.3,69.7z"/>
			<path class="st44" d="M-647.9,45.4c0-0.4,0-0.7,0.2-1.1c0.4-1.1,1-4.1-2.1-6.3c-3.9-2.8-10.7-5.3-10.4-8.1
				c0.2-2.8,10.9-9.7,18.9-6c7.9,3.7,15.3,13.1,10,23.1c-5.4,10-10.2,11.6-10.2,11.6s-1.6-0.3-0.2-2c1.4-1.7,4.1-5.8,1.9-7.1
				c-2.2-1.3-6,1.5-6.5,2.2c-0.2,0.2-0.4,0.6-0.6,0.8c-0.3,0.5-0.9,0.7-1.4,0.4l-0.2-0.1c-0.5-0.2-0.7-0.8-0.5-1.3l0.9-2.6
				c0.1-0.4,0.2-0.8,0.2-1.2L-647.9,45.4z"/>
			<path class="st45" d="M-657,72.5c0,0,2.9,2,4.5,5.9c0,0-3-3.2-4.8-3.8c0,0-3.4,1.6-3.4,2.6c0,1.1-0.3,7.4-1.1,10.7
				c-0.8,3.4-0.7,15.3-0.7,15.3l-2.1,1.4l-1-5.2l0.4-11.1l2-10.1c0,0,0.4-3.8,0.5-4C-662.5,74-657,72.5-657,72.5z"/>
			<path class="st36" d="M-657,72.5c0,0-3.3-3.5-4.9-3.5c-1.6-0.1-2.5,0.8-2.6,1c0,0.2-1.6,5.6-1.6,5.6s-3.1,9.5-2.8,20.5
				s0.6,10.9,0.6,10.9l4-2.6c0,0-1.1-7.9,1.1-17c2.2-9.1,0.3-10.5,1.3-11.5C-660.7,75.1-656.5,73.6-657,72.5z"/>
			<path class="st36" d="M-637.3,115.9c-1.9,2.3-6.6,13.2-8.1,16.8c-0.2,0.6-0.4,1.4-0.4,2.2c-0.4,0.2-0.6,0.4-0.6,0.4l-2-2
				c0,0,1.8-6.6,4.8-14.8c2.9-8.2,14.6-10,14.6-10S-635.5,113.6-637.3,115.9z"/>
			<path class="st40" d="M-640.5,136.2c0,0-3.3-4.8-4.4-5.5c0,0,0.2,1.4-1.6,2.2c-1.9,0.8-11.8,4.7-12.1,5.1c-0.3,0.4,0,1,0.7,1.1
				c0,0-2,0.7-2.9,0.7c-0.8,0-2,1.1-1.4,2s1,0.8,1,0.8s-0.2,1,0.4,1.2c0.6,0.2,2.1,0.3,2.1,0.3s-0.3,1,0.5,1.4s4.8,0.8,4.8,0.8
				s3.1-0.3,4-0.4c0.9,0,5,1,6.7,0.7c1.7-0.2,7.5-2.3,8-2.6C-634.1,143.8-640.5,136.2-640.5,136.2z"/>
			<path class="st36" d="M-638.1,68.1l-0.4,6.5l-3.5,1.1l2.4,1.9c0,0-9.5,21.7-21.7,28.6c0,0,11.6-4.1,22.6-28.4
				c0,0-1.2-1.4-1.5-1.8l2.5-1.1L-638.1,68.1z"/>
			<path class="st36" d="M-669.3,67.4c0,0-4.3,22.1-0.6,38.8c0,0-4.4-8-0.4-38.8H-669.3z"/>
			<path class="st46" d="M-766.8,35c0.6-0.9,2.2-1.7,2.2-1.7s4.6,1.9,5.4,2.2C-759.2,35.6-763.9,35.1-766.8,35z"/>
			<path class="st46" d="M-740.3,47.5c-0.2-0.1-0.9-0.5-1.7-1l0,0c3.1-4.1-0.3-10.1-0.3-10.1C-735.6,39-740,47.6-740.3,47.5z"/>
			<path class="st46" d="M-634.7,144.2c-0.4,0.3-3.7,1.4-6.1,2.1c0,0-1.5-6-1.2-8s1.2-2.5,1.2-2.5c0.1,0.2,0.2,0.3,0.2,0.3
				S-634.1,143.8-634.7,144.2z"/>
			<path class="st39" d="M-640.5,135.9c0,0-1,3.5,1.3,6.1c2.3,2.7,2.6,3,2.6,3h2.7c0,0,1.4-4.2,1.2-4.3S-640.5,135.9-640.5,135.9z"
				/>
			<path class="st36" d="M-665.5,73.9L-665.5,73.9c0,0-2.6,15.2-2,20.8s0.4,11.6,0.4,11.6l-0.8,0.7l-0.2,0.2c0,0-0.3,0.1-0.6-10.9
				s2.8-20.5,2.8-20.5S-665.8,74.8-665.5,73.9z"/>
			<g>
				<path class="st35" d="M-666.4,231.4c-0.7-0.4-1.5-1-2.3-1.7c0,0,4.1-13.4,4.6-24c0,0-3.6-7.8-4.9-14.8c0.3,1.4,4.6,8.9,6.5,16.6
					C-660.5,215.1-666.4,231.4-666.4,231.4z"/>
			</g>
			<g>
				<path class="st46" d="M-647.5,56C-647.5,56-647.5,55.9-647.5,56C-647.5,55.9-647.5,56-647.5,56z"/>
				<path class="st46" d="M-647.5,56c-0.1,0.4-1.2,5.8-3.4,8.3c-2.3,2.6-4,5.2-4,5.2c-1.4,0.2-2.4,0.3-2.4,0.3s-2.3,0.9-3.2-0.6
					c-1-1.5-2-4.4-1.7-5.8c0,0,8.1-0.8,11.2-3C-648.1,58.4-647.6,56.3-647.5,56z"/>
			</g>
			<path class="st47" d="M-644.6,130.7c0,0-0.4,0.9-0.5,1s-0.2-0.7-0.2-0.7l0.4-0.8C-644.9,130.3-644.6,130.7-644.6,130.7z"/>
			<path class="st36" d="M-668.2,107.1c0,0-5.7,18.1-7.6,22.5l0.1,4.4C-675.6,133.9-668.4,111.4-668.2,107.1z"/>
			<path class="st36" d="M-673.7,113.5c-0.3,1.1,0.2,2.2,1.2,2.5s2-0.3,2.4-1.4c0.3-1.1-0.2-2.2-1.2-2.5
				C-672.3,111.9-673.4,112.5-673.7,113.5z"/>
			<path class="st36" d="M-676.5,121.3c-0.3,1.1,0.2,2.2,1.2,2.5s2-0.3,2.4-1.4c0.3-1.1-0.2-2.2-1.2-2.5
				C-675.2,119.7-676.2,120.3-676.5,121.3z"/>
		</g>
		<path class="st48" d="M-648.1,48.7c0.1-0.4,0.2-0.8,0.2-1.2v-2.2c0-0.4,0-0.7,0.2-1.1c0.1-0.3,0.2-0.8,0.3-1.3
			c0,0,8.8,6.4,14.4,6.7c-4.7,7.5-8.6,8.8-8.6,8.8s-1.6-0.3-0.2-2c1.4-1.7,4.1-5.8,1.9-7.1c-2.2-1.3-6,1.5-6.5,2.2
			c-0.2,0.2-0.4,0.6-0.6,0.8c-0.3,0.5-0.9,0.7-1.4,0.4l-0.2-0.1c-0.5-0.2-0.7-0.8-0.5-1.3L-648.1,48.7z"/>
	</g>
	<g>
		<g>
			<path class="st35" d="M-631.4,285.4c0,0-4,1-7.8,1.1c-3.9,0.2-14.3,2.3-14.1,6.2c0.3,3.9,5.7,9.6,12.6,10.4
				c6.9,0.8,15.7-1.1,20.2-1s7.6-4.5,5.8-8.8C-616.5,288.9-631.4,285.4-631.4,285.4z"/>
			<path class="st35" d="M-608.2,274.8c0,0,1.5,2.4,0.8,3.8c-0.7,1.5-2.6,5.1-8.9,1.6c-6.2-3.5-18.3-8.5-18.3-8.5s-6.9-3.7-6.5-8
				s6.7-3.7,6.7-3.7L-608.2,274.8z"/>
			<path class="st36" d="M-649,213.3c0,0,2.7,28.2,8.3,38.9c5.8,10.9,7.3,30.7,8.5,34.5s4.9,9.3,10.8,10.5c5.9,1.2,6.8-2.8,6.6-5.2
				c-0.3-2.4-1.9-6.3-1.9-8.9s0.6-3.8,0.7-5c0,0,6.7,2,7.8-3.2c0,0-0.5-1.5-0.6-2.3s0.6-19.6,0.7-21.9c0.2-2.3-1.1-14.6-2.9-20.7
				c-1.9-6-1.2-18.8-1.2-18.8l-19.2-2.7L-649,213.3z"/>
			
				<linearGradient id="SVGID_21_" gradientUnits="userSpaceOnUse" x1="-635.5103" y1="403.7578" x2="-615.9578" y2="403.7578" gradientTransform="matrix(0.9962 -8.730000e-02 -8.730000e-02 -0.9962 41.1327 601.7954)">
				<stop  offset="0" style="stop-color:#5761D7"/>
				<stop  offset="7.257640e-02" style="stop-color:#5472D8"/>
				<stop  offset="0.2791" style="stop-color:#4E9CDB"/>
				<stop  offset="0.4801" style="stop-color:#49BDDD"/>
				<stop  offset="0.6715" style="stop-color:#45D5DF"/>
				<stop  offset="0.8493" style="stop-color:#43E3E0"/>
				<stop  offset="1" style="stop-color:#42E8E0"/>
			</linearGradient>
			<path class="st49" d="M-611.1,229.9c-1.9-6-1.2-18.8-1.2-18.8l-1.7-0.2c-0.1,1.8-0.5,13,1.2,18.6c1.9,6.1,3.1,18.4,2.9,20.7
				c-0.2,2.3-0.9,21.1-0.8,21.9c0.1,0.8,0.6,2.3,0.6,2.3c-1,5.2-7.8,3.2-7.8,3.2c-0.1,1.2-0.7,2.4-0.7,5s1.6,6.5,1.9,8.9
				c0.3,2.4-0.7,6.4-6.6,5.2c-0.2,0-0.3-0.1-0.5-0.2c0.7,0.3,1.5,0.6,2.3,0.7c5.9,1.2,6.8-2.8,6.6-5.2c-0.3-2.4-1.9-6.3-1.9-8.9
				s0.6-4,0.7-5.2c0,0,6.7,2.2,7.8-3c0,0-0.5-1.5-0.6-2.3s0.6-19.6,0.7-21.9C-608,248.3-609.2,236-611.1,229.9z"/>
			<path class="st35" d="M-618,213.1c0,0-0.1,4.4-1.9,8.1c0,0,0,15-1.5,22.6c0,0,2.5,15.2,4,20c1.6,4.8,1.4,14.3,1.4,14.3
				s0.8,0.3,1.9,0.3c1.1,0,1.2-18.6-0.5-21.9s-3-17.8-2.3-22.3c0.6-4.4,0.4-17,1.2-19.2s-1-3.4-1-3.4L-618,213.1z"/>
			<path class="st35" d="M-634.1,111.4c0,0-5.6,4-5.3,11l4.1-0.9C-635.3,121.5-636.5,113.8-634.1,111.4z"/>
			<path class="st35" d="M-632,219.3c12.7,0.4,19.6-5.2,19.6-5.2c0-1.8,0.1-2.9,0.1-2.9l-19.2-2.7l-17.5,4.9c0,0,0.5,5.6,1.6,12.7
				c3.1,0.3,6.2-7.3,6.2-7.3l8.7,0.6C-632.5,219.2-644.7,218.9-632,219.3z"/>
			<path class="st41" d="M-646.5,213.7c0,0,27.6,11.3,41-10.1c0.4-0.6,0.6-1.4,0.5-2.1l-0.2-5c0-0.6,0.1-1.3,0.3-1.8l0,0
				c0.4-1.3,0.5-2.6,0.3-4c-1-5.6-3.8-20.7-4.5-24.9c-0.8-5.1,1.9-25.6,6.5-34.5c4.5-8.8-7.1-28.5-7.1-28.5s-2.8-4.6-8.4-3
				c0,0,5.3,3.7,2.4,7.6c-2.9,4-11.7,7.1-11.7,7.1s-16.1,8.4-21.7,18.6c0,0-1.9,5.3-2.1,12c-0.2,6.8,0.6,23.1,0.3,25.3
				c-0.3,2.3-1.1,17.8-1.1,18.5C-651.8,189.6-646.5,213.7-646.5,213.7z"/>
			<g>
				
					<linearGradient id="SVGID_22_" gradientUnits="userSpaceOnUse" x1="-612.9136" y1="556.2233" x2="-610.1616" y2="556.2233" gradientTransform="matrix(0.9962 -8.730000e-02 -8.730000e-02 -0.9962 41.1327 601.7954)">
					<stop  offset="0" style="stop-color:#5761D7"/>
					<stop  offset="7.257640e-02" style="stop-color:#5472D8"/>
					<stop  offset="0.2791" style="stop-color:#4E9CDB"/>
					<stop  offset="0.4801" style="stop-color:#49BDDD"/>
					<stop  offset="0.6715" style="stop-color:#45D5DF"/>
					<stop  offset="0.8493" style="stop-color:#43E3E0"/>
					<stop  offset="1" style="stop-color:#42E8E0"/>
				</linearGradient>
				<path class="st50" d="M-615.5,102.6c0.4-1.1,0.3-2.2-0.1-3.1c-0.8,0-1.6,0-2.5,0.3C-618.1,99.7-616.5,100.9-615.5,102.6z"/>
				<path class="st36" d="M-638.2,216c0,0,16.3-43.9,15.5-59.9c-0.8-15.5-23.7,31.5-23.7,31.5l-0.1,26.1
					C-646.5,213.7-641.3,215.6-638.2,216z"/>
				
					<linearGradient id="SVGID_23_" gradientUnits="userSpaceOnUse" x1="-654.3251" y1="458.3373" x2="-607.3483" y2="458.3373" gradientTransform="matrix(0.9962 -8.730000e-02 -8.730000e-02 -0.9962 41.1327 601.7954)">
					<stop  offset="0" style="stop-color:#5761D7"/>
					<stop  offset="7.257640e-02" style="stop-color:#5472D8"/>
					<stop  offset="0.2791" style="stop-color:#4E9CDB"/>
					<stop  offset="0.4801" style="stop-color:#49BDDD"/>
					<stop  offset="0.6715" style="stop-color:#45D5DF"/>
					<stop  offset="0.8493" style="stop-color:#43E3E0"/>
					<stop  offset="1" style="stop-color:#42E8E0"/>
				</linearGradient>
				<path class="st51" d="M-605.4,190.3c-0.2,0.6-0.3,1.2-0.3,1.8l0.2,5c0,0.7-0.2,1.5-0.5,2.1c-13.3,21.2-40.8,10-40.8,10
					s-3.8-17.3-5-22.9c-0.1,1.4-0.1,2.3-0.1,2.5c0.1,0.7,5.4,24.8,5.4,24.8s27.6,11.3,41-10.1c0.4-0.6,0.6-1.4,0.5-2.1l-0.2-5
					c0-0.6,0.1-1.3,0.3-1.8c0.4-1.3,0.5-2.6,0.3-4c-0.1-0.6-0.2-1.3-0.4-2.1C-605.1,189.2-605.2,189.8-605.4,190.3z"/>
				
					<linearGradient id="SVGID_24_" gradientUnits="userSpaceOnUse" x1="-609.797" y1="513.8887" x2="-598.6967" y2="513.8887" gradientTransform="matrix(0.9962 -8.730000e-02 -8.730000e-02 -0.9962 41.1327 601.7954)">
					<stop  offset="0" style="stop-color:#5761D7"/>
					<stop  offset="7.257640e-02" style="stop-color:#5472D8"/>
					<stop  offset="0.2791" style="stop-color:#4E9CDB"/>
					<stop  offset="0.4801" style="stop-color:#49BDDD"/>
					<stop  offset="0.6715" style="stop-color:#45D5DF"/>
					<stop  offset="0.8493" style="stop-color:#43E3E0"/>
					<stop  offset="1" style="stop-color:#42E8E0"/>
				</linearGradient>
				<path class="st52" d="M-603.1,127.3c-4.6,8.8-7.3,29.2-6.5,34.3c0.1,0.5,0.2,1.1,0.3,1.8c0-7.4,2.6-24.3,6.6-32.2
					c1.3-2.5,1.2-5.8,0.6-9.3C-602,123.9-602.3,125.8-603.1,127.3z"/>
			</g>
			<path class="st39" d="M-646.9,164.1c0.6-3.6,0.9-7.2,1-10.8c0.1-6.2,1.8-16.6,13.1-14.8c16,2.5,9.1,24.9,7.4,28.8
				c-1.8,3.9-8.8,21.7-9.1,22.7c-0.3,0.9-11.4,23.1-15.3,28.4c-0.4,0.5-1,0.6-1.4,0.2c-1.6-1.4-5.2-4.6-5.7-6.7
				c-0.6-2.6,1.7-12.2,1.7-12.2s6.2-23.9,6.7-25C-648.2,173.8-647.9,169.9-646.9,164.1z"/>
			<path class="st40" d="M-633.9,111.9c0,0-1.3-2.9-4.2-3.2s-4.6-1.1-4.9-2.2c-0.3-1.1-0.3-2.4-1-4s-1.3-5.6-1.3-5.7
				c0-0.1-2.2-0.8-2.3-1.7c-0.1-1,1-4.5,0.9-4.7c-0.1-0.3-1.3-2.4-1.2-4.1c0.2-1.7,0.4-4.1,1.3-6.1c0.9-2,7.1-14.4,23.3-8
				c16.3,6.5,3.9,20.2,5.5,29.1c0,0,1.5,1.9-1.2,5.1C-621.7,109.4-629.4,110.1-633.9,111.9z"/>
			<path class="st46" d="M-619,106.2c2.7-3.2,1.2-5.1,1.2-5.1c-0.2-1.2-0.2-2.6,0-4l-6.4,1.2c0,0-9.4-8.4-8.8-3.9
				c0.7,4.5-1.6,5.3-1.6,5.3l1.9,2.5c0.5,0.6,0.2,1.4-0.2,2.1c-2.7,4.6-9.2,3.2-9.3,3.2c0.8,0.5,2.2,0.9,4,1.1
				c2.9,0.3,4.2,3.2,4.2,3.2C-629.4,110.1-621.7,109.4-619,106.2z"/>
			<g>
				<path class="st44" d="M-647.3,75.5c0,0-1.1,3.3,0.7,4.7s3.5,2.7,3.5,2.7v4.2c0,0.6,0.2,1.2,0.5,1.7l2.3,3.6
					c0.4,0.7,0.7,1.5,0.7,2.3v1.7c0,0.5,0.4,0.9,0.9,1l0.6,0.1c0.5,0.1,1-0.3,1.1-0.9l0.3-2.4c0,0,1.2-1.9,3.9,0.4l2.4,1
					c0.7,0.3,1.2,0.8,1.4,1.5c0.7,1.8,2.1,5.5,3.2,6.1c1.4,0.8,7-2.1,7.8-3.4c0.7-1.3,2.6-9.8,3.8-13.9c1.2-4,0.5-14-11.6-16.6
					C-637.9,66.8-645.6,71.8-647.3,75.5z"/>
				<path class="st48" d="M-618.1,99.7c0.7-1.3,2.6-9.8,3.8-13.9c0,0-4.7,3.1-10.7,4c-6.1,0.9-18-5.9-18-5.9V87
					c0,0.6,0.2,1.2,0.5,1.7l2.3,3.6c0.4,0.7,0.7,1.5,0.7,2.3v1.7c0,0.5,0.4,0.9,0.9,1l0.6,0.1c0.5,0.1,1-0.3,1.1-0.9l0.3-2.4
					c0,0,1.2-1.9,3.9,0.4l3.4,1.4c0,0,2.1,6.3,3.5,7.1C-624.5,103.9-618.9,101-618.1,99.7z"/>
			</g>
			<path class="st43" d="M-617.9,100.1c0,0,4.7,2.9,2.3,7c-2.3,4.1-19.3,11.4-20.2,12.5c0,0-0.7-6.1,1.6-8.2c0,0,13-2.5,15-5.8
				C-617.1,102.3-617.9,100.1-617.9,100.1z"/>
			<path class="st45" d="M-617.9,100.1c0,0,0.8,2.1-1.2,5.4c-1.5,2.5-9.3,4.6-13,5.4l0,0c0,0,1.4,0.8,3.7,4.7
				c5.2-2.7,11.6-6.2,12.9-8.6C-613.2,103-617.9,100.1-617.9,100.1z"/>
			<path class="st36" d="M-614.7,113.2c0,0-7.6,4.3-11.2,6.3c-3.7,2-7.7,4.6-7.7,4.6l-1.4-1.4l-1.7,3.7c0,0-5.8,3.5-8.5,6.4
				s-4.8,6.7-5.1,7.6c0,0,7.2-9.5,13-12.3l1.5-0.8l0.9-3l1.4,1.5C-633.6,125.8-617,115.8-614.7,113.2z"/>
		</g>
		<g>
			
				<linearGradient id="SVGID_25_" gradientUnits="userSpaceOnUse" x1="-679.0957" y1="414.2524" x2="-641.1165" y2="414.2524" gradientTransform="matrix(0.9962 -8.730000e-02 -8.730000e-02 -0.9962 41.1327 601.7954)">
				<stop  offset="0" style="stop-color:#5761D7"/>
				<stop  offset="7.257640e-02" style="stop-color:#5472D8"/>
				<stop  offset="0.2791" style="stop-color:#4E9CDB"/>
				<stop  offset="0.4801" style="stop-color:#49BDDD"/>
				<stop  offset="0.6715" style="stop-color:#45D5DF"/>
				<stop  offset="0.8493" style="stop-color:#43E3E0"/>
				<stop  offset="1" style="stop-color:#42E8E0"/>
			</linearGradient>
			<path class="st53" d="M-634.2,241.5L-634.2,241.5L-634.2,241.5c-0.2-0.7-0.6-1.3-1-1.6l-31.1-26.1c-0.8-0.7-1.6-0.2-1.8,1.2
				l-3.6,30.4c-0.2,1.4,0.4,3.1,1.2,3.9l26.1,22.6l-0.9,8.8l7.8-3.6l0,0c0.4-0.2,0.6-0.7,0.7-1.5l2.9-31.8
				C-633.9,243-634,242.2-634.2,241.5z"/>
			<path class="st41" d="M-674.8,216.7l7.4-3.2l0.2-0.1c0.3-0.1,0.6,0,0.9,0.3l31.1,26.1c0.4,0.4,0.8,0.9,1,1.6l-1.1,0.5l0,0
				l-6.3,3.1l-27.3-23.2l0,0L-674.8,216.7z"/>
			<path class="st36" d="M-678.2,252.6l31.8,27.7c0.9,0.8,1.7,0.2,1.8-1.3l3.1-31.9c0.1-1.4-0.4-3.1-1.3-3.8l-31-26.2
				c-0.8-0.7-1.6-0.2-1.8,1.2l-3.8,30.5C-679.6,250.1-679,251.8-678.2,252.6z"/>
			<path class="st35" d="M-640.6,277.1l3-31.8c0.1-1.4-0.5-3.1-1.3-3.8l-31.1-26.2c-0.3-0.2-0.5-0.3-0.7-0.3c0.3-0.1,0.6-0.1,1,0.2
				l31.1,26.2c0.9,0.7,1.4,2.4,1.3,3.8l-3,31.8c-0.1,1-0.5,1.6-1,1.7C-640.9,278.5-640.7,278-640.6,277.1z"/>
			<g>
				<g>
					<path class="st35" d="M-652,230.2l1.6-0.8c0.4-0.2,0.7-0.2,1-0.2h0.1c0.2,0,0.2,0.2,0.2,0.5v0.3l-4.6,2.3V232
						c0-0.2,0.2-0.5,0.3-0.7l0.2-0.2C-652.7,230.7-652.3,230.4-652,230.2z"/>
					<polygon class="st35" points="-651.4,234.2 -653.6,232.3 -649.1,229.4 -646.9,231.2 					"/>
					
						<linearGradient id="SVGID_26_" gradientUnits="userSpaceOnUse" x1="-657.7906" y1="428.0542" x2="-652.9568" y2="428.0542" gradientTransform="matrix(0.9962 -8.730000e-02 -8.730000e-02 -0.9962 41.1327 601.7954)">
						<stop  offset="0" style="stop-color:#5761D7"/>
						<stop  offset="7.257640e-02" style="stop-color:#5472D8"/>
						<stop  offset="0.2791" style="stop-color:#4E9CDB"/>
						<stop  offset="0.4801" style="stop-color:#49BDDD"/>
						<stop  offset="0.6715" style="stop-color:#45D5DF"/>
						<stop  offset="0.8493" style="stop-color:#43E3E0"/>
						<stop  offset="1" style="stop-color:#42E8E0"/>
					</linearGradient>
					<path class="st54" d="M-649.8,232.1l1.6-0.8c0.4-0.2,0.7-0.2,1-0.2h0.1c0.2,0,0.2,0.2,0.2,0.5v0.3l-4.6,2.3v-0.3
						c0-0.2,0.2-0.5,0.3-0.7l0.2-0.2C-650.5,232.6-650.2,232.3-649.8,232.1z"/>
					<polygon class="st55" points="-648.8,232.9 -648.7,231.5 -648.8,231.6 -648.9,232.9 					"/>
					<polygon class="st55" points="-648.7,231.5 -650.9,229.7 -651,229.8 -648.8,231.6 					"/>
				</g>
				<g>
					<path class="st35" d="M-661.9,221.9l1.6-0.8c0.4-0.2,0.7-0.2,1-0.2h0.1c0.2,0,0.2,0.2,0.2,0.5v0.3l-4.6,2.3v-0.3
						c0-0.2,0.2-0.5,0.4-0.7l0.2-0.2C-662.6,222.4-662.2,222.1-661.9,221.9z"/>
					<polygon class="st35" points="-661.3,225.8 -663.5,224 -658.9,221.1 -656.8,222.9 					"/>
					
						<linearGradient id="SVGID_27_" gradientUnits="userSpaceOnUse" x1="-666.9336" y1="437.1866" x2="-662.1086" y2="437.1866" gradientTransform="matrix(0.9962 -8.730000e-02 -8.730000e-02 -0.9962 41.1327 601.7954)">
						<stop  offset="0" style="stop-color:#5761D7"/>
						<stop  offset="7.257640e-02" style="stop-color:#5472D8"/>
						<stop  offset="0.2791" style="stop-color:#4E9CDB"/>
						<stop  offset="0.4801" style="stop-color:#49BDDD"/>
						<stop  offset="0.6715" style="stop-color:#45D5DF"/>
						<stop  offset="0.8493" style="stop-color:#43E3E0"/>
						<stop  offset="1" style="stop-color:#42E8E0"/>
					</linearGradient>
					<path class="st56" d="M-659.7,223.8l1.6-0.8c0.4-0.2,0.7-0.2,1-0.2h0.1c0.2,0,0.2,0.2,0.2,0.5v0.3l-4.6,2.3v-0.3
						c0-0.2,0.2-0.5,0.4-0.7l0.2-0.2C-660.4,224.2-660.1,223.9-659.7,223.8z"/>
					<polygon class="st55" points="-658.7,224.5 -658.6,223.2 -658.7,223.3 -658.9,224.6 					"/>
					<polygon class="st55" points="-658.6,223.2 -660.8,221.4 -660.9,221.5 -658.7,223.3 					"/>
				</g>
				<g>
					<path class="st41" d="M-647.8,225.2l-0.6,5.7l-1.5-1.2l0.6-5.5c0.1-0.8-0.3-1.8-0.9-2.3l-6.3-5.3c-0.6-0.5-1.1-0.2-1.2,0.6
						l-0.6,5.4l-1.5-1.2l0.6-5.6c0.2-1.7,1.4-2.3,2.6-1.3l6.7,5.6C-648.5,221.1-647.6,223.4-647.8,225.2z"/>
					<path class="st41" d="M-658.7,216.1l2.6-0.3l7.5,7l0.3,4.3l-0.2,3.6l-1.7,0.8l-0.1-4.5l-0.1-3.1l-1.6-2.2c0,0-2.8-2.3-2.9-2.3
						C-654.7,219.4-658.7,216.1-658.7,216.1z"/>
					<polygon class="st41" points="-660,223.3 -658.3,222.5 -657.8,218.5 -659.4,218.6 -659.9,218.7 					"/>
					<path class="st41" d="M-659.9,214.9l1.8-0.9l-0.5,1l-0.6,0.2C-659.2,215.2-659.9,214.9-659.9,214.9z"/>
					<path class="st35" d="M-649.5,226l-0.6,5.7l-1.5-1.2l0.6-5.5c0.1-0.8-0.3-1.8-0.9-2.3l-6.3-5.3c-0.6-0.5-1.1-0.2-1.2,0.6
						l-0.6,5.5l-1.5-1.2l0.6-5.6c0.2-1.8,1.4-2.3,2.6-1.3l6.7,5.6C-650.2,221.9-649.3,224.2-649.5,226z"/>
				</g>
			</g>
		</g>
		<path class="st40" d="M-656.6,211.7c0,0-1.1,5.5-0.8,6.9s3,4.1,4.6,4.6s0.9-1.4,1.3-2.6c0.4-1.2,0.3-3.8,0.3-3.8L-656.6,211.7z"/>
		<path class="st46" d="M-651.2,216.8l-5.4-5.1c0,0-0.2,1.1-0.4,2.5c0,0,2,4.1,5.7,5.8C-651.1,218.7-651.2,216.8-651.2,216.8z"/>
		<path class="st39" d="M-657,212.1c0,0,1.9,6,6.7,6.5l-1.6-6.5c0,0-4-1.1-4.2-1.2C-656.2,211-657,212.1-657,212.1z"/>
		
			<linearGradient id="SVGID_28_" gradientUnits="userSpaceOnUse" x1="-657.6872" y1="479.1105" x2="-621.7617" y2="479.1105" gradientTransform="matrix(0.9962 -8.730000e-02 -8.730000e-02 -0.9962 41.1327 601.7954)">
			<stop  offset="0" style="stop-color:#5761D7"/>
			<stop  offset="7.257640e-02" style="stop-color:#5472D8"/>
			<stop  offset="0.2791" style="stop-color:#4E9CDB"/>
			<stop  offset="0.4801" style="stop-color:#49BDDD"/>
			<stop  offset="0.6715" style="stop-color:#45D5DF"/>
			<stop  offset="0.8493" style="stop-color:#43E3E0"/>
			<stop  offset="1" style="stop-color:#42E8E0"/>
		</linearGradient>
		<path class="st57" d="M-625.8,142c4.4,13.5-6.7,34.5-8.3,40.6c-1.6,6.2-18.5,34.8-18.5,34.8l0,0c-0.1,0.2-0.2,0.3-0.2,0.3
			c0.4,0.3,0.8,0.6,1.1,0.8c0.4,0.2,0.3,0.2,0.8,0.3l0,0c0.4,0.1,0.7-0.1,1-0.4c3.9-5.3,15-27.4,15.3-28.4c0.4-1,7.4-18.7,9.1-22.7
			C-624,164.2-619.3,149.1-625.8,142z"/>
	</g>
	<g>
		<g>
			<path class="st58" d="M-806.1,271.9c-1.2,0-2.3-0.2-3.1-0.7l-70.7-40.8c-0.9-0.5-1.4-1.3-1.4-2.1c0-1,0.7-1.9,1.9-2.6l69.7-40.3
				c2.1-1.2,5.3-1.4,7.1-0.3l70.7,40.8c0.9,0.5,1.4,1.3,1.4,2.1c0,1-0.7,1.9-1.9,2.6l-69.7,40.3
				C-803.2,271.6-804.7,271.9-806.1,271.9z M-808.7,270.2c1.5,0.9,4.3,0.7,6-0.3l69.7-40.3c0.8-0.5,1.3-1.1,1.3-1.7s-0.5-1-0.9-1.2
				l-70.7-40.8c-1.5-0.9-4.3-0.7-6,0.3l-69.7,40.3c-0.8,0.5-1.3,1.1-1.3,1.7s0.5,1,0.9,1.2L-808.7,270.2z"/>
			<g>
				<g>
					
						<linearGradient id="SVGID_29_" gradientUnits="userSpaceOnUse" x1="-918.2292" y1="405.7375" x2="-725.8823" y2="405.7375" gradientTransform="matrix(1 0 0 -1 0 630)">
						<stop  offset="0" style="stop-color:#5761D7"/>
						<stop  offset="0.1645" style="stop-color:#5E67DA"/>
						<stop  offset="0.4051" style="stop-color:#727AE2"/>
						<stop  offset="0.6924" style="stop-color:#9297EE"/>
						<stop  offset="1" style="stop-color:#BCBEFF"/>
					</linearGradient>
					<polygon class="st59" points="-731,198.3 -731,207 -806.1,250.3 -881.1,207 -881.1,198.3 					"/>
					<polygon class="st60" points="-806.1,241.6 -881.1,198.3 -806.1,155 -731,198.3 					"/>
					<polygon class="st6" points="-806.1,240.6 -880.2,197.8 -881.1,198.3 -806.1,241.6 -731,198.3 -731.9,197.8 					"/>
				</g>
				<g>
					<polygon class="st61" points="-806.1,231.6 -863.8,198.3 -806.1,165 -748.3,198.3 					"/>
					<g>
						
							<linearGradient id="SVGID_30_" gradientUnits="userSpaceOnUse" x1="-863.8071" y1="431.7375" x2="-748.3071" y2="431.7375" gradientTransform="matrix(1 0 0 -1 0 630)">
							<stop  offset="0" style="stop-color:#42E8E0"/>
							<stop  offset="0.1507" style="stop-color:#43E3E0"/>
							<stop  offset="0.3285" style="stop-color:#45D5DF"/>
							<stop  offset="0.5199" style="stop-color:#49BDDD"/>
							<stop  offset="0.7209" style="stop-color:#4E9CDB"/>
							<stop  offset="0.9274" style="stop-color:#5472D8"/>
							<stop  offset="1" style="stop-color:#5761D7"/>
						</linearGradient>
						<polygon class="st62" points="-806.1,231.6 -863.8,198.3 -806.1,165 -748.3,198.3 						"/>
						<g>
							
								<linearGradient id="SVGID_31_" gradientUnits="userSpaceOnUse" x1="-806.1071" y1="452.5875" x2="-748.3803" y2="452.5875" gradientTransform="matrix(1 0 0 -1 0 630)">
								<stop  offset="0" style="stop-color:#42E8E0"/>
								<stop  offset="0.1507" style="stop-color:#43E3E0"/>
								<stop  offset="0.3285" style="stop-color:#45D5DF"/>
								<stop  offset="0.5199" style="stop-color:#49BDDD"/>
								<stop  offset="0.7209" style="stop-color:#4E9CDB"/>
								<stop  offset="0.9274" style="stop-color:#5472D8"/>
								<stop  offset="1" style="stop-color:#5761D7"/>
							</linearGradient>
							<polygon class="st63" points="-806.1,156.6 -748.3,189.9 -748.3,198.3 -806.1,165 							"/>
							
								<linearGradient id="SVGID_32_" gradientUnits="userSpaceOnUse" x1="-863.8071" y1="452.5875" x2="-806.1071" y2="452.5875" gradientTransform="matrix(1 0 0 -1 0 630)">
								<stop  offset="0" style="stop-color:#42E8E0"/>
								<stop  offset="0.1507" style="stop-color:#43E3E0"/>
								<stop  offset="0.3285" style="stop-color:#45D5DF"/>
								<stop  offset="0.5199" style="stop-color:#49BDDD"/>
								<stop  offset="0.7209" style="stop-color:#4E9CDB"/>
								<stop  offset="0.9274" style="stop-color:#5472D8"/>
								<stop  offset="1" style="stop-color:#5761D7"/>
							</linearGradient>
							<polygon class="st64" points="-806.1,165 -863.8,198.3 -863.8,189.9 -806.1,156.6 							"/>
							
								<linearGradient id="SVGID_33_" gradientUnits="userSpaceOnUse" x1="-863.8071" y1="440.1375" x2="-748.3071" y2="440.1375" gradientTransform="matrix(1 0 0 -1 0 630)">
								<stop  offset="0" style="stop-color:#42E8E0"/>
								<stop  offset="0.1507" style="stop-color:#43E3E0"/>
								<stop  offset="0.3285" style="stop-color:#45D5DF"/>
								<stop  offset="0.5199" style="stop-color:#49BDDD"/>
								<stop  offset="0.7209" style="stop-color:#4E9CDB"/>
								<stop  offset="0.9274" style="stop-color:#5472D8"/>
								<stop  offset="1" style="stop-color:#5761D7"/>
							</linearGradient>
							<polygon class="st65" points="-806.1,223.2 -863.8,189.9 -806.1,156.6 -748.3,189.9 							"/>
							<polygon class="st14" points="-806.1,203.2 -829.1,189.9 -806.1,176.6 -783,189.9 							"/>
							<polygon class="st14" points="-806.1,177.8 -784.1,190.5 -783,189.9 -806.1,176.6 -829.1,189.9 -828.1,190.5 							"/>
							
								<linearGradient id="SVGID_34_" gradientUnits="userSpaceOnUse" x1="-806.1071" y1="419.2875" x2="-748.382" y2="419.2875" gradientTransform="matrix(1 0 0 -1 0 630)">
								<stop  offset="0" style="stop-color:#42E8E0"/>
								<stop  offset="0.1507" style="stop-color:#43E3E0"/>
								<stop  offset="0.3285" style="stop-color:#45D5DF"/>
								<stop  offset="0.5199" style="stop-color:#49BDDD"/>
								<stop  offset="0.7209" style="stop-color:#4E9CDB"/>
								<stop  offset="0.9274" style="stop-color:#5472D8"/>
								<stop  offset="1" style="stop-color:#5761D7"/>
							</linearGradient>
							<polygon class="st66" points="-806.1,223.2 -806.1,231.6 -748.3,198.3 -748.3,189.9 							"/>
						</g>
						
							<linearGradient id="SVGID_35_" gradientUnits="userSpaceOnUse" x1="-863.8071" y1="419.2875" x2="-806.1071" y2="419.2875" gradientTransform="matrix(1 0 0 -1 0 630)">
							<stop  offset="0" style="stop-color:#42E8E0"/>
							<stop  offset="0.1507" style="stop-color:#43E3E0"/>
							<stop  offset="0.3285" style="stop-color:#45D5DF"/>
							<stop  offset="0.5199" style="stop-color:#49BDDD"/>
							<stop  offset="0.7209" style="stop-color:#4E9CDB"/>
							<stop  offset="0.9274" style="stop-color:#5472D8"/>
							<stop  offset="1" style="stop-color:#5761D7"/>
						</linearGradient>
						<polygon class="st67" points="-863.8,189.9 -863.8,198.3 -806.1,231.6 -806.1,223.2 						"/>
					</g>
					<polygon class="st68" points="-806.1,222.3 -863,189.4 -863.8,189.9 -806.1,223.2 -748.3,189.9 -749.1,189.4 					"/>
				</g>
			</g>
		</g>
		<g>
			<path class="st58" d="M-806.1,468.8c-1.2,0-2.3-0.2-3.1-0.7l-70.7-40.8c-0.9-0.5-1.4-1.3-1.4-2.1c0-1,0.7-1.9,1.9-2.6l69.7-40.3
				c2.1-1.2,5.3-1.4,7.1-0.3l70.7,40.8c0.9,0.5,1.4,1.3,1.4,2.1c0,1-0.7,1.9-1.9,2.6l-69.7,40.3
				C-803.2,468.5-804.7,468.8-806.1,468.8z M-808.7,467.1c1.5,0.9,4.3,0.7,6-0.3l69.7-40.3c0.8-0.5,1.3-1.1,1.3-1.7s-0.5-1-0.9-1.2
				l-70.7-40.8c-1.5-0.9-4.3-0.7-6,0.3l-69.7,40.3c-0.8,0.5-1.3,1.1-1.3,1.7s0.5,1,0.9,1.2L-808.7,467.1z"/>
			<g>
				<g>
					
						<linearGradient id="SVGID_36_" gradientUnits="userSpaceOnUse" x1="-918.2292" y1="208.8375" x2="-725.8823" y2="208.8375" gradientTransform="matrix(1 0 0 -1 0 630)">
						<stop  offset="0" style="stop-color:#5761D7"/>
						<stop  offset="0.1645" style="stop-color:#5E67DA"/>
						<stop  offset="0.4051" style="stop-color:#727AE2"/>
						<stop  offset="0.6924" style="stop-color:#9297EE"/>
						<stop  offset="1" style="stop-color:#BCBEFF"/>
					</linearGradient>
					<polygon class="st69" points="-731,395.2 -731,403.8 -806.1,447.2 -881.1,403.8 -881.1,395.2 					"/>
					<polygon class="st60" points="-806.1,438.5 -881.1,395.2 -806.1,351.8 -731,395.2 					"/>
					<polygon class="st6" points="-806.1,437.5 -880.2,394.6 -881.1,395.2 -806.1,438.5 -731,395.2 -731.9,394.6 					"/>
				</g>
				<g>
					<polygon class="st61" points="-806.1,428.5 -863.8,395.2 -806.1,361.8 -748.3,395.2 					"/>
					<g>
						
							<linearGradient id="SVGID_37_" gradientUnits="userSpaceOnUse" x1="-863.8071" y1="234.8875" x2="-748.3071" y2="234.8875" gradientTransform="matrix(1 0 0 -1 0 630)">
							<stop  offset="0" style="stop-color:#42E8E0"/>
							<stop  offset="0.1507" style="stop-color:#43E3E0"/>
							<stop  offset="0.3285" style="stop-color:#45D5DF"/>
							<stop  offset="0.5199" style="stop-color:#49BDDD"/>
							<stop  offset="0.7209" style="stop-color:#4E9CDB"/>
							<stop  offset="0.9274" style="stop-color:#5472D8"/>
							<stop  offset="1" style="stop-color:#5761D7"/>
						</linearGradient>
						<polygon class="st70" points="-806.1,428.5 -863.8,395.2 -806.1,361.8 -748.3,395.2 						"/>
						<g>
							
								<linearGradient id="SVGID_38_" gradientUnits="userSpaceOnUse" x1="-806.1071" y1="255.7375" x2="-748.3803" y2="255.7375" gradientTransform="matrix(1 0 0 -1 0 630)">
								<stop  offset="0" style="stop-color:#42E8E0"/>
								<stop  offset="0.1507" style="stop-color:#43E3E0"/>
								<stop  offset="0.3285" style="stop-color:#45D5DF"/>
								<stop  offset="0.5199" style="stop-color:#49BDDD"/>
								<stop  offset="0.7209" style="stop-color:#4E9CDB"/>
								<stop  offset="0.9274" style="stop-color:#5472D8"/>
								<stop  offset="1" style="stop-color:#5761D7"/>
							</linearGradient>
							<polygon class="st71" points="-806.1,353.4 -748.3,386.8 -748.3,395.2 -806.1,361.8 							"/>
							
								<linearGradient id="SVGID_39_" gradientUnits="userSpaceOnUse" x1="-863.8071" y1="255.7375" x2="-806.1071" y2="255.7375" gradientTransform="matrix(1 0 0 -1 0 630)">
								<stop  offset="0" style="stop-color:#42E8E0"/>
								<stop  offset="0.1507" style="stop-color:#43E3E0"/>
								<stop  offset="0.3285" style="stop-color:#45D5DF"/>
								<stop  offset="0.5199" style="stop-color:#49BDDD"/>
								<stop  offset="0.7209" style="stop-color:#4E9CDB"/>
								<stop  offset="0.9274" style="stop-color:#5472D8"/>
								<stop  offset="1" style="stop-color:#5761D7"/>
							</linearGradient>
							<polygon class="st72" points="-806.1,361.8 -863.8,395.2 -863.8,386.8 -806.1,353.4 							"/>
							
								<linearGradient id="SVGID_40_" gradientUnits="userSpaceOnUse" x1="-863.8071" y1="243.2875" x2="-748.3071" y2="243.2875" gradientTransform="matrix(1 0 0 -1 0 630)">
								<stop  offset="0" style="stop-color:#42E8E0"/>
								<stop  offset="0.1507" style="stop-color:#43E3E0"/>
								<stop  offset="0.3285" style="stop-color:#45D5DF"/>
								<stop  offset="0.5199" style="stop-color:#49BDDD"/>
								<stop  offset="0.7209" style="stop-color:#4E9CDB"/>
								<stop  offset="0.9274" style="stop-color:#5472D8"/>
								<stop  offset="1" style="stop-color:#5761D7"/>
							</linearGradient>
							<polygon class="st73" points="-806.1,420.1 -863.8,386.8 -806.1,353.4 -748.3,386.8 							"/>
							<polygon class="st14" points="-806.1,400.1 -829.1,386.8 -806.1,373.4 -783,386.8 							"/>
							<polygon class="st14" points="-806.1,374.7 -784.1,387.4 -783,386.8 -806.1,373.4 -829.1,386.8 -828.1,387.4 							"/>
							
								<linearGradient id="SVGID_41_" gradientUnits="userSpaceOnUse" x1="-806.1071" y1="222.3875" x2="-748.382" y2="222.3875" gradientTransform="matrix(1 0 0 -1 0 630)">
								<stop  offset="0" style="stop-color:#42E8E0"/>
								<stop  offset="0.1507" style="stop-color:#43E3E0"/>
								<stop  offset="0.3285" style="stop-color:#45D5DF"/>
								<stop  offset="0.5199" style="stop-color:#49BDDD"/>
								<stop  offset="0.7209" style="stop-color:#4E9CDB"/>
								<stop  offset="0.9274" style="stop-color:#5472D8"/>
								<stop  offset="1" style="stop-color:#5761D7"/>
							</linearGradient>
							<polygon class="st74" points="-806.1,420.1 -806.1,428.5 -748.3,395.2 -748.3,386.8 							"/>
						</g>
						
							<linearGradient id="SVGID_42_" gradientUnits="userSpaceOnUse" x1="-863.8071" y1="222.3875" x2="-806.1071" y2="222.3875" gradientTransform="matrix(1 0 0 -1 0 630)">
							<stop  offset="0" style="stop-color:#42E8E0"/>
							<stop  offset="0.1507" style="stop-color:#43E3E0"/>
							<stop  offset="0.3285" style="stop-color:#45D5DF"/>
							<stop  offset="0.5199" style="stop-color:#49BDDD"/>
							<stop  offset="0.7209" style="stop-color:#4E9CDB"/>
							<stop  offset="0.9274" style="stop-color:#5472D8"/>
							<stop  offset="1" style="stop-color:#5761D7"/>
						</linearGradient>
						<polygon class="st75" points="-863.8,386.8 -863.8,395.2 -806.1,428.5 -806.1,420.1 						"/>
					</g>
					<polygon class="st68" points="-806.1,419.2 -863,386.3 -863.8,386.8 -806.1,420.1 -748.3,386.8 -749.1,386.3 					"/>
				</g>
			</g>
		</g>
		<g>
			<path class="st58" d="M-505.2,271.9c-1.2,0-2.3-0.2-3.1-0.7l-70.7-40.8c-0.9-0.5-1.4-1.3-1.4-2.1c0-1,0.7-1.9,1.9-2.6l69.7-40.3
				c2.1-1.2,5.3-1.4,7.1-0.3l70.7,40.8c0.9,0.5,1.4,1.3,1.4,2.1c0,1-0.7,1.9-1.9,2.6l-69.7,40.3
				C-502.4,271.6-503.8,271.9-505.2,271.9z M-507.8,270.2c1.5,0.9,4.3,0.7,6-0.3l69.7-40.3c0.8-0.5,1.3-1.1,1.3-1.7s-0.5-1-0.9-1.2
				l-70.7-40.8c-1.5-0.9-4.3-0.7-6,0.3l-69.7,40.3c-0.8,0.5-1.3,1.1-1.3,1.7s0.5,1,0.9,1.2L-507.8,270.2z"/>
			<g>
				<g>
					
						<linearGradient id="SVGID_43_" gradientUnits="userSpaceOnUse" x1="-617.3969" y1="405.7375" x2="-425.0502" y2="405.7375" gradientTransform="matrix(1 0 0 -1 0 630)">
						<stop  offset="0" style="stop-color:#5761D7"/>
						<stop  offset="0.1645" style="stop-color:#5E67DA"/>
						<stop  offset="0.4051" style="stop-color:#727AE2"/>
						<stop  offset="0.6924" style="stop-color:#9297EE"/>
						<stop  offset="1" style="stop-color:#BCBEFF"/>
					</linearGradient>
					<polygon class="st76" points="-430.2,198.3 -430.2,207 -505.2,250.3 -580.3,207 -580.3,198.3 					"/>
					<polygon class="st60" points="-505.2,241.6 -580.3,198.3 -505.2,155 -430.2,198.3 					"/>
					<polygon class="st6" points="-505.2,240.6 -579.4,197.8 -580.3,198.3 -505.2,241.6 -430.2,198.3 -431.1,197.8 					"/>
				</g>
				<g>
					<polygon class="st61" points="-505.2,231.6 -563,198.3 -505.2,165 -447.5,198.3 					"/>
					<g>
						
							<linearGradient id="SVGID_44_" gradientUnits="userSpaceOnUse" x1="-563.0071" y1="431.7375" x2="-447.5071" y2="431.7375" gradientTransform="matrix(1 0 0 -1 0 630)">
							<stop  offset="0" style="stop-color:#42E8E0"/>
							<stop  offset="0.1507" style="stop-color:#43E3E0"/>
							<stop  offset="0.3285" style="stop-color:#45D5DF"/>
							<stop  offset="0.5199" style="stop-color:#49BDDD"/>
							<stop  offset="0.7209" style="stop-color:#4E9CDB"/>
							<stop  offset="0.9274" style="stop-color:#5472D8"/>
							<stop  offset="1" style="stop-color:#5761D7"/>
						</linearGradient>
						<polygon class="st77" points="-505.2,231.6 -563,198.3 -505.2,165 -447.5,198.3 						"/>
						<g>
							
								<linearGradient id="SVGID_45_" gradientUnits="userSpaceOnUse" x1="-505.2072" y1="452.5875" x2="-447.5071" y2="452.5875" gradientTransform="matrix(1 0 0 -1 0 630)">
								<stop  offset="0" style="stop-color:#42E8E0"/>
								<stop  offset="0.1507" style="stop-color:#43E3E0"/>
								<stop  offset="0.3285" style="stop-color:#45D5DF"/>
								<stop  offset="0.5199" style="stop-color:#49BDDD"/>
								<stop  offset="0.7209" style="stop-color:#4E9CDB"/>
								<stop  offset="0.9274" style="stop-color:#5472D8"/>
								<stop  offset="1" style="stop-color:#5761D7"/>
							</linearGradient>
							<polygon class="st78" points="-505.2,156.6 -447.5,189.9 -447.5,198.3 -505.2,165 							"/>
							
								<linearGradient id="SVGID_46_" gradientUnits="userSpaceOnUse" x1="-563.0071" y1="452.5875" x2="-505.2804" y2="452.5875" gradientTransform="matrix(1 0 0 -1 0 630)">
								<stop  offset="0" style="stop-color:#42E8E0"/>
								<stop  offset="0.1507" style="stop-color:#43E3E0"/>
								<stop  offset="0.3285" style="stop-color:#45D5DF"/>
								<stop  offset="0.5199" style="stop-color:#49BDDD"/>
								<stop  offset="0.7209" style="stop-color:#4E9CDB"/>
								<stop  offset="0.9274" style="stop-color:#5472D8"/>
								<stop  offset="1" style="stop-color:#5761D7"/>
							</linearGradient>
							<polygon class="st79" points="-505.2,165 -563,198.3 -563,189.9 -505.2,156.6 							"/>
							
								<linearGradient id="SVGID_47_" gradientUnits="userSpaceOnUse" x1="-563.0071" y1="440.1375" x2="-447.5071" y2="440.1375" gradientTransform="matrix(1 0 0 -1 0 630)">
								<stop  offset="0" style="stop-color:#42E8E0"/>
								<stop  offset="0.1507" style="stop-color:#43E3E0"/>
								<stop  offset="0.3285" style="stop-color:#45D5DF"/>
								<stop  offset="0.5199" style="stop-color:#49BDDD"/>
								<stop  offset="0.7209" style="stop-color:#4E9CDB"/>
								<stop  offset="0.9274" style="stop-color:#5472D8"/>
								<stop  offset="1" style="stop-color:#5761D7"/>
							</linearGradient>
							<polygon class="st80" points="-505.2,223.2 -563,189.9 -505.2,156.6 -447.5,189.9 							"/>
							<polygon class="st14" points="-505.2,203.2 -528.3,189.9 -505.2,176.6 -482.2,189.9 							"/>
							<polygon class="st14" points="-505.2,177.8 -483.2,190.5 -482.2,189.9 -505.2,176.6 -528.3,189.9 -527.2,190.5 							"/>
							
								<linearGradient id="SVGID_48_" gradientUnits="userSpaceOnUse" x1="-505.2072" y1="419.2875" x2="-447.5071" y2="419.2875" gradientTransform="matrix(1 0 0 -1 0 630)">
								<stop  offset="0" style="stop-color:#42E8E0"/>
								<stop  offset="0.1507" style="stop-color:#43E3E0"/>
								<stop  offset="0.3285" style="stop-color:#45D5DF"/>
								<stop  offset="0.5199" style="stop-color:#49BDDD"/>
								<stop  offset="0.7209" style="stop-color:#4E9CDB"/>
								<stop  offset="0.9274" style="stop-color:#5472D8"/>
								<stop  offset="1" style="stop-color:#5761D7"/>
							</linearGradient>
							<polygon class="st81" points="-505.2,223.2 -505.2,231.6 -447.5,198.3 -447.5,189.9 							"/>
						</g>
						
							<linearGradient id="SVGID_49_" gradientUnits="userSpaceOnUse" x1="-563.0071" y1="419.2875" x2="-505.2804" y2="419.2875" gradientTransform="matrix(1 0 0 -1 0 630)">
							<stop  offset="0" style="stop-color:#42E8E0"/>
							<stop  offset="0.1507" style="stop-color:#43E3E0"/>
							<stop  offset="0.3285" style="stop-color:#45D5DF"/>
							<stop  offset="0.5199" style="stop-color:#49BDDD"/>
							<stop  offset="0.7209" style="stop-color:#4E9CDB"/>
							<stop  offset="0.9274" style="stop-color:#5472D8"/>
							<stop  offset="1" style="stop-color:#5761D7"/>
						</linearGradient>
						<polygon class="st82" points="-563,189.9 -563,198.3 -505.2,231.6 -505.2,223.2 						"/>
					</g>
					<polygon class="st68" points="-505.2,222.3 -562.2,189.4 -563,189.9 -505.2,223.2 -447.5,189.9 -448.3,189.4 					"/>
				</g>
			</g>
		</g>
		<g>
			<path class="st58" d="M-505.2,468.8c-1.2,0-2.3-0.2-3.1-0.7l-70.7-40.8c-0.9-0.5-1.4-1.3-1.4-2.1c0-1,0.7-1.9,1.9-2.6l69.7-40.3
				c2.1-1.2,5.3-1.4,7.1-0.3l70.7,40.8c0.9,0.5,1.4,1.3,1.4,2.1c0,1-0.7,1.9-1.9,2.6l-69.7,40.3
				C-502.4,468.5-503.8,468.8-505.2,468.8z M-507.8,467.1c1.5,0.9,4.3,0.7,6-0.3l69.7-40.3c0.8-0.5,1.3-1.1,1.3-1.7s-0.5-1-0.9-1.2
				l-70.7-40.8c-1.5-0.9-4.3-0.7-6,0.3l-69.7,40.3c-0.8,0.5-1.3,1.1-1.3,1.7s0.5,1,0.9,1.2L-507.8,467.1z"/>
			<g>
				<g>
					
						<linearGradient id="SVGID_50_" gradientUnits="userSpaceOnUse" x1="-617.3969" y1="208.8375" x2="-425.0502" y2="208.8375" gradientTransform="matrix(1 0 0 -1 0 630)">
						<stop  offset="0" style="stop-color:#5761D7"/>
						<stop  offset="0.1645" style="stop-color:#5E67DA"/>
						<stop  offset="0.4051" style="stop-color:#727AE2"/>
						<stop  offset="0.6924" style="stop-color:#9297EE"/>
						<stop  offset="1" style="stop-color:#BCBEFF"/>
					</linearGradient>
					<polygon class="st83" points="-430.2,395.2 -430.2,403.8 -505.2,447.2 -580.3,403.8 -580.3,395.2 					"/>
					<polygon class="st60" points="-505.2,438.5 -580.3,395.2 -505.2,351.8 -430.2,395.2 					"/>
					<polygon class="st6" points="-505.2,437.5 -579.4,394.6 -580.3,395.2 -505.2,438.5 -430.2,395.2 -431.1,394.6 					"/>
				</g>
				<g>
					<polygon class="st61" points="-505.2,428.5 -563,395.2 -505.2,361.8 -447.5,395.2 					"/>
					<g>
						
							<linearGradient id="SVGID_51_" gradientUnits="userSpaceOnUse" x1="-563.0071" y1="234.8875" x2="-447.5071" y2="234.8875" gradientTransform="matrix(1 0 0 -1 0 630)">
							<stop  offset="0" style="stop-color:#42E8E0"/>
							<stop  offset="0.1507" style="stop-color:#43E3E0"/>
							<stop  offset="0.3285" style="stop-color:#45D5DF"/>
							<stop  offset="0.5199" style="stop-color:#49BDDD"/>
							<stop  offset="0.7209" style="stop-color:#4E9CDB"/>
							<stop  offset="0.9274" style="stop-color:#5472D8"/>
							<stop  offset="1" style="stop-color:#5761D7"/>
						</linearGradient>
						<polygon class="st84" points="-505.2,428.5 -563,395.2 -505.2,361.8 -447.5,395.2 						"/>
						<g>
							
								<linearGradient id="SVGID_52_" gradientUnits="userSpaceOnUse" x1="-505.2072" y1="255.7375" x2="-447.5071" y2="255.7375" gradientTransform="matrix(1 0 0 -1 0 630)">
								<stop  offset="0" style="stop-color:#42E8E0"/>
								<stop  offset="0.1507" style="stop-color:#43E3E0"/>
								<stop  offset="0.3285" style="stop-color:#45D5DF"/>
								<stop  offset="0.5199" style="stop-color:#49BDDD"/>
								<stop  offset="0.7209" style="stop-color:#4E9CDB"/>
								<stop  offset="0.9274" style="stop-color:#5472D8"/>
								<stop  offset="1" style="stop-color:#5761D7"/>
							</linearGradient>
							<polygon class="st85" points="-505.2,353.4 -447.5,386.8 -447.5,395.2 -505.2,361.8 							"/>
							
								<linearGradient id="SVGID_53_" gradientUnits="userSpaceOnUse" x1="-563.0071" y1="255.7375" x2="-505.2804" y2="255.7375" gradientTransform="matrix(1 0 0 -1 0 630)">
								<stop  offset="0" style="stop-color:#42E8E0"/>
								<stop  offset="0.1507" style="stop-color:#43E3E0"/>
								<stop  offset="0.3285" style="stop-color:#45D5DF"/>
								<stop  offset="0.5199" style="stop-color:#49BDDD"/>
								<stop  offset="0.7209" style="stop-color:#4E9CDB"/>
								<stop  offset="0.9274" style="stop-color:#5472D8"/>
								<stop  offset="1" style="stop-color:#5761D7"/>
							</linearGradient>
							<polygon class="st86" points="-505.2,361.8 -563,395.2 -563,386.8 -505.2,353.4 							"/>
							
								<linearGradient id="SVGID_54_" gradientUnits="userSpaceOnUse" x1="-563.0071" y1="243.2875" x2="-447.5071" y2="243.2875" gradientTransform="matrix(1 0 0 -1 0 630)">
								<stop  offset="0" style="stop-color:#42E8E0"/>
								<stop  offset="0.1507" style="stop-color:#43E3E0"/>
								<stop  offset="0.3285" style="stop-color:#45D5DF"/>
								<stop  offset="0.5199" style="stop-color:#49BDDD"/>
								<stop  offset="0.7209" style="stop-color:#4E9CDB"/>
								<stop  offset="0.9274" style="stop-color:#5472D8"/>
								<stop  offset="1" style="stop-color:#5761D7"/>
							</linearGradient>
							<polygon class="st87" points="-505.2,420.1 -563,386.8 -505.2,353.4 -447.5,386.8 							"/>
							<polygon class="st14" points="-505.2,400.1 -528.3,386.8 -505.2,373.4 -482.2,386.8 							"/>
							<polygon class="st14" points="-505.2,374.7 -483.2,387.4 -482.2,386.8 -505.2,373.4 -528.3,386.8 -527.2,387.4 							"/>
							
								<linearGradient id="SVGID_55_" gradientUnits="userSpaceOnUse" x1="-505.2072" y1="222.3875" x2="-447.5071" y2="222.3875" gradientTransform="matrix(1 0 0 -1 0 630)">
								<stop  offset="0" style="stop-color:#42E8E0"/>
								<stop  offset="0.1507" style="stop-color:#43E3E0"/>
								<stop  offset="0.3285" style="stop-color:#45D5DF"/>
								<stop  offset="0.5199" style="stop-color:#49BDDD"/>
								<stop  offset="0.7209" style="stop-color:#4E9CDB"/>
								<stop  offset="0.9274" style="stop-color:#5472D8"/>
								<stop  offset="1" style="stop-color:#5761D7"/>
							</linearGradient>
							<polygon class="st88" points="-505.2,420.1 -505.2,428.5 -447.5,395.2 -447.5,386.8 							"/>
						</g>
						
							<linearGradient id="SVGID_56_" gradientUnits="userSpaceOnUse" x1="-563.0071" y1="222.3875" x2="-505.2804" y2="222.3875" gradientTransform="matrix(1 0 0 -1 0 630)">
							<stop  offset="0" style="stop-color:#42E8E0"/>
							<stop  offset="0.1507" style="stop-color:#43E3E0"/>
							<stop  offset="0.3285" style="stop-color:#45D5DF"/>
							<stop  offset="0.5199" style="stop-color:#49BDDD"/>
							<stop  offset="0.7209" style="stop-color:#4E9CDB"/>
							<stop  offset="0.9274" style="stop-color:#5472D8"/>
							<stop  offset="1" style="stop-color:#5761D7"/>
						</linearGradient>
						<polygon class="st89" points="-563,386.8 -563,395.2 -505.2,428.5 -505.2,420.1 						"/>
					</g>
					<polygon class="st68" points="-505.2,419.2 -562.2,386.3 -563,386.8 -505.2,420.1 -447.5,386.8 -448.3,386.3 					"/>
				</g>
			</g>
		</g>
	</g>
</g>
<g class="st15">
	<g>
		<path class="st90" d="M-869-18.8c51.9-15.6,82.7,43.1,52.4,99.8c-25.7,48.1-88.4,82.8-104.8,32.3c-9.6-29.7-1.7-102.5,47.4-130
			c-13.2,6.8-22.9,16.5-32.4,32.3c18.1,22.3,19.6,24.1,35.2,42c18.5-43.7,20-47.3,33.7-76.8C-848.2-22.9-857.6-22.8-869-18.8
			L-869-18.8z M-872.6-17.3c-0.4,0.2-0.8,0.4-1.2,0.6C-873.4-17-873-17.1-872.6-17.3L-872.6-17.3z M-870-18.4
			c0.3-0.1,0.6-0.2,0.9-0.3C-869.4-18.7-869.7-18.6-870-18.4L-870-18.4z M-871.2-17.9c-0.4,0.2-0.8,0.4-1.2,0.5
			C-872-17.6-871.6-17.8-871.2-17.9L-871.2-17.9z M-871.2-17.9c0.3-0.1,0.7-0.3,1-0.4C-870.6-18.2-870.9-18.1-871.2-17.9
			L-871.2-17.9z"/>
		<path class="st13" d="M-956.6,36.9c3-3.2,6.3-6.3,9.7-9.4v151.2c-3.5,3.1-6.7,6.2-9.7,9.4V36.9L-956.6,36.9z"/>
		<path class="st13" d="M-972.2,109.8c2.1-3.4,4.5-6.7,7.1-10v98c-2.6,3.3-5,6.6-7.1,10V109.8L-972.2,109.8z"/>
		<path class="st90" d="M-986.1,223.8l0.2,0.4l0.2-9.9l-0.3-0.5v10H-986.1z M-986.1,253V101.8c0-1,0-1.9,0.1-2.9
			c0.3-6.9,1.5-13.7,3.6-20.4v151.2c-2.1,6.7-3.3,13.5-3.6,20.4C-986.1,251.1-986.1,252-986.1,253L-986.1,253z"/>
		<polygon class="st13" points="-986.1,223.8 -985.9,224.1 -985.8,214.2 -986.1,213.7 		"/>
		<path class="st13" d="M-873.8-16.8c-0.1,0-0.1,0.1-0.2,0.1C-873.9-16.7-873.8-16.7-873.8-16.8L-873.8-16.8z M-869.1-18.8
			C-869.1-18.8-869-18.8-869.1-18.8C-869-18.8-869.1-18.8-869.1-18.8L-869.1-18.8z M-872.4-17.4c-0.1,0-0.1,0.1-0.2,0.1
			C-872.6-17.4-872.5-17.4-872.4-17.4L-872.4-17.4z M-870.2-18.3C-870.2-18.3-870.2-18.4-870.2-18.3
			C-870.2-18.4-870.2-18.4-870.2-18.3C-870.1-18.4-870.1-18.4-870.2-18.3c0.1,0,0.1,0,0.1,0l0,0l0,0l0,0l0,0
			C-870.1-18.4-870.1-18.4-870.2-18.3L-870.2-18.3z"/>
		<path class="st13" d="M-871.2-17.9c16.9-7,29.1-2.8,33.7-1.2c-19.3,42.6-21.4,47.1-33.7,76.8c-19.1-22.2-22-25.6-35.2-42
			C-902.7,9.4-891.3-9.5-871.2-17.9L-871.2-17.9z"/>
	</g>
	<g>
		<path class="st90" d="M-751.2,354.1c-15.6,4.6-25.5-4.8-29.2-7.6c-28.6-24.2-53.6-53.7-82.2-77.8c-8.5-7.1-13.7-4.2-16.6-3.4
			c-53.4,21.2-53.4,21.2-62,8.3c-15.7-27.8-16.2-30-23.5-47.4c-1.7-4-7.3-10-9.8-9.7c-12,3.4-10.4,5.8-11.5,7.3v-10.1
			c14.1-5.4,15.6-6.1,21.3,7.1c26.4,56,31,54.8,37.2,53.3c56.2-22.5,55.5-20.9,69.9-6c24.8,25.8,74.8,76.1,90.2,80.1
			c4.7,0.6,12.3-0.1,16.7-1.2c54.3-18.2,75.8-29.6,128.9-52.5l4.8,7.7c-19.7,8.6-79.1,32-133.8,49.2L-751.2,354.1z M-581.5,415
			V263.8c-16.7,0.9-33.7,1.4-51.1,1.2c-196.5-1.6-353.5-74.4-353.5-163.3v151.2c0,88.9,157,161.7,353.5,163.3
			C-615.3,416.4-598.2,416-581.5,415L-581.5,415z"/>
		<path class="st13" d="M-751.2,354.1c-14,3.6-27.2,7-109.5-81.6c-10.4-10.5-10.4-10.5-63.9,10.8c-6.1,1.5-15.2,3.7-40.5-56.6
			c-7.8-17.8-20.8-3.1-20.9-3v-10.1c4.4-2.5,4.7-2.7,11.4-4.6c1.2-0.3,2.5-0.3,3.7,0.3c1.8,0.9,3.6,3,6.7,9.7c14.6,31,14.6,31,25,48
			c6.2,9.2,6.2,9.2,56.4-10.7c3.4-0.9,10.6-2.8,21.3,5.7c30.2,24.1,54.8,54.3,84.7,78.8c11.2,8,18,12.8,155.2-46.4l4.8,7.7
			C-636.7,310.7-696.5,336.8-751.2,354.1L-751.2,354.1z"/>
	</g>
</g>
<g>
	
		<ellipse transform="matrix(0.6651 -0.7468 0.7468 0.6651 -211.7709 408.9771)" class="st91" cx="350.1" cy="440.6" rx="61.7" ry="106.8"/>
	<g>
		
			<linearGradient id="SVGID_57_" gradientUnits="userSpaceOnUse" x1="-692.2772" y1="-16.5316" x2="-357.8785" y2="-16.5316" gradientTransform="matrix(0.7468 0.6651 0.6651 -0.7468 942.748 577.7589)">
			<stop  offset="0" style="stop-color:#A31FA9"/>
			<stop  offset="6.679147e-02" style="stop-color:#8B17A0"/>
			<stop  offset="0.1494" style="stop-color:#740F98"/>
			<stop  offset="0.2393" style="stop-color:#640A92"/>
			<stop  offset="0.3408" style="stop-color:#5B078F"/>
			<stop  offset="0.4785" style="stop-color:#58068E"/>
			<stop  offset="0.6264" style="stop-color:#4D22A3"/>
			<stop  offset="0.9436" style="stop-color:#3168DA"/>
			<stop  offset="1" style="stop-color:#2C75E4"/>
		</linearGradient>
		<path class="st92" d="M664.6,352l36.3-40.8l-22.1-19.7c-1.1-7.3-2.8-15-5.5-23c-23.7-71.6-102.7-142-176.5-157.2
			c-8.3-1.7-16.1-2.5-23.5-2.8l-22.1-19.7l-36.4,40.9l0,0c-16.4,18.4-20.7,47.7-8.8,83.5c23.7,71.6,102.7,142,176.5,157.2
			C619.5,378.1,648.2,370.5,664.6,352z"/>
		<path class="st93" d="M417,129.7l35.4-39.8l-1.1-1l-36.4,40.9c-14.7,16.5-19.5,41.8-11.9,72.5C396.5,171.6,402,146.5,417,129.7z"
			/>
		<g>
			<path class="st94" d="M698.9,309.5L663.7,349c-16.4,18.5-45,26.1-82,18.5c-73.8-15.3-152.9-85.7-176.5-157.2
				c-1.2-3.6-2.1-7.2-3-10.7c1,4.5,2.3,9,3.8,13.7c23.7,71.6,102.7,142,176.5,157.2c37,7.6,65.6,0,82-18.5l36.3-40.8L698.9,309.5z"
				/>
		</g>
		
			<linearGradient id="SVGID_58_" gradientUnits="userSpaceOnUse" x1="673.7773" y1="-1297.8142" x2="946.6978" y2="-1297.8142" gradientTransform="matrix(0.3142 0.9494 0.9792 0.2026 1592.3468 -306.2455)">
			<stop  offset="0" style="stop-color:#8D139B"/>
			<stop  offset="0.1651" style="stop-color:#851BA1"/>
			<stop  offset="0.4284" style="stop-color:#6E33B2"/>
			<stop  offset="0.7551" style="stop-color:#4958CD"/>
			<stop  offset="1" style="stop-color:#2979E4"/>
		</linearGradient>
		<path class="st95" d="M619,329.6c-73.8-15.3-152.9-85.7-176.5-157.2c-23.7-71.6,17-117.2,90.8-101.9s152.9,85.7,176.5,157.2
			C733.4,299.3,692.8,344.9,619,329.6z"/>
		<path class="st93" d="M535.9,74.2c37.5,7.8,76.3,29.3,108.9,58c-32.8-30.5-72.9-53.8-111.6-61.8c-57.5-11.9-95.6,13.3-97.2,58.8
			C441.2,85.8,479,62.4,535.9,74.2z"/>
		<path class="st94" d="M709.7,227.7c-6.3-19-16.6-37.9-29.5-55.7c11.3,16.4,20.3,33.6,26,50.9c23.7,71.6-17,117.2-90.8,101.9
			c-54.2-11.2-111.1-52.2-147-101.5c35.6,51.5,94.5,94.8,150.5,106.4C692.8,344.9,733.4,299.3,709.7,227.7z"/>
		
			<ellipse transform="matrix(0.6651 -0.7468 0.7468 0.6651 43.7737 496.5492)" class="st96" cx="575.5" cy="199.5" rx="61.7" ry="106.8"/>
		<path class="st97" d="M526.1,141.4c47.2,9.8,97.7,54.7,112.8,100.5c4.9,14.8,5.4,27.8,2.4,38.4c21.2-8.9,29.8-32.2,19.6-63.1
			c-15.1-45.7-65.6-90.7-112.8-100.5c-31.9-6.6-54.1,4.6-60.4,26.7C497.8,139.2,510.8,138.2,526.1,141.4z"/>
		<path class="st98" d="M533.9,132.7c47.2,9.8,97.7,54.7,112.8,100.5c5.9,17.7,5.5,32.8,0.2,44.3c17.1-10.4,23.3-32.2,14-60.2
			c-15.1-45.7-65.6-90.7-112.8-100.5c-28.9-6-49.8,2.7-58.2,20.9C500.6,131,515.6,128.9,533.9,132.7z"/>
		<path class="st99" d="M540.8,124.9c47.2,9.8,97.7,54.7,112.8,100.5c6.7,20.2,5.3,37.2-2.3,49c13.7-11.3,18.1-31.7,9.6-57.2
			c-15.1-45.7-65.6-90.7-112.8-100.5c-26.3-5.4-46,1.3-55.7,16.2C503.2,123.9,519.9,120.6,540.8,124.9z"/>
		<g>
			<path class="st94" d="M690.3,201.9c-1.7-3.1-5.4-5.6-8.3-5.5c-2.8,0.1-3.8,2.7-2,5.8c1.7,3.1,5.4,5.6,8.3,5.5
				C691.1,207.6,692,205,690.3,201.9z"/>
			<path class="st100" d="M700.3,226.2c-1.1-3-4.5-5.9-7.6-6.5c-3.1-0.5-4.7,1.5-3.5,4.5c1.1,3,4.5,5.9,7.6,6.5
				C699.8,231.2,701.4,229.2,700.3,226.2z"/>
			<path class="st101" d="M705.5,249.4c-0.5-2.9-3.5-6.1-6.7-7.2s-5.5,0.3-5,3.2c0.5,2.9,3.5,6.1,6.7,7.2
				C703.8,253.7,706,252.2,705.5,249.4z"/>
			<path class="st102" d="M705.7,270.6c0.1-2.6-2.4-6.1-5.6-7.7c-3.3-1.7-6-0.9-6.2,1.7c-0.1,2.6,2.4,6.1,5.6,7.7
				C702.8,274,705.6,273.2,705.7,270.6z"/>
			<path class="st103" d="M700.9,289.2c0.8-2.2-1.2-5.8-4.3-7.9c-3.2-2.1-6.4-2-7.2,0.2s1.2,5.8,4.3,7.9
				C696.9,291.5,700.1,291.4,700.9,289.2z"/>
			
				<ellipse transform="matrix(0.6651 -0.7468 0.7468 0.6651 5.8768 612.5186)" class="st104" cx="685.8" cy="299.7" rx="4.1" ry="7"/>
		</g>
	</g>
</g>
<g>
	<circle class="st94" cx="702.6" cy="303.5" r="18.6"/>
	<path class="st94" d="M775.7,384.3c-5.2,0-9.3-4.2-9.3-9.3s4.2-9.3,9.3-9.3c5.2,0,9.3,4.2,9.3,9.3S780.9,384.3,775.7,384.3z"/>
	<path class="st94" d="M870.4,280.6c-10.7,0-19.3-8.6-19.3-19.3c0-10.7,8.6-19.3,19.3-19.3s19.3,8.6,19.3,19.3
		C889.7,271.9,881.1,280.6,870.4,280.6z"/>
	<path class="st94" d="M827.3,245.4c-4.5,0-8.2-3.7-8.2-8.2s3.7-8.2,8.2-8.2s8.2,3.7,8.2,8.2C835.5,241.7,831.8,245.4,827.3,245.4z"
		/>
	<path class="st94" d="M824.8,295.1c-8,0-14.6-6.5-14.6-14.6c0-8,6.5-14.6,14.6-14.6s14.6,6.5,14.6,14.6
		C839.3,288.6,832.8,295.1,824.8,295.1z"/>
	<circle class="st94" cx="607.3" cy="452.2" r="118.5"/>
	
		<ellipse transform="matrix(0.7071 -0.7071 0.7071 0.7071 -102.3928 575.7875)" class="st105" cx="643.8" cy="411.5" rx="59" ry="75.6"/>
	
		<ellipse transform="matrix(0.7071 -0.7071 0.7071 0.7071 -102.3886 575.7848)" class="st97" cx="643.8" cy="411.5" rx="32.8" ry="42.1"/>
	<path class="st99" d="M667.1,388.3c-16.4-16.4-40.1-19.4-52.9-6.5c-0.2,0.2-0.4,0.5-0.7,0.8c13-12,36.1-8.9,52.2,7.2
		c16.1,16.1,19.2,39.2,7.2,52.2c0.3-0.2,0.5-0.4,0.8-0.7C686.4,428.4,683.5,404.7,667.1,388.3z"/>
	<path class="st99" d="M635.4,420c-6-6-7.1-14.6-2.4-19.3c4.7-4.7,13.3-3.6,19.3,2.4s7.1,14.6,2.4,19.3
		C650.1,427,641.4,425.9,635.4,420z"/>
	<circle class="st94" cx="422.4" cy="452.2" r="51.6"/>
	<path class="st94" d="M485.4,344.9c-7.9,7.9-20.8,7.9-28.7,0s-7.9-20.8,0-28.7c7.9-7.9,20.8-7.9,28.7,0
		C493.3,324.1,493.3,337,485.4,344.9z"/>
	<path class="st105" d="M431.1,443.5c-8.3-8.3-9.8-20.3-3.3-26.7s18.4-5,26.7,3.3c8.3,8.3,9.8,20.3,3.3,26.7
		S439.4,451.8,431.1,443.5z"/>
</g>
<g>
	<path class="st94" d="M488.9,34c4.6,2.4,6.4,8,4,12.6s-8,6.4-12.6,4s-6.4-8-4-12.6S484.3,31.6,488.9,34z"/>
	<path class="st94" d="M357.2,82.7c9.5,4.9,13.2,16.5,8.3,26c-4.9,9.5-16.5,13.2-26,8.3s-13.2-16.5-8.3-26S347.7,77.8,357.2,82.7z"
		/>
	<path class="st94" d="M379.4,133.8c4,2.1,5.6,7,3.5,11.1c-2.1,4-7,5.6-11.1,3.5c-4-2.1-5.6-7-3.5-11.1
		C370.4,133.3,375.3,131.7,379.4,133.8z"/>
	<path class="st94" d="M404.5,90.7c7.1,3.7,9.9,12.5,6.3,19.6s-12.5,9.9-19.6,6.3c-7.1-3.7-9.9-12.5-6.3-19.6S397.3,87.1,404.5,90.7
		z"/>
</g>
</svg>
